<svg height="469pt" viewBox="0 -53 469.33333 469" width="469pt" xmlns="http://www.w3.org/2000/svg"><path d="m117.332031 352.167969h201.152344c28.289063 0 55.425781-11.242188 75.4375-31.253907l33.554687-33.558593c19.988282-19.988281 31.210938-47.082031 31.210938-75.328125 0-26.515625-9.898438-52.074219-27.734375-71.679688l-85.203125-93.121094c-11.753906-11.753906-30.785156-11.753906-42.539062 0l-.128907.128907c-11.753906 11.753906-11.753906 30.804687 0 42.539062l6.25 6.273438-26.664062-26.667969c-11.757813-11.753906-30.785157-11.753906-42.539063 0l-.128906.128906c-11.753906 11.753906-11.753906 30.78125 0 42.539063l26.667969 26.664062-42.667969-42.664062c-11.753906-11.757813-30.785156-11.757813-42.539062 0l-.128907.125c-11.753906 11.757812-11.753906 30.785156 0 42.539062l42.667969 42.667969-106.730469-106.730469c-11.753906-11.753906-30.785156-11.753906-42.539062 0l-.128907.128907c-11.753906 11.753906-11.753906 30.78125 0 42.539062l160.066407 160.0625-106.988281 16.8125c-18.175782 2.601562-31.679688 18.152344-31.679688 36.519531 0 11.777344 9.558594 21.335938 21.332031 21.335938zm0 0" fill="#ffcc80"/><path d="m318.484375 362.832031h-201.152344c-17.640625 0-32-14.355469-32-32 0-23.53125 17.558594-43.753906 40.832031-47.082031l86.144532-13.523438-145.238282-145.238281c-15.890624-15.894531-15.890624-41.75 0-57.621093 16.023438-16.023438 41.878907-16 57.75-.128907l37.804688 37.804688c1.855469-6.316407 5.269531-12.246094 10.238281-17.21875 14.679688-14.71875 37.675781-15.890625 53.652344-3.710938 1.835937-6.464843 5.292969-12.542969 10.347656-17.621093 14.699219-14.71875 37.71875-15.914063 53.675781-3.691407 1.792969-6.484375 5.246094-12.566406 10.324219-17.640625 16.023438-16.023437 41.878907-16 57.75-.128906l80.214844 88.148438c19.667969 21.632812 30.503906 49.644531 30.503906 78.871093 0 31.292969-12.179687 60.734375-34.324219 82.855469l-33.558593 33.558594c-22.164063 22.164062-51.625 34.367187-82.964844 34.367187zm-222.484375-286.207031c-4.96875 0-9.941406 1.898438-13.738281 5.675781-7.679688 7.699219-7.679688 20.03125-.105469 27.605469l160.0625 160.0625c2.835938 2.839844 3.839844 7.039062 2.601562 10.839844-1.257812 3.816406-4.523437 6.613281-8.488281 7.230468l-106.988281 16.808594c-12.992188 1.859375-22.675781 13.015625-22.675781 25.984375 0 5.890625 4.777343 10.667969 10.664062 10.667969h201.152344c25.644531 0 49.75-9.984375 67.882813-28.117188l33.558593-33.558593c18.113281-18.109375 28.074219-42.175781 28.074219-67.773438 0-23.917969-8.875-46.828125-24.9375-64.511719l-79.875-87.789062c-7.230469-7.167969-19.539062-7.210938-27.113281.363281-3.796875 3.796875-5.800781 8.660157-5.800781 13.84375 0 5.1875 2.023437 10.070313 5.695312 13.742188l.917969.914062c4.160156 4.160157 4.160156 10.925781 0 15.085938-4.074219 4.09375-10.6875 4.15625-14.871094.210937 0 0 0-.019531-.019531-.019531h-.023438s0 0-.019531-.023437c0 0-.023437-.019532-.023437-.019532s0 0-.019532-.023437l-22.378906-22.378907c-7.550781-7.550781-19.90625-7.550781-27.457031 0-7.699219 7.703126-7.699219 20.011719-.128907 27.585938l22.253907 22.25c2.089843 2.089844 3.132812 4.820312 3.132812 7.550781s-1.042969 5.460938-3.113281 7.554688c-4.160156 4.160156-10.921875 4.160156-15.082031 0l-43.605469-43.605469c-7.550781-7.554688-19.90625-7.554688-27.457031 0-7.699219 7.699219-7.699219 20.007812-.128907 27.582031l43.585938 43.585938c2.089844 2.089843 3.136719 4.820312 3.136719 7.550781s-1.046875 5.460938-3.117188 7.550781c-4.160156 4.160157-10.921875 4.160157-15.082031 0l-106.730469-106.730469c-3.796875-3.796874-8.769531-5.695312-13.738281-5.695312zm0 0"/><path d="m60.992188 184.507812c-1.472657 0-2.964844-.296874-4.394532-.9375-34.367187-15.554687-56.597656-49.855468-56.597656-87.402343 0-52.929688 43.070312-96 96-96 37.546875 0 71.851562 22.226562 87.382812 56.617187 2.429688 5.355469.042969 11.691406-5.335937 14.101563-5.375 2.410156-11.691406.019531-14.101563-5.332031-12.09375-26.753907-38.761718-44.054688-67.945312-44.054688-41.171875 0-74.667969 33.492188-74.667969 74.667969 0 29.183593 17.300781 55.847656 44.054688 67.945312 5.355469 2.433594 7.742187 8.746094 5.332031 14.121094-1.789062 3.925781-5.671875 6.273437-9.726562 6.273437zm0 0"/></svg>