<svg height="469pt" viewBox="0 -21 469.35467 469" width="469pt" xmlns="http://www.w3.org/2000/svg"><path d="m117.332031 416.175781h201.152344c28.289063 0 55.425781-11.242187 75.4375-31.25l33.554687-33.558593c19.988282-19.988282 31.210938-47.082032 31.210938-75.328126 0-26.519531-9.898438-52.074218-27.734375-71.679687l-85.203125-93.121094c-11.753906-11.753906-30.785156-11.753906-42.539062 0l-.128907.128907c-11.753906 11.753906-11.753906 30.804687 0 42.539062l6.25 6.269531-26.664062-26.664062c-11.757813-11.753907-30.785157-11.753907-42.539063 0l-.128906.125c-11.753906 11.757812-11.753906 30.785156 0 42.539062l26.667969 26.667969-128-128c-11.757813-11.753906-30.785157-11.753906-42.539063 0l-.128906.128906c-11.753906 11.753906-11.753906 30.785156 0 42.539063l128 128-106.730469-106.730469c-11.753906-11.757812-30.785156-11.757812-42.539062 0l-.128907.125c-11.753906 11.757812-11.753906 30.785156 0 42.539062l160.066407 160.066407-106.988281 16.808593c-18.175782 2.605469-31.679688 18.15625-31.679688 36.523438 0 11.777344 9.558594 21.332031 21.332031 21.332031zm0 0" fill="#ffcc80"/><path d="m318.484375 426.84375h-201.152344c-17.640625 0-32-14.355469-32-32 0-23.53125 17.558594-43.753906 40.832031-47.082031l86.144532-13.527344-145.238282-145.234375c-15.890624-15.894531-15.890624-41.75 0-57.621094 5.121094-5.144531 11.265626-8.621094 17.773438-10.476562-12.160156-15.957032-10.945312-38.890625 3.625-53.460938 16.023438-16 41.878906-16 57.75-.128906l80.425781 80.40625c1.855469-6.292969 5.269531-12.246094 10.242188-17.214844 14.699219-14.699218 37.714843-15.914062 53.671875-3.691406 1.792968-6.484375 5.25-12.566406 10.328125-17.644531 16-16 41.855469-16 57.746093-.125l80.214844 88.148437c19.667969 21.632813 30.507813 49.640625 30.507813 78.867188 0 31.296875-12.183594 60.738281-34.324219 82.859375l-33.558594 33.558593c-22.1875 22.164063-51.648437 34.367188-82.988281 34.367188zm-222.484375-286.207031c-4.96875 0-9.941406 1.898437-13.738281 5.675781-7.703125 7.699219-7.703125 20.007812-.128907 27.582031l160.066407 160.0625c2.835937 2.839844 3.839843 7.042969 2.601562 10.839844-1.257812 3.816406-4.523437 6.613281-8.492187 7.230469l-106.984375 16.8125c-12.972657 1.875-22.65625 13.035156-22.65625 26.003906 0 5.886719 4.777343 10.667969 10.664062 10.667969h201.152344c25.644531 0 49.75-9.984375 67.882813-28.117188l33.558593-33.558593c18.113281-18.113282 28.074219-42.175782 28.074219-67.777344 0-23.914063-8.875-46.824219-24.9375-64.511719l-79.875-87.785156c-7.230469-7.191407-19.539062-7.191407-27.113281.363281-3.796875 3.796875-5.800781 8.660156-5.800781 13.84375s2.023437 10.070312 5.695312 13.738281l.917969.917969c4.160156 4.160156 4.160156 10.921875 0 15.082031-4.097657 4.074219-10.6875 4.160157-14.871094.214844 0 0-.019531-.042969-.019531-.023437h-.023438s0 0-.019531-.019532c0 0 0 0-.023437-.023437h-.019532s0 0-.023437-.039063l-22.355469-22.359375c-7.550781-7.550781-19.90625-7.550781-27.457031 0-7.699219 7.703125-7.699219 20.011719-.128907 27.585938l22.253907 22.25c2.089843 2.089843 3.132812 4.820312 3.132812 7.550781s-1.042969 5.460938-3.113281 7.550781c-4.160156 4.160157-10.921875 4.160157-15.082031 0l-128-128c-7.550781-7.550781-19.90625-7.550781-27.457031 0-7.699219 7.679688-7.699219 20.011719-.128907 27.5625l128 128c2.070313 2.09375 3.117188 4.824219 3.117188 7.554688s-1.046875 5.460937-3.117188 7.550781c-4.160156 4.160156-10.921875 4.160156-15.082031 0l-106.730469-106.730469c-3.796875-3.796875-8.769531-5.695312-13.738281-5.695312zm0 0"/><path d="m96 256.175781c-52.929688 0-96-43.070312-96-96 0-21.78125 7.617188-42.964843 21.566406-60.136719-.148437-1.257812-.234375-2.539062-.234375-3.863281 0-52.925781 43.074219-96 96-96 52.929688 0 96 43.074219 96 96 0 5.890625-4.777343 10.667969-10.664062 10.667969-5.890625 0-10.667969-4.777344-10.667969-10.667969 0-41.171875-33.492188-74.664062-74.667969-74.664062-41.171875 0-74.664062 33.492187-74.664062 74.664062 0 1.046875.167969 2.070313.320312 3.09375l.382813 3.222657c.234375 2.921874-.726563 5.84375-2.710938 8.019531-12.457031 13.890625-19.328125 31.511719-19.328125 49.664062 0 41.175781 33.496094 74.667969 74.667969 74.667969 5.886719 0 10.667969 4.777344 10.667969 10.667969 0 5.886719-4.78125 10.664062-10.667969 10.664062zm0 0"/></svg>