<svg height="469pt" viewBox="0 -10 469.33333 469" width="469pt" xmlns="http://www.w3.org/2000/svg"><path d="m117.332031 437.5h201.152344c28.289063 0 55.425781-11.242188 75.4375-31.253906l33.554687-33.558594c19.988282-19.988281 31.210938-47.082031 31.210938-75.324219 0-26.519531-9.898438-52.078125-27.734375-71.683593l-85.203125-93.117188c-11.753906-11.753906-30.785156-11.753906-42.539062 0l-.128907.125c-11.753906 11.757812-11.753906 30.808594 0 42.539062l6.25 6.273438-112-112c-11.753906-11.753906-30.78125-11.753906-42.539062 0l-.125.128906c-11.757813 11.753906-11.757813 30.78125 0 42.539063l112 112-128-128c-11.757813-11.757813-30.785157-11.757813-42.539063 0l-.128906.125c-11.753906 11.757812-11.753906 30.785156 0 42.539062l128 128-106.730469-106.730469c-11.753906-11.753906-30.785156-11.753906-42.539062 0l-.128907.128907c-11.753906 11.753906-11.753906 30.785156 0 42.539062l160.066407 160.0625-106.988281 16.8125c-18.175782 2.601563-31.679688 18.152344-31.679688 36.523438 0 11.773437 9.558594 21.332031 21.332031 21.332031zm0 0" fill="#ffcc80"/><path d="m318.484375 448.167969h-201.152344c-17.640625 0-32-14.359375-32-32 0-23.53125 17.558594-43.757813 40.832031-47.082031l86.144532-13.527344-145.238282-145.238282c-15.890624-15.890624-15.890624-41.75 0-57.621093 5.121094-5.140625 11.265626-8.617188 17.773438-10.472657-12.160156-15.957031-10.945312-38.890624 3.625-53.460937 12.992188-13.015625 32.492188-15.46875 47.871094-7.402344 1.6875-7.0625 5.292968-13.785156 10.773437-19.289062 16.023438-16.019531 41.878907-16 57.75-.125l85.78125 85.78125c1.835938-6.335938 5.25-12.269531 10.21875-17.238281 16.023438-16.023438 41.878907-16 57.75-.128907l80.214844 88.148438c19.667969 21.632812 30.503906 49.644531 30.503906 78.871093 0 31.296876-12.179687 60.734376-34.324219 82.859376l-33.558593 33.554687c-22.164063 22.167969-51.625 34.371094-82.964844 34.371094zm-222.484375-286.210938c-4.96875 0-9.941406 1.898438-13.738281 5.675781-7.703125 7.703126-7.703125 20.011719-.128907 27.585938l160.066407 160.0625c2.835937 2.835938 3.839843 7.039062 2.601562 10.835938-1.257812 3.820312-4.523437 6.613281-8.492187 7.234374l-106.984375 16.808594c-12.972657 1.878906-22.65625 13.035156-22.65625 26.007813 0 5.886719 4.777343 10.664062 10.664062 10.664062h201.152344c25.644531 0 49.75-9.984375 67.882813-28.117187l33.558593-33.554688c18.113281-18.113281 28.074219-42.175781 28.074219-67.777344 0-23.914062-8.875-46.828124-24.9375-64.511718l-79.875-87.785156c-7.230469-7.171876-19.539062-7.210938-27.113281.359374-7.699219 7.703126-7.699219 20.011719-.128907 27.585938l.917969.917969c4.160157 4.160156 4.160157 10.921875 0 15.082031-4.074219 4.09375-10.6875 4.160156-14.867187.210938 0 0 0-.039063-.023438-.019532h-.019531s-.023437 0-.023437-.019531c0 0 0 0-.019532-.023437h-.023437s0 0-.019531-.042969l-112-112c-7.550782-7.550781-19.90625-7.550781-27.457032 0-7.765625 7.59375-7.765625 19.925781-.191406 27.476562l112 112c2.070312 2.09375 3.113281 4.824219 3.113281 7.554688s-1.042969 5.460937-3.113281 7.550781c-4.160156 4.160156-10.921875 4.160156-15.082031 0l-128-128c-7.550781-7.550781-19.90625-7.550781-27.457031 0-7.699219 7.679688-7.699219 20.011719-.128907 27.5625l128 128c2.070313 2.089844 3.117188 4.820312 3.117188 7.550781s-1.046875 5.460938-3.117188 7.554688c-4.160156 4.160156-10.921875 4.160156-15.082031 0l-106.730469-106.730469c-3.796875-3.800781-8.769531-5.699219-13.738281-5.699219zm0 0"/><path d="m96 277.5c-52.929688 0-96-43.070312-96-96 0-21.78125 7.617188-42.964844 21.566406-60.136719-.148437-1.261719-.234375-2.539062-.234375-3.863281 0-52.929688 43.074219-96 96-96 1.324219 0 2.605469.085938 3.863281.234375 17.171876-13.953125 38.355469-21.566406 60.136719-21.566406 52.929688 0 96 43.070312 96 96 0 5.886719-4.777343 10.664062-10.664062 10.664062-5.890625 0-10.667969-4.777343-10.667969-10.664062 0-41.175781-33.492188-74.667969-74.667969-74.667969-18.152343 0-35.773437 6.871094-49.664062 19.328125-2.175781 1.984375-5.117188 3.050781-8.042969 2.6875l-3.199219-.363281c-1.023437-.148438-2.046875-.320313-3.09375-.320313-41.171875 0-74.664062 33.496094-74.664062 74.667969 0 1.046875.167969 2.070312.320312 3.09375l.382813 3.222656c.234375 2.921875-.726563 5.84375-2.710938 8.019532-12.457031 13.886718-19.328125 31.507812-19.328125 49.664062 0 41.171875 33.496094 74.667969 74.667969 74.667969 5.886719 0 10.667969 4.777343 10.667969 10.664062 0 5.890625-4.78125 10.667969-10.667969 10.667969zm0 0"/></svg>