<svg height="512pt" viewBox="0 0 512 512" width="512pt" xmlns="http://www.w3.org/2000/svg"><path d="m160 501.332031h201.152344c28.289062 0 55.421875-11.242187 75.433594-31.253906l33.558593-33.554687c19.988281-19.988282 31.210938-47.082032 31.210938-75.328126 0-26.519531-9.898438-52.074218-27.734375-71.679687l-159.871094-167.789063c-11.753906-11.753906-30.785156-11.753906-42.539062 0l-.128907.128907c-11.753906 11.753906-11.753906 30.804687 0 42.539062l80.917969 80.9375-112-112c-11.753906-11.753906-30.785156-11.753906-42.539062 0l-.128907.128907c-11.753906 11.753906-11.753906 30.785156 0 42.539062l112 112-128-128c-11.753906-11.753906-30.78125-11.753906-42.539062 0l-.125.128906c-11.757813 11.753906-11.757813 30.78125 0 42.539063l128 128-106.730469-106.730469c-11.757812-11.757812-30.785156-11.757812-42.539062 0l-.128907.125c-11.753906 11.757812-11.753906 30.785156 0 42.539062l160.0625 160.066407-106.984375 16.808593c-18.175781 2.601563-31.679687 18.15625-31.679687 36.523438 0 11.777344 9.554687 21.332031 21.332031 21.332031zm0 0" fill="#ffcc80"/><path d="m65.34375 339.988281c-2.730469 0-5.460938-1.042969-7.550781-3.113281-37.269531-37.289062-57.792969-86.828125-57.792969-139.542969 0-52.714843 20.523438-102.25 57.792969-139.539062 37.289062-37.269531 86.824219-57.792969 139.539062-57.792969 52.714844 0 102.253907 20.523438 139.542969 57.792969 4.160156 4.160156 4.160156 10.921875 0 15.082031s-10.921875 4.160156-15.082031 0c-33.257813-33.238281-77.441407-51.542969-124.460938-51.542969-47.015625 0-91.199219 18.304688-124.4375 51.5625-33.257812 33.238281-51.5625 77.421875-51.5625 124.4375 0 47.019531 18.304688 91.203125 51.5625 124.4375 4.160157 4.160157 4.160157 10.921875 0 15.082031-2.089843 2.09375-4.820312 3.136719-7.550781 3.136719zm0 0"/><path d="m74.667969 341.332031h-64c-5.890625 0-10.667969-4.777343-10.667969-10.664062 0-5.890625 4.777344-10.667969 10.667969-10.667969h53.332031v-53.332031c0-5.890625 4.777344-10.667969 10.667969-10.667969 5.886719 0 10.664062 4.777344 10.664062 10.667969v64c0 5.886719-4.777343 10.664062-10.664062 10.664062zm0 0"/><path d="m361.152344 512h-201.152344c-17.644531 0-32-14.355469-32-32 0-23.53125 17.558594-43.753906 40.832031-47.082031l86.144531-13.527344-145.238281-145.234375c-15.894531-15.894531-15.894531-41.75 0-57.621094 5.121094-5.144531 11.265625-8.621094 17.769531-10.476562-12.160156-15.957032-10.941406-38.890625 3.628907-53.460938 12.992187-13.011718 32.488281-15.46875 47.871093-7.402344 1.683594-7.0625 5.289063-13.78125 10.773438-19.285156 16.019531-16.023437 41.878906-16 57.75-.128906l5.738281 5.71875c1.898438-6.421875 5.375-12.3125 10.261719-17.195312 16-16.023438 41.855469-16 57.75-.128907l160.042969 167.980469c19.839843 21.824219 30.675781 49.832031 30.675781 79.058594 0 31.296875-12.179688 60.738281-34.324219 82.859375l-33.558593 33.558593c-22.164063 22.164063-51.625 34.367188-82.964844 34.367188zm-222.484375-286.207031c-4.972657 0-9.941407 1.898437-13.738281 5.671875-7.703126 7.703125-7.703126 20.011718-.128907 27.585937l160.0625 160.0625c2.839844 2.839844 3.839844 7.042969 2.601563 10.839844-1.257813 3.816406-4.519532 6.613281-8.488282 7.230469l-106.988281 16.8125c-12.96875 1.875-22.65625 13.035156-22.65625 26.003906 0 5.886719 4.78125 10.667969 10.667969 10.667969h201.152344c25.640625 0 49.75-9.984375 67.882812-28.117188l33.558594-33.558593c18.109375-18.113282 28.074219-42.175782 28.074219-67.777344 0-23.914063-8.875-46.824219-24.941407-64.511719l-159.699218-167.59375c-7.402344-7.402344-19.710938-7.402344-27.285156.191406-7.703126 7.703125-7.703126 20.011719-.128907 27.585938l80.917969 80.914062c2.089844 2.070313 3.136719 4.800781 3.136719 7.53125s-1.046875 5.460938-3.117188 7.554688c-4.160156 4.160156-10.921875 4.160156-15.082031 0l-112-112c-7.550781-7.554688-19.902344-7.554688-27.457031 0-7.699219 7.679687-7.699219 20.007812-.125 27.5625l112 112c2.066406 2.089843 3.113281 4.820312 3.113281 7.550781s-1.046875 5.460938-3.113281 7.550781c-4.160157 4.160157-10.925781 4.160157-15.085938 0l-128-128c-7.550781-7.550781-19.902343-7.550781-27.453125 0-7.703125 7.679688-7.703125 20.011719-.128906 27.5625l128 128c2.070312 2.09375 3.113281 4.824219 3.113281 7.554688s-1.042969 5.460937-3.113281 7.550781c-4.160156 4.160156-10.921875 4.160156-15.082031 0l-106.730469-106.730469c-3.796875-3.796875-8.769531-5.695312-13.738281-5.695312zm0 0"/></svg>