<svg height="469.33333pt" viewBox="0 0 469.33333 469.33333" width="469.33333pt" xmlns="http://www.w3.org/2000/svg"><path d="m117.332031 458.667969h201.152344c28.289063 0 55.425781-11.242188 75.4375-31.253907l33.554687-33.558593c19.988282-19.988281 31.210938-47.082031 31.210938-75.328125 0-26.515625-9.898438-52.074219-27.734375-71.679688l-159.871094-167.785156c-11.753906-11.753906-30.785156-11.753906-42.539062 0l-.128907.125c-11.753906 11.757812-11.753906 30.808594 0 42.539062l80.917969 80.941407-112-112c-11.753906-11.757813-30.78125-11.757813-42.539062 0l-.125.125c-11.757813 11.757812-11.757813 30.785156 0 42.539062l112 112-128-128c-11.757813-11.753906-30.785157-11.753906-42.539063 0l-.128906.128907c-11.753906 11.753906-11.753906 30.785156 0 42.539062l128 128-106.730469-106.730469c-11.753906-11.753906-30.785156-11.753906-42.539062 0l-.128907.128907c-11.753906 11.753906-11.753906 30.78125 0 42.539062l160.066407 160.0625-106.988281 16.8125c-18.175782 2.601562-31.679688 18.152344-31.679688 36.519531 0 11.777344 9.558594 21.335938 21.332031 21.335938zm0 0" fill="#ffcc80"/><path d="m318.484375 469.332031h-201.152344c-17.640625 0-32-14.355469-32-32 0-23.53125 17.558594-43.753906 40.832031-47.082031l86.144532-13.523438-145.238282-145.238281c-15.890624-15.894531-15.890624-41.75 0-57.621093 5.121094-5.140626 11.265626-8.621094 17.773438-10.476563-12.160156-15.957031-10.945312-38.890625 3.625-53.460937 13.015625-12.992188 32.46875-15.445313 47.871094-7.402344 1.6875-7.0625 5.292968-13.78125 10.773437-19.285156 16.023438-16 41.878907-16 57.75-.128907l5.738281 5.71875c1.898438-6.421875 5.378907-12.308593 10.261719-17.195312 16.023438-16.019531 41.878907-16 57.75-.128907l160.042969 167.980469c19.839844 21.824219 30.675781 49.835938 30.675781 79.0625 0 31.292969-12.179687 60.714844-34.324219 82.855469l-33.558593 33.558594c-22.164063 22.164062-51.625 34.367187-82.964844 34.367187zm-222.484375-286.207031c-4.96875 0-9.941406 1.898438-13.738281 5.675781-7.703125 7.699219-7.703125 20.011719-.128907 27.582031l160.066407 160.066407c2.835937 2.835937 3.839843 7.039062 2.601562 10.835937-1.257812 3.820313-4.523437 6.613282-8.492187 7.230469l-106.984375 16.8125c-12.972657 1.878906-22.65625 13.035156-22.65625 26.003906 0 5.890625 4.777343 10.667969 10.664062 10.667969h201.152344c25.644531 0 49.75-9.984375 67.882813-28.117188l33.558593-33.558593c18.113281-18.109375 28.074219-42.195313 28.074219-67.773438 0-23.917969-8.875-46.828125-24.9375-64.511719l-159.703125-167.597656c-7.421875-7.402344-19.691406-7.402344-27.285156.191406-7.699219 7.703126-7.699219 20.011719-.128907 27.585938l80.917969 80.917969c2.089844 2.070312 3.136719 4.800781 3.136719 7.53125s-1.046875 5.460937-3.113281 7.550781c-4.160157 4.160156-10.925781 4.160156-15.085938 0l-112-112c-7.550781-7.550781-19.902343-7.550781-27.453125 0-7.703125 7.679688-7.703125 20.011719-.128906 27.5625l112 112c2.070312 2.089844 3.113281 4.820312 3.113281 7.550781s-1.042969 5.460938-3.113281 7.554688c-4.160156 4.160156-10.921875 4.160156-15.082031 0l-128-128c-7.550781-7.554688-19.90625-7.554688-27.457031 0-7.699219 7.679687-7.699219 20.007812-.128907 27.5625l128 128c2.070313 2.089843 3.117188 4.820312 3.117188 7.550781s-1.046875 5.460938-3.117188 7.550781c-4.160156 4.160157-10.921875 4.160157-15.082031 0l-106.730469-106.730469c-3.796875-3.796874-8.769531-5.695312-13.738281-5.695312zm0 0"/><path d="m96 298.667969c-52.929688 0-96-43.074219-96-96 0-21.78125 7.617188-42.964844 21.566406-60.140625-.148437-1.257813-.234375-2.539063-.234375-3.859375 0-52.929688 43.074219-96 96-96 1.324219 0 2.605469.085937 3.863281.234375 17.171876-13.953125 38.355469-21.570313 60.136719-21.570313 1.324219 0 2.605469.085938 3.863281.234375 17.171876-13.949218 38.355469-21.566406 60.136719-21.566406 52.929688 0 96 43.070312 96 96 0 5.886719-4.777343 10.667969-10.664062 10.667969-5.890625 0-10.667969-4.78125-10.667969-10.667969 0-41.171875-33.492188-74.667969-74.667969-74.667969-18.152343 0-35.773437 6.871094-49.664062 19.328125-2.175781 1.984375-5.035157 3.03125-8.042969 2.6875l-3.199219-.359375c-1.023437-.152343-2.046875-.320312-3.09375-.320312-18.152343 0-35.773437 6.867187-49.664062 19.328125-2.175781 1.960937-5.011719 2.984375-8.042969 2.6875l-3.199219-.363282c-1.023437-.148437-2.046875-.320312-3.09375-.320312-41.171875 0-74.664062 33.492188-74.664062 74.667969 0 1.042969.167969 2.066406.320312 3.09375l.382813 3.21875c.234375 2.921875-.726563 5.847656-2.710938 8.023437-12.457031 13.886719-19.328125 31.507813-19.328125 49.664063 0 41.171875 33.496094 74.664062 74.667969 74.664062 5.886719 0 10.667969 4.78125 10.667969 10.667969s-4.78125 10.667969-10.667969 10.667969zm0 0"/></svg>