<svg height="512pt" viewBox="-75 0 512 512.00533" width="512pt" xmlns="http://www.w3.org/2000/svg"><path d="m286.726562 343.683594-86.398437 94.296875c-12.160156 13.226562-29.226563 20.691406-47.148437 20.691406h-35.839844c-47.144532 0-85.332032-38.1875-85.332032-85.332031v-85.335938c0-11.730468 9.601563-21.332031 21.332032-21.332031 3.839844 0 7.46875 1.066406 10.667968 2.988281 6.398438 3.625 10.667969 10.453125 10.667969 18.34375v-21.332031c0-11.734375 9.597657-21.332031 21.332031-21.332031 3.839844 0 7.46875 1.066406 10.667969 2.984375 6.398438 3.628906 10.664063 10.453125 10.664063 18.347656v-21.332031c0-11.734375 9.601562-21.335938 21.335937-21.335938 3.839844 0 7.464844 1.066406 10.664063 2.988282 6.402344 3.625 10.667968 10.453124 10.667968 18.347656v-64c0-11.734375 9.601563-21.335938 21.332032-21.335938 11.734375 0 21.335937 9.601563 21.335937 21.335938v149.332031l34.34375-22.828125c16.640625-11.089844 39.042969-7.25 50.988281 8.75 6.1875 8.105469 5.546876 19.625-1.28125 27.089844zm0 0" fill="#ffcc80"/><path d="m202.675781 448.003906h-149.335937c-5.886719 0-10.664063 4.78125-10.664063 10.667969v42.667969c0 5.886718 4.777344 10.664062 10.664063 10.664062h149.335937c5.886719 0 10.664063-4.777344 10.664063-10.664062v-42.667969c0-5.886719-4.777344-10.667969-10.664063-10.667969zm0 0" fill="#455a64"/><path d="m181.339844 106.671875c-5.886719 0-10.664063-4.777344-10.664063-10.667969v-85.332031c0-5.886719 4.777344-10.66796875 10.664063-10.66796875 5.890625 0 10.667968 4.78124975 10.667968 10.66796875v85.332031c0 5.890625-4.777343 10.667969-10.667968 10.667969zm0 0"/><path d="m224.007812 64.003906c-2.730468 0-5.460937-1.042968-7.550781-3.113281l-35.117187-35.136719-35.113282 35.117188c-4.160156 4.160156-10.921874 4.160156-15.082031 0-4.160156-4.160156-4.160156-10.925782 0-15.085938l42.667969-42.664062c4.15625-4.160156 10.921875-4.160156 15.082031 0l42.664063 42.664062c4.160156 4.160156 4.160156 10.925782 0 15.085938-2.089844 2.089844-4.820313 3.132812-7.550782 3.132812zm0 0"/><path d="m352.007812 192.003906h-85.332031c-5.890625 0-10.667969-4.777344-10.667969-10.664062 0-5.890625 4.777344-10.667969 10.667969-10.667969h85.332031c5.886719 0 10.667969 4.777344 10.667969 10.667969 0 5.886718-4.78125 10.664062-10.667969 10.664062zm0 0"/><path d="m309.339844 234.671875c-2.730469 0-5.460938-1.046875-7.550782-3.113281-4.160156-4.160156-4.160156-10.925782 0-15.082032l35.136719-35.136718-35.113281-35.117188c-4.160156-4.160156-4.160156-10.921875 0-15.082031 4.15625-4.160156 10.921875-4.160156 15.082031 0l42.664063 42.667969c4.160156 4.160156 4.160156 10.921875 0 15.082031l-42.664063 42.667969c-2.09375 2.066406-4.824219 3.113281-7.554687 3.113281zm0 0"/><path d="m96.007812 192.003906h-85.332031c-5.890625 0-10.6679685-4.777344-10.6679685-10.664062 0-5.890625 4.7773435-10.667969 10.6679685-10.667969h85.332031c5.886719 0 10.667969 4.777344 10.667969 10.667969 0 5.886718-4.78125 10.664062-10.667969 10.664062zm0 0"/><path d="m53.339844 234.671875c-2.730469 0-5.460938-1.046875-7.550782-3.113281l-42.667968-42.667969c-4.160156-4.160156-4.160156-10.921875 0-15.082031l42.667968-42.667969c4.160157-4.160156 10.921876-4.160156 15.082032 0s4.160156 10.921875 0 15.082031l-35.113282 35.117188 35.113282 35.113281c4.160156 4.160156 4.160156 10.921875 0 15.082031-2.070313 2.089844-4.800782 3.136719-7.53125 3.136719zm0 0"/><path d="m153.203125 469.339844h-35.863281c-52.925782 0-96-43.074219-96-96v-85.335938c0-17.640625 14.359375-32 32-32 4.160156 0 8.152344.8125 11.796875 2.242188 3.714843-13.570313 16.152343-23.574219 30.871093-23.574219 4.160157 0 8.148438.8125 11.796876 2.238281 3.710937-13.566406 16.148437-23.570312 30.871093-23.570312 3.730469 0 7.335938.640625 10.664063 1.8125v-33.8125c0-17.644532 14.359375-32 32-32 17.644531 0 32 14.355468 32 32v129.386718l17.773437-11.839843c21.351563-14.230469 50.089844-9.261719 65.472657 11.199219 9.234374 12.328124 8.402343 29.480468-2.027344 40.832031l-86.359375 94.207031c-14.078125 15.382812-34.152344 24.214844-54.996094 24.214844zm-99.863281-192c-5.863282 0-10.664063 4.777344-10.664063 10.664062v85.335938c0 41.171875 33.492188 74.664062 74.664063 74.664062h35.863281c14.890625 0 29.226563-6.292968 39.316406-17.300781l86.359375-94.207031c3.453125-3.777344 3.730469-9.492188.636719-13.609375-8.53125-11.457031-24.617187-14.230469-36.5625-6.273438l-34.347656 22.910157c-3.285157 2.199218-7.507813 2.390624-10.964844.535156-3.457031-1.855469-5.632813-5.441406-5.632813-9.386719v-149.332031c0-5.890625-4.800781-10.667969-10.667968-10.667969-5.863282 0-10.664063 4.777344-10.664063 10.667969v117.332031c0 5.886719-4.78125 10.667969-10.667969 10.667969-5.886718 0-10.667968-4.78125-10.667968-10.667969v-53.332031c0-5.890625-4.796875-10.667969-10.664063-10.667969-5.867187 0-10.667969 4.777344-10.667969 10.667969v53.332031c0 5.886719-4.777343 10.667969-10.667968 10.667969-5.886719 0-10.664063-4.78125-10.664063-10.667969v-32c0-5.886719-4.800781-10.667969-10.667969-10.667969-5.867187 0-10.667968 4.78125-10.667968 10.667969v32c0 5.886719-4.777344 10.667969-10.664063 10.667969-5.890625 0-10.667969-4.78125-10.667969-10.667969v-10.667969c0-5.886718-4.800781-10.664062-10.667968-10.664062zm0 0"/><path d="m202.675781 512.003906c-5.890625 0-10.667969-4.777344-10.667969-10.664062v-32h-128v32c0 5.886718-4.777343 10.664062-10.667968 10.664062-5.886719 0-10.664063-4.777344-10.664063-10.664062v-42.667969c0-5.886719 4.777344-10.667969 10.664063-10.667969h149.335937c5.886719 0 10.664063 4.78125 10.664063 10.667969v42.667969c0 5.886718-4.777344 10.664062-10.664063 10.664062zm0 0"/></svg>