<svg height="512pt" viewBox="-53 0 511 512" width="512pt" xmlns="http://www.w3.org/2000/svg"><path d="m262.6875 266.667969-20.265625 20.480469c6.398437-6.402344 14.929687-9.386719 23.464844-8.535157 7.039062.425781 13.652343 3.199219 18.988281 8.535157h.210938c11.519531 11.519531 11.734374 30.292968.640624 42.023437l-21.972656 21.976563c6.398438-6.402344 14.933594-9.386719 23.464844-8.535157 7.042969.425781 13.65625 3.199219 18.988281 8.535157h.214844c11.730469 11.730468 11.730469 30.929687 0 42.664062l-87.894531 79.789062c-19.628906 17.917969-45.226563 27.730469-71.679688 27.730469-28.160156 0-55.253906-11.304687-75.308594-31.144531l-33.492187-33.707031c-20.054687-19.839844-31.359375-46.933594-31.359375-75.308594v-201.171875c0-11.734375 9.597656-21.332031 21.332031-21.332031 18.347657 0 33.921875 13.4375 36.695313 31.570312l16.636718 107.09375 160.214844-160c11.734375-11.730469 30.71875-11.730469 42.453125 0h.214844c11.09375 11.09375 11.730469 29.015625 1.707031 40.746094l-65.921875 65.921875c6.402344-6.398438 15.148438-9.386719 23.679688-8.535156 7.039062.429687 13.652343 3.203125 18.988281 8.535156v.214844c11.734375 11.730468 11.734375 30.71875 0 42.453125zm0 0" fill="#ffcc80"/><path d="m395.167969 85.332031c-5.890625 0-10.667969-4.777343-10.667969-10.664062v-53.335938h-53.332031c-5.890625 0-10.667969-4.777343-10.667969-10.664062 0-5.890625 4.777344-10.667969 10.667969-10.667969h64c5.886719 0 10.664062 4.777344 10.664062 10.667969v64c0 5.886719-4.777343 10.664062-10.664062 10.664062zm0 0"/><path d="m395.167969 256h-64c-5.890625 0-10.667969-4.777344-10.667969-10.667969 0-5.886719 4.777344-10.664062 10.667969-10.664062h53.332031v-53.335938c0-5.886719 4.777344-10.664062 10.667969-10.664062 5.886719 0 10.664062 4.777343 10.664062 10.664062v64c0 5.890625-4.777343 10.667969-10.664062 10.667969zm0 0"/><path d="m160.5 85.332031c-5.886719 0-10.667969-4.777343-10.667969-10.664062v-64c0-5.890625 4.78125-10.667969 10.667969-10.667969h64c5.886719 0 10.667969 4.777344 10.667969 10.667969 0 5.886719-4.78125 10.664062-10.667969 10.664062h-53.332031v53.335938c0 5.886719-4.78125 10.664062-10.667969 10.664062zm0 0"/><path d="m331.167969 85.332031c-2.730469 0-5.460938-1.042969-7.554688-3.113281-4.160156-4.160156-4.160156-10.921875 0-15.082031l64-64c4.160157-4.160157 10.925781-4.160157 15.085938 0 4.15625 4.160156 4.15625 10.921875 0 15.082031l-64 64c-2.070313 2.070312-4.800781 3.113281-7.53125 3.113281zm0 0"/><path d="m213.832031 74.667969c-2.730469 0-5.460937-1.046875-7.550781-3.117188l-53.332031-53.332031c-4.160157-4.160156-4.160157-10.921875 0-15.082031 4.160156-4.160157 10.921875-4.160157 15.082031 0l53.332031 53.332031c4.160157 4.160156 4.160157 10.921875 0 15.082031-2.070312 2.070313-4.800781 3.117188-7.53125 3.117188zm0 0"/><path d="m395.167969 256c-2.730469 0-5.460938-1.046875-7.554688-3.113281l-53.332031-53.335938c-4.160156-4.160156-4.160156-10.921875 0-15.082031s10.921875-4.160156 15.082031 0l53.335938 53.332031c4.15625 4.160157 4.15625 10.925781 0 15.085938-2.070313 2.066406-4.800781 3.113281-7.53125 3.113281zm0 0"/><path d="m151.285156 512c-31.320312 0-60.757812-12.179688-82.882812-34.324219l-33.535156-33.558593c-22.164063-22.144532-34.367188-51.605469-34.367188-82.964844v-201.152344c0-17.644531 14.355469-32 32-32 23.550781 0 43.777344 17.558594 47.082031 40.851562l13.546875 86.125 145.238282-145.238281c15.871093-15.894531 41.75-15.894531 57.621093 0 16.019531 16 16.019531 41.855469.128907 57.75l-37.78125 37.78125c6.441406 1.898438 12.328124 5.375 17.195312 10.261719 14.675781 14.675781 15.890625 37.652344 3.753906 53.609375 6.589844 1.878906 12.628906 5.417969 17.578125 10.390625 14.675781 14.675781 15.894531 37.652344 3.753907 53.609375 6.59375 1.878906 12.628906 5.417969 17.578124 10.390625 16 16 16 41.855469.148438 57.726562l-88.148438 80.214844c-21.652343 19.691406-49.664062 30.527344-78.910156 30.527344zm-118.785156-362.667969c-5.867188 0-10.667969 4.78125-10.667969 10.667969v201.152344c0 25.664062 9.984375 49.769531 28.117188 67.882812l33.539062 33.558594c18.109375 18.109375 42.195313 28.074219 67.796875 28.074219 23.914063 0 46.824219-8.875 64.488282-24.941407l87.789062-79.871093c7.210938-7.210938 7.210938-19.539063-.363281-27.113281-7.617188-7.554688-20.246094-7.46875-27.585938-.128907l-.9375.9375-15.082031-15.082031 22.273438-22.25c7.550781-7.550781 7.550781-19.882812 0-27.476562-7.617188-7.554688-20.246094-7.46875-27.585938-.128907l-22.273438 22.273438c-4.160156 4.160156-10.921874 4.160156-15.082031 0-4.160156-4.160157-4.160156-10.925781 0-15.085938l43.605469-43.582031c7.554688-7.550781 7.554688-19.882812 0-27.476562-7.617188-7.554688-20.246094-7.46875-27.582031-.128907l-43.605469 43.605469c-4.160156 4.160156-10.921875 4.160156-15.082031 0-4.160157-4.160156-4.160157-10.921875 0-15.082031l106.730469-106.730469c7.550781-7.574219 7.550781-19.882812 0-27.457031-7.703126-7.722657-20.035157-7.703125-27.585938-.128907l-160.0625 160.066407c-2.839844 2.835937-7.042969 3.859375-10.859375 2.601562-3.820313-1.257812-6.613281-4.523437-7.230469-8.492187l-16.769531-107.007813c-1.835937-12.96875-13.015625-22.65625-25.984375-22.65625zm0 0"/><path d="m302.175781 227.007812c-4.054687 0-7.9375-2.324218-9.730469-6.273437-2.410156-5.375-.042968-11.6875 5.335938-14.121094 26.75-12.097656 44.050781-38.761719 44.050781-67.945312 0-41.175781-33.492187-74.667969-74.664062-74.667969-29.183594 0-55.851563 17.300781-67.949219 44.054688-2.429688 5.375-8.722656 7.765624-14.121094 5.332031-5.355468-2.410157-7.746094-8.746094-5.332031-14.101563 15.550781-34.390625 49.832031-56.617187 87.402344-56.617187 52.925781 0 96 43.070312 96 96 0 37.546875-22.230469 71.847656-56.597657 87.378906-1.453124.640625-2.921874.960937-4.394531.960937zm0 0"/></svg>