<svg height="511pt" viewBox="0 0 511.776 511" width="511pt" xmlns="http://www.w3.org/2000/svg"><path d="m394.542969 268.019531c0 58.242188-47.359375 105.601563-105.597657 105.601563h-129.066406c0-23.46875 19.199219-42.667969 42.664063-42.667969h42.667969l-99.839844-99.839844c-4.265625-4.265625-6.613282-10.238281-6.613282-16s2.347657-11.519531 6.613282-16c8.746094-8.535156 22.613281-8.746093 31.359375-.640625l-10.667969-10.664062c-3.839844-4.269532-5.972656-9.816406-5.972656-15.363282 0-1.707031.214844-3.410156.640625-5.117187 5.121093-10.027344 5.546875-10.453125 5.972656-10.882813 8.960937-8.746093 23.253906-8.746093 32 0l10.667969 10.667969c-4.265625-4.265625-6.613282-10.238281-6.613282-16 0-1.707031.210938-3.414062.640626-5.121093 5.117187-10.027344 5.546874-10.453126 5.972656-10.878907 8.960937-8.746093 23.253906-8.746093 32 0l21.332031 21.332031c-4.265625-4.265624-6.613281-10.238281-6.613281-16 0-1.707031.214844-3.410156.640625-5.117187 5.121093-10.027344 5.546875-10.453125 5.972656-10.882813 8.960937-8.746093 23.253906-8.746093 32 0l68.90625 68.90625c19.839844 19.839844 30.933594 46.722657 30.933594 74.667969zm0 0" fill="#ffcc80"/><path d="m288.964844 384.285156h-129.085938c-5.890625 0-10.667968-4.777344-10.667968-10.664062 0-29.398438 23.914062-53.335938 53.332031-53.335938h16.917969l-81.558594-81.554687c-12.96875-12.992188-12.96875-34.113281 0-47.082031 3.820312-3.839844 8.429687-6.613282 13.441406-8.195313-4.054688-11.6875-1.40625-25.171875 7.894531-34.472656 8.980469-8.960938 22.890625-11.945313 34.496094-7.914063 1.554687-4.90625 4.265625-9.535156 8.167969-13.417968 12.394531-12.375 33.816406-12.609376 46.445312-.621094 1.621094-3.648438 3.902344-7.0625 6.890625-10.046875 12.585938-12.585938 34.496094-12.585938 47.082031 0l68.863282 68.84375c21.953125 21.949219 34.027344 51.15625 34.027344 82.195312 0 64.105469-52.140626 116.265625-116.246094 116.265625zm-116.585938-21.332031h116.585938c52.332031 0 94.914062-42.582031 94.914062-94.933594 0-25.34375-9.878906-49.195312-27.800781-67.113281l-68.839844-68.84375c-4.546875-4.523438-12.375-4.523438-16.917969 0-4.609374 4.609375-4.671874 12.054688-.171874 16.746094l35.949218 35.949218c4.160156 4.15625 4.160156 10.921876 0 15.082032s-10.925781 4.160156-15.085937 0l-35.773438-35.777344c-.109375-.085938-.191406-.191406-.300781-.296875l-21.035156-21.035156c-4.542969-4.523438-12.371094-4.523438-16.914063 0-4.632812 4.628906-4.671875 12.136719-.109375 16.808593l57.21875 57.21875c4.160156 4.15625 4.160156 10.921876 0 15.082032s-10.925781 4.160156-15.085937 0l-57.109375-57.109375c-.0625-.066407-.125-.128907-.191406-.191407l-10.472657-10.476562c-4.546875-4.523438-12.375-4.523438-16.917969 0-4.671874 4.671875-4.671874 12.246094 0 16.917969l78.441407 78.421875c4.160156 4.160156 4.160156 10.921875 0 15.082031-4.160157 4.160156-10.921875 4.160156-15.082031 0l-67.777344-67.753906c-4.542969-4.523438-12.371094-4.523438-16.914063 0-4.671875 4.671875-4.671875 12.246093 0 16.917969l99.773438 99.753906c3.050781 3.050781 3.96875 7.636718 2.304687 11.625-1.640625 3.988281-5.546875 6.59375-9.855468 6.59375h-42.667969c-13.910157 0-25.769531 8.917968-30.164063 21.332031zm0 0"/><path d="m255.878906 512.160156c-65.558594 0-131.117187-24.941406-181.015625-74.859375-99.816406-99.820312-99.816406-262.230469 0-362.046875 99.839844-99.820312 262.207031-99.820312 362.046875 0 99.820313 99.816406 99.820313 262.226563 0 362.046875-49.917968 49.917969-115.476562 74.859375-181.03125 74.859375zm0-490.433594c-60.097656 0-120.195312 22.871094-165.933594 68.609376-91.496093 91.496093-91.496093 240.382812 0 331.882812 91.519532 91.496094 240.40625 91.496094 331.882813 0 91.5-91.5 91.5-240.386719 0-331.882812-45.757813-45.71875-105.855469-68.609376-165.949219-68.609376zm0 0"/><path d="m82.394531 440.4375c-2.730469 0-5.460937-1.046875-7.550781-3.117188-4.160156-4.160156-4.160156-10.921874 0-15.082031l346.964844-346.964843c4.160156-4.160157 10.921875-4.160157 15.082031 0 4.160156 4.160156 4.160156 10.921874 0 15.082031l-346.945313 346.945312c-2.089843 2.089844-4.820312 3.136719-7.550781 3.136719zm0 0"/></svg>