<svg height="511pt" viewBox="0 0 511.98933 511" width="511pt" xmlns="http://www.w3.org/2000/svg"><path d="m117.339844 416.480469c0 11.773437 9.554687 21.332031 21.332031 21.332031h201.152344c28.289062 0 55.421875-11.242188 75.433593-31.253906l33.558594-33.558594c19.988282-19.988281 31.210938-47.082031 31.210938-75.328125 0-26.515625-9.898438-52.074219-27.734375-71.679687l-159.871094-167.785157c-11.753906-11.753906-30.785156-11.753906-42.539063 0l-.128906.128907c-11.753906 11.753906-11.753906 30.78125 0 42.539062l80.917969 80.9375-112-112c-11.753906-11.753906-30.785156-11.753906-42.539063 0l-.128906.128906c-11.753906 11.753906-11.753906 30.78125 0 42.539063l112 112-128-128c-11.753906-11.757813-30.78125-11.757813-42.539062 0l-.125.125c-11.753906 11.757812-11.753906 30.785156 0 42.539062l128 128-106.730469-106.730469c-11.757813-11.753906-30.785156-11.753906-42.539063 0l-.128906.128907c-11.753906 11.753906-11.753906 30.785156 0 42.539062l160.0625 160.0625-106.984375 16.8125c-18.175781 2.601563-31.679687 18.152344-31.679687 36.523438zm0 0" fill="#ffcc80"/><path d="m10.671875 512.480469c-2.730469 0-5.460937-1.046875-7.550781-3.117188-4.160156-4.160156-4.160156-10.921875 0-15.082031l490.664062-490.667969c4.160156-4.160156 10.925782-4.160156 15.085938 0 4.160156 4.160157 4.160156 10.925781 0 15.085938l-490.667969 490.664062c-2.070313 2.070313-4.800781 3.117188-7.53125 3.117188zm0 0"/><path d="m338.03125 448.480469h-201.152344c-17.640625 0-32-14.359375-32-32 0-23.53125 17.535156-43.757813 40.832032-47.085938l86.125-13.523437-145.21875-145.238282c-15.890626-15.894531-15.890626-41.75 0-57.621093 5.121093-5.140625 11.265624-8.617188 17.773437-10.472657-12.160156-15.960937-10.945313-38.914062 3.605469-53.484374 12.992187-12.992188 32.488281-15.425782 47.871094-7.402344 1.707031-7.0625 5.3125-13.761719 10.792968-19.265625 16.042969-16.019531 41.878906-15.976563 57.75-.125l5.761719 5.757812c1.855469-6.292969 5.269531-12.246093 10.21875-17.214843 15.636719-15.660157 42.386719-15.53125 57.746094-.128907l160.066406 167.957031c19.839844 21.804688 30.675781 49.8125 30.675781 79.039063 0 31.296875-12.179687 60.738281-34.324218 82.859375l-33.535157 33.558594c-22.207031 22.1875-51.671875 34.390625-82.988281 34.390625zm-222.484375-286.210938c-4.972656 0-9.941406 1.898438-13.738281 5.675781-7.679688 7.703126-7.679688 20.011719-.128906 27.585938l160.0625 160.0625c2.839843 2.835938 3.84375 7.039062 2.605468 10.835938-1.257812 3.820312-4.523437 6.613281-8.492187 7.234374l-107.007813 16.808594c-12.96875 1.855469-22.65625 13.015625-22.65625 25.984375 0 5.886719 4.800782 10.667969 10.667969 10.667969h201.152344c25.621093 0 49.75-9.984375 67.902343-28.117188l33.535157-33.558593c18.113281-18.113281 28.074219-42.195313 28.074219-67.777344 0-23.914063-8.851563-46.804687-24.957032-64.511719l-159.679687-167.59375c-6.957031-6.953125-19.949219-7.144531-27.265625.191406-7.550782 7.554688-7.660156 19.605469-.46875 27.222657l81.300781 81.300781c4.160156 4.160156 4.160156 10.921875 0 15.082031-4.160156 4.160157-10.921875 4.160157-15.082031 0l-80.960938-80.9375c-.171875-.171875-.363281-.339843-.511718-.511719l-30.570313-30.550781c-7.574219-7.550781-19.882813-7.550781-27.457031 0-7.679688 7.703125-7.679688 20.011719-.128906 27.585938l112 112c2.09375 2.089843 3.117187 4.820312 3.117187 7.550781s-1.046875 5.460938-3.117187 7.550781c-4.15625 4.160157-10.921876 4.160157-15.082032 0l-128-128c-7.570312-7.550781-19.882812-7.550781-27.453125 0-7.683593 7.703125-7.683593 20.011719-.128906 27.585938l128 128c2.089844 2.089843 3.113281 4.820312 3.113281 7.550781s-1.042968 5.460938-3.113281 7.550781c-4.160156 4.160157-10.921875 4.160157-15.082031 0l-106.710938-106.773437c-3.796875-3.796875-8.769531-5.695313-13.738281-5.695313zm0 0"/></svg>