<svg height="512pt" viewBox="0 0 512 512" width="512pt" xmlns="http://www.w3.org/2000/svg"><path d="m458.667969 192h-128c-3.117188 0-6.082031 1.34375-8.085938 3.734375l-128 149.332031c-1.6875 1.941406-2.582031 4.394532-2.582031 6.933594v106.667969c0 29.417969 23.9375 53.332031 53.332031 53.332031h213.335938c29.394531 0 53.332031-23.914062 53.332031-53.332031v-213.335938c0-29.417969-23.9375-53.332031-53.332031-53.332031zm0 0" fill="#2196f3"/><path d="m266.667969 376.617188h-43.734375c-23.46875 0-42.667969-19.199219-42.667969-42.664063v-42.667969l-12.585937-12.585937c-4.480469-4.480469-6.613282-10.242188-6.613282-16 0-5.972657 2.132813-11.519531 6.613282-16 8.746093-8.960938 23.039062-8.960938 32 0l-4.054688-4.054688c-4.050781-4.265625-5.972656-9.8125-5.972656-15.359375 0-1.707031.214844-3.414062.640625-5.121094 5.121093-10.027343 5.546875-10.453124 5.972656-10.878906 8.320313-8.320312 21.972656-8.746094 30.722656-1.066406l6.613281 6.398438c-4.269531-4.265626-6.613281-10.238282-6.613281-16 0-1.707032.210938-3.410157.636719-4.90625 4.910156-9.8125 5.335938-10.453126 5.976562-11.09375 8.53125-8.53125 22.613282-8.746094 31.359376-.636719l11.304687 11.304687c-4.265625-4.265625-6.613281-10.238281-6.613281-16l.640625-5.121094c.855469-4.050781 2.988281-7.890624 5.972656-10.878906 8.746094-8.746094 23.253906-8.746094 32 0l33.066406 33.066406c19.839844 19.839844 30.933594 46.71875 30.933594 74.667969 0 58.238281-47.359375 105.597657-105.597656 105.597657zm0 0" fill="#ffcc80"/><path d="m458.667969 512h-213.335938c-29.394531 0-53.332031-23.9375-53.332031-53.332031v-85.335938c0-5.886719 4.777344-10.664062 10.667969-10.664062 5.886719 0 10.664062 4.777343 10.664062 10.664062v85.335938c0 17.640625 14.359375 32 32 32h213.335938c17.640625 0 32-14.359375 32-32v-213.335938c0-17.640625-14.359375-32-32-32h-106.667969c-5.886719 0-10.667969-4.777343-10.667969-10.664062 0-5.890625 4.78125-10.667969 10.667969-10.667969h106.667969c29.394531 0 53.332031 23.9375 53.332031 53.332031v213.335938c0 29.394531-23.9375 53.332031-53.332031 53.332031zm0 0"/><path d="m160 320h-10.667969c-5.886719 0-10.664062-4.777344-10.664062-10.667969 0-5.886719 4.777343-10.664062 10.664062-10.664062h10.667969c5.886719 0 10.667969 4.777343 10.667969 10.664062 0 5.890625-4.78125 10.667969-10.667969 10.667969zm0 0"/><path d="m106.21875 320h-21.566406c-5.890625 0-10.667969-4.777344-10.667969-10.667969 0-5.886719 4.777344-10.664062 10.667969-10.664062h21.566406c5.886719 0 10.667969 4.777343 10.667969 10.664062 0 5.890625-4.78125 10.667969-10.667969 10.667969zm-64.535156-1.621094c-.957032 0-1.941406-.128906-2.921875-.40625-8.640625-2.453125-16.597657-7.101562-22.996094-13.480468-4.179687-4.140626-4.203125-10.902344-.042969-15.085938 4.160156-4.136719 10.902344-4.199219 15.082032-.039062 3.839843 3.816406 8.621093 6.613281 13.78125 8.082031 5.675781 1.601562 8.960937 7.511719 7.339843 13.183593-1.324219 4.695313-5.609375 7.746094-10.242187 7.746094zm-31.015625-50.496094c-5.890625 0-10.667969-4.777343-10.667969-10.667968v-21.566406c0-5.886719 4.777344-10.667969 10.667969-10.667969 5.886719 0 10.664062 4.78125 10.664062 10.667969v21.566406c0 5.890625-4.777343 10.667968-10.664062 10.667968zm0-64.703124c-5.890625 0-10.667969-4.78125-10.667969-10.667969v-21.566407c0-5.890624 4.777344-10.667968 10.667969-10.667968 5.886719 0 10.664062 4.777344 10.664062 10.667968v21.566407c0 5.886719-4.777343 10.667969-10.664062 10.667969zm0-64.683594c-5.890625 0-10.667969-4.777344-10.667969-10.667969v-21.566406c0-5.886719 4.777344-10.667969 10.667969-10.667969 5.886719 0 10.664062 4.78125 10.664062 10.667969v21.566406c0 5.890625-4.777343 10.667969-10.664062 10.667969zm298.664062-21.996094c-5.886719 0-10.664062-4.777344-10.664062-10.664062v-21.570313c0-5.886719 4.777343-10.664063 10.664062-10.664063 5.890625 0 10.667969 4.753907 10.667969 10.664063v21.570313c0 5.886718-4.777344 10.664062-10.667969 10.664062zm-298.664062-42.707031c-5.890625 0-10.667969-4.78125-10.667969-10.667969v-9.792969c0-4.90625.683594-9.789062 2.003906-14.503906 1.601563-5.699219 7.488282-9.027344 13.164063-7.363281 5.675781 1.601562 8.960937 7.488281 7.359375 13.164062-.789063 2.816406-1.195313 5.738282-1.195313 8.703125v9.792969c0 5.886719-4.777343 10.667969-10.664062 10.667969zm296.9375-21.824219c-4.628907 0-8.875-3.03125-10.238281-7.679688-1.496094-5.140624-4.355469-9.878906-8.195313-13.71875-4.179687-4.136718-4.222656-10.902343-.082031-15.082031 4.136718-4.203125 10.898437-4.222656 15.082031-.085937 6.421875 6.359375 11.15625 14.273437 13.671875 22.890625 1.664062 5.652343-1.597656 11.5625-7.25 13.226562-1.003906.320313-2.007812.449219-2.988281.449219zm-266.261719-28.929688c-4.609375 0-8.875-3.007812-10.238281-7.65625-1.644531-5.65625 1.597656-11.585937 7.25-13.25 4.84375-1.40625 9.878906-2.132812 14.976562-2.132812h9.410157c5.886718 0 10.664062 4.777344 10.664062 10.667969 0 5.886719-4.753906 10.664062-10.664062 10.664062h-9.410157c-3.070312 0-6.078125.429688-8.980469 1.28125-1.003906.296875-2.003906.425781-3.007812.425781zm215.488281-1.707031h-21.566406c-5.890625 0-10.667969-4.777343-10.667969-10.664062 0-5.890625 4.777344-10.667969 10.667969-10.667969h21.566406c5.886719 0 10.667969 4.777344 10.667969 10.667969 0 5.886719-4.78125 10.664062-10.667969 10.664062zm-64.703125 0h-21.546875c-5.890625 0-10.667969-4.777343-10.667969-10.664062 0-5.890625 4.757813-10.667969 10.667969-10.667969h21.566407c5.890624 0 10.667968 4.777344 10.667968 10.667969 0 5.886719-4.777344 10.664062-10.6875 10.664062zm-64.683594 0h-21.566406c-5.890625 0-10.667968-4.777343-10.667968-10.664062 0-5.890625 4.777343-10.667969 10.667968-10.667969h21.566406c5.886719 0 10.667969 4.777344 10.667969 10.667969 0 5.886719-4.78125 10.664062-10.667969 10.664062zm0 0"/><path d="m309.332031 170.667969c-5.886719 0-10.664062-4.78125-10.664062-10.667969v-10.667969c0-5.886719 4.777343-10.664062 10.664062-10.664062 5.890625 0 10.667969 4.777343 10.667969 10.664062v10.667969c0 5.886719-4.777344 10.667969-10.667969 10.667969zm0 0"/><path d="m267.734375 384h-43.734375c-29.398438 0-53.332031-23.9375-53.332031-53.332031v-38.253907l-9.558594-9.554687c-6.292969-6.273437-9.75-14.65625-9.75-23.550781 0-8.898438 3.457031-17.261719 9.75-23.554688 5.207031-5.203125 11.839844-8.46875 19.027344-9.449218-.636719-9.28125 2.582031-18.773438 9.664062-25.855469 7.40625-7.402344 18.050781-10.882813 28.203125-9.429688 1.21875-6.316406 4.246094-12.351562 9.132813-17.238281 8.960937-8.960938 22.890625-11.945312 34.496093-7.914062 1.554688-4.90625 4.289063-9.535157 8.167969-13.417969 12.972657-12.972657 34.113281-12.972657 47.085938 0l33.066406 33.066406c21.949219 21.972656 34.046875 51.175781 34.046875 82.21875 0 64.105469-52.160156 116.265625-116.265625 116.265625zm-75.734375-70.25v16.917969c0 17.640625 14.355469 32 32 32h43.734375c52.351563 0 94.933594-42.582031 94.933594-94.933594 0-25.34375-9.878907-49.195313-27.796875-67.117187l-33.070313-33.066407c-4.671875-4.671875-12.242187-4.671875-16.914062 0-2.261719 2.242188-3.519531 5.25-3.519531 8.449219s1.234374 6.207031 3.496093 8.449219c2.089844 2.089843 3.136719 4.820312 3.136719 7.550781s-1.046875 5.460938-3.113281 7.550781c-4.160157 4.160157-10.925781 4.160157-15.085938 0l-10.664062-10.664062c-4.523438-4.523438-12.394531-4.523438-16.917969 0-4.671875 4.671875-4.671875 12.242187 0 16.914062l10.667969 10.667969c2.066406 2.070312 3.113281 4.800781 3.113281 7.53125s-1.046875 5.460938-3.113281 7.550781c-4.160157 4.160157-10.925781 4.160157-15.085938 0l-16-16c-4.519531-4.519531-12.394531-4.519531-16.914062 0-4.671875 4.671875-4.671875 12.246094 0 16.917969l26.664062 26.667969c2.070313 2.070312 3.117188 4.800781 3.117188 7.53125s-1.046875 5.460937-3.117188 7.550781c-4.160156 4.160156-10.921875 4.160156-15.082031 0l-23.359375-23.359375c-4.523437-4.523437-12.394531-4.523437-16.917969 0-2.261718 2.261719-3.5 5.269531-3.5 8.449219 0 3.175781 1.238282 6.207031 3.5 8.445312l55.359375 55.359375c2.070313 2.09375 3.117188 4.824219 3.117188 7.554688s-1.046875 5.460937-3.117188 7.550781c-4.160156 4.160156-10.921875 4.160156-15.082031 0zm0 0"/></svg>