<svg height="490pt" viewBox="-32 0 490 490.66667" width="490pt" xmlns="http://www.w3.org/2000/svg"><path d="m416.339844 256v117.332031c0 58.882813-47.789063 106.667969-106.667969 106.667969h-49.917969c-22.617187 0-44.375-8.960938-60.375-24.960938l-151.894531-151.890624c-8.320313-8.320313-8.320313-21.976563 0-30.296876 15.789063-15.785156 40.746094-17.492187 58.667969-4.050781l54.1875 40.53125v-202.664062c0-17.707031 14.292968-32 32-32 17.707031 0 32 14.292969 32 32v106.664062c0-9.386719 4.050781-17.917969 10.664062-23.679687 5.546875-5.117188 13.015625-8.320313 21.335938-8.320313 17.492187 0 31.570312 13.867188 32 31.359375v21.976563c0-9.386719 4.050781-17.921875 10.664062-23.679688 5.546875-5.121093 13.015625-8.320312 21.335938-8.320312 17.492187 0 31.570312 13.867187 32 31.359375v21.972656c0-9.386719 4.050781-17.921875 10.664062-23.679688 5.546875-5.121093 13.015625-8.320312 21.335938-8.320312 17.707031 0 32 14.292969 32 32zm0 0" fill="#ffcc80"/><path d="m309.671875 490.667969h-49.984375c-25.640625 0-49.75-9.984375-67.882812-28.117188l-151.933594-151.9375c-12.480469-12.480469-12.480469-32.769531 0-45.246093 19.453125-19.457032 50.730468-21.65625 72.722656-5.164063l37.078125 27.796875v-181.332031c0-23.53125 19.136719-42.667969 42.667969-42.667969s42.664062 19.136719 42.664062 42.667969v69.738281c6.273438-3.648438 13.570313-5.738281 21.335938-5.738281 18.582031 0 34.429687 11.945312 40.277344 28.542969 6.78125-4.542969 14.953124-7.210938 23.722656-7.210938 18.582031 0 34.429687 11.945312 40.277344 28.542969 6.78125-4.542969 14.953124-7.210938 23.722656-7.210938 23.53125 0 42.664062 19.136719 42.664062 42.667969v117.332031c0 64.707031-52.628906 117.335938-117.332031 117.335938zm-230.398437-220.203125c-8.875 0-17.6875 3.371094-24.300782 9.984375-4.160156 4.160156-4.160156 10.921875 0 15.082031l151.9375 151.933594c14.101563 14.101562 32.851563 21.867187 52.800782 21.867187h49.960937c52.929687 0 96-43.070312 96-96v-117.332031c0-11.753906-9.578125-21.332031-21.332031-21.332031s-21.335938 9.578125-21.335938 21.332031v10.667969c0 5.886719-4.777344 10.664062-10.664062 10.664062-5.890625 0-10.667969-4.777343-10.667969-10.664062v-32c0-11.757813-9.578125-21.335938-21.332031-21.335938s-21.335938 9.578125-21.335938 21.335938v32c0 5.886719-4.777344 10.664062-10.664062 10.664062-5.890625 0-10.667969-4.777343-10.667969-10.664062v-53.335938c0-11.753906-9.578125-21.332031-21.332031-21.332031s-21.335938 9.578125-21.335938 21.332031v53.335938c0 5.886719-4.777344 10.664062-10.664062 10.664062-5.890625 0-10.667969-4.777343-10.667969-10.664062v-160c0-11.757813-9.578125-21.335938-21.332031-21.335938s-21.335938 9.578125-21.335938 21.335938v202.664062c0 4.035157-2.28125 7.722657-5.886718 9.539063-3.625 1.8125-7.957032 1.425781-11.179688-1.003906l-54.121094-40.597657c-6.101562-4.566406-13.332031-6.804687-20.542968-6.804687zm0 0"/><path d="m127.378906 153.429688c-3.734375 0-7.382812-1.964844-9.34375-5.484376-7.316406-13.117187-11.03125-27.027343-11.03125-41.277343 0-47.0625 38.273438-85.335938 85.335938-85.335938 47.058594 0 85.332031 38.273438 85.332031 85.335938 0 7.015625-1.046875 14.121093-3.285156 22.355469-1.535157 5.71875-7.464844 9.023437-13.097657 7.488281-5.695312-1.558594-9.046874-7.421875-7.488281-13.097657 1.726563-6.359374 2.539063-11.671874 2.539063-16.746093 0-35.285157-28.714844-64-64-64s-64 28.714843-64 64c0 10.578125 2.792968 20.96875 8.339844 30.910156 2.859374 5.140625 1.003906 11.628906-4.136719 14.507813-1.621094.917968-3.414063 1.34375-5.164063 1.34375zm0 0"/><path d="m53.671875 192c-5.886719 0-10.667969-4.777344-10.667969-10.667969v-170.664062c0-5.890625 4.78125-10.667969 10.667969-10.667969s10.667969 4.777344 10.667969 10.667969v170.664062c0 5.890625-4.78125 10.667969-10.667969 10.667969zm0 0"/><path d="m53.671875 192c-2.730469 0-5.460937-1.046875-7.550781-3.113281l-42.667969-42.667969c-4.160156-4.160156-4.160156-10.921875 0-15.082031 4.160156-4.160157 10.921875-4.160157 15.082031 0l35.136719 35.113281 35.113281-35.113281c4.160156-4.160157 10.925782-4.160157 15.085938 0 4.160156 4.160156 4.160156 10.921875 0 15.082031l-42.667969 42.667969c-2.070313 2.066406-4.800781 3.113281-7.53125 3.113281zm0 0"/></svg>