<svg height="512pt" viewBox="-85 0 512 512" width="512pt" xmlns="http://www.w3.org/2000/svg"><path d="m272.234375 195.820312-125.398437-149.335937c-2.023438-2.429687-5.011719-3.816406-8.167969-3.816406-76.460938 0-138.667969 62.207031-138.667969 138.664062 0 72.449219 123.902344 314.605469 129.171875 324.886719 1.835937 3.542969 5.484375 5.78125 9.496094 5.78125 3.988281 0 7.65625-2.238281 9.492187-5.78125 4.414063-8.597656 108.289063-211.605469 126.355469-301.441406.640625-3.175782-.210937-6.484375-2.28125-8.957032zm-66.347656 17.535157c-12.542969 26.304687-38.3125 42.644531-67.21875 42.644531-41.175781 0-74.667969-33.492188-74.667969-74.667969 0-41.171875 33.492188-74.664062 74.667969-74.664062 3.667969 0 7.082031 1.875 9.023437 4.96875l57.597656 91.433593c1.964844 3.09375 2.175782 6.976563.597657 10.285157zm0 0" fill="#2196f3"/><path d="m330.667969 116.265625v43.734375c0 23.464844-19.203125 42.667969-42.667969 42.667969h-42.667969l-12.585937 12.585937c-4.480469 4.480469-10.238282 6.613282-16 6.613282-5.972656 0-11.519532-2.132813-16-6.613282-8.960938-8.746094-8.960938-23.039062 0-32l-4.054688 4.054688c-4.265625 4.050781-9.8125 5.972656-15.359375 5.972656-1.707031 0-3.410156-.214844-5.117187-.640625-10.027344-5.121094-10.453125-5.546875-10.882813-5.972656-8.320312-8.320313-8.746093-21.976563-1.066406-30.722657l6.402344-6.613281c-4.269531 4.269531-10.242188 6.613281-16 6.613281-1.707031 0-3.414063-.210937-4.90625-.636718-9.816407-4.910156-10.453125-5.335938-11.09375-5.976563-8.535157-8.53125-8.746094-22.613281-.640625-31.359375l11.304687-11.304687c-4.265625 4.265625-10.238281 6.613281-16 6.613281l-5.117187-.640625c-4.054688-.855469-7.894532-2.988281-10.882813-5.972656-8.746093-8.746094-8.746093-23.253907 0-32l33.066407-33.066407c19.839843-19.839843 46.722656-30.933593 74.667968-30.933593 58.242188 0 105.601563 47.359375 105.601563 105.597656zm0 0" fill="#ffcc80"/><path d="m216.640625 232.640625c-8.898437 0-17.257813-3.457031-23.550781-9.75-5.207032-5.207031-8.472656-11.839844-9.453125-19.027344-9.34375.679688-18.773438-2.582031-25.855469-9.664062-6.273438-6.273438-9.75-14.636719-9.75-23.53125 0-1.578125.105469-3.117188.320312-4.652344-6.3125-1.214844-12.351562-4.246094-17.238281-9.128906-6.269531-6.292969-9.746093-14.65625-9.746093-23.554688 0-3.796875.617187-7.488281 1.832031-10.964843-4.90625-1.554688-9.535157-4.289063-13.417969-8.167969-12.96875-12.972657-12.96875-34.113281 0-47.085938l33.066406-33.066406c21.972656-21.949219 51.179688-34.046875 82.21875-34.046875 64.105469 0 116.265625 52.160156 116.265625 116.265625v43.734375c0 29.398438-23.933593 53.332031-53.332031 53.332031h-38.25l-9.558594 9.558594c-6.292968 6.292969-14.65625 9.75-23.550781 9.75zm14.910156-65.089844-23.359375 23.359375c-2.261718 2.261719-3.5 5.269532-3.5 8.449219s1.238282 6.207031 3.5 8.449219c4.523438 4.523437 12.394532 4.523437 16.917969 0l55.359375-55.359375c4.160156-4.160157 10.921875-4.160157 15.082031 0 2.070313 2.089843 3.117188 4.820312 3.117188 7.550781s-1.046875 5.460938-3.117188 7.550781l-24.46875 24.449219h16.917969c17.644531 0 32-14.355469 32-32v-43.734375c0-52.351563-42.582031-94.933594-94.933594-94.933594-25.34375 0-49.195312 9.878907-67.113281 27.796875l-33.066406 33.070313c-4.671875 4.671875-4.671875 12.242187 0 16.914062 4.519531 4.523438 12.394531 4.523438 16.914062 0 4.160157-4.160156 10.925781-4.160156 15.085938 0 2.066406 2.09375 3.113281 4.824219 3.113281 7.554688s-1.046875 5.460937-3.113281 7.550781l-10.667969 10.667969c-2.261719 2.238281-3.519531 5.246093-3.519531 8.445312 0 3.203125 1.238281 6.210938 3.5 8.449219 4.671875 4.671875 12.242187 4.671875 16.914062 0l10.667969-10.667969c4.160156-4.160156 10.921875-4.160156 15.082031 0 2.089844 2.09375 3.136719 4.824219 3.136719 7.554688s-1.046875 5.460937-3.113281 7.550781l-16 16c-2.261719 2.238281-3.519531 5.246094-3.519531 8.449219 0 3.199219 1.234374 6.207031 3.496093 8.445312 4.671875 4.671875 12.246094 4.671875 16.917969 0l26.667969-26.664062c4.160156-4.160157 10.921875-4.160157 15.082031 0 2.089844 2.089843 3.136719 4.820312 3.136719 7.550781s-1.046875 5.460938-3.117188 7.550781zm0 0"/><path d="m138.667969 512c-4.011719 0-7.660157-2.238281-9.496094-5.78125-5.269531-10.28125-129.171875-252.4375-129.171875-324.886719 0-76.457031 62.207031-138.664062 138.667969-138.664062 5.886719 0 10.664062 4.777343 10.664062 10.664062 0 5.890625-4.777343 10.667969-10.664062 10.667969-64.707031 0-117.335938 52.628906-117.335938 117.332031 0 56.320313 87.875 237.226563 117.335938 296.300781 26.558593-53.269531 100.5625-205.632812 114.941406-277.058593 1.175781-5.78125 6.765625-9.535157 12.566406-8.359375 5.78125 1.171875 9.515625 6.78125 8.363281 12.5625-18.070312 89.835937-121.941406 292.84375-126.359374 301.441406-1.855469 3.542969-5.523438 5.78125-9.511719 5.78125zm0 0"/><path d="m138.667969 256c-41.175781 0-74.667969-33.492188-74.667969-74.667969 0-41.171875 33.492188-74.664062 74.667969-74.664062 5.886719 0 10.664062 4.777343 10.664062 10.664062 0 5.890625-4.777343 10.667969-10.664062 10.667969-29.398438 0-53.335938 23.9375-53.335938 53.332031 0 29.398438 23.9375 53.335938 53.335938 53.335938 20.605469 0 38.996093-11.691407 47.976562-30.507813 2.539063-5.332031 8.898438-7.574218 14.230469-5.035156 5.3125 2.539062 7.574219 8.894531 5.035156 14.230469-12.566406 26.304687-38.335937 42.644531-67.242187 42.644531zm0 0"/></svg>