<svg height="512pt" viewBox="-53 0 511 512" width="512pt" xmlns="http://www.w3.org/2000/svg"><path d="m142.578125 338.347656 86.402344 94.292969c12.160156 13.226563 29.226562 20.691406 47.144531 20.691406h35.839844c47.148437 0 85.335937-38.183593 85.335937-85.332031v-85.332031c0-11.734375-9.601562-21.335938-21.335937-21.335938-3.839844 0-7.464844 1.066407-10.664063 2.988281-6.402343 3.625-10.667969 10.453126-10.667969 18.347657v-21.335938c0-11.730469-9.597656-21.332031-21.332031-21.332031-3.839843 0-7.46875 1.066406-10.667969 2.988281-6.398437 3.625-10.667968 10.453125-10.667968 18.34375v-21.332031c0-11.734375-9.597656-21.332031-21.332032-21.332031-3.839843 0-7.464843 1.066406-10.667968 2.984375-6.398438 3.628906-10.664063 10.453125-10.664063 18.347656v-64c0-11.734375-9.601562-21.332031-21.335937-21.332031-11.730469 0-21.332032 9.597656-21.332032 21.332031v149.332031l-34.347656-22.824219c-16.636718-11.09375-39.039062-7.253906-50.984375 8.746094-6.1875 8.105469-5.546875 19.625 1.277344 27.09375zm0 0" fill="#ffcc80"/><path d="m224.5 448h149.332031c5.890625 0 10.667969 4.777344 10.667969 10.667969v42.664062c0 5.890625-4.777344 10.667969-10.667969 10.667969h-149.332031c-5.886719 0-10.667969-4.777344-10.667969-10.667969v-42.664062c0-5.890625 4.78125-10.667969 10.667969-10.667969zm0 0" fill="#455a64"/><path d="m267.167969 106.667969h-42.667969c-5.886719 0-10.667969-4.78125-10.667969-10.667969s4.78125-10.667969 10.667969-10.667969h42.667969c5.886719 0 10.664062 4.78125 10.664062 10.667969s-4.777343 10.667969-10.664062 10.667969zm0 0"/><path d="m267.167969 21.332031h-42.667969c-5.886719 0-10.667969-4.777343-10.667969-10.664062 0-5.890625 4.78125-10.667969 10.667969-10.667969h42.667969c5.886719 0 10.664062 4.777344 10.664062 10.667969 0 5.886719-4.777343 10.664062-10.664062 10.664062zm0 0"/><path d="m160.5 106.667969h-42.667969c-5.886719 0-10.664062-4.78125-10.664062-10.667969s4.777343-10.667969 10.664062-10.667969h42.667969c5.886719 0 10.667969 4.78125 10.667969 10.667969s-4.78125 10.667969-10.667969 10.667969zm0 0"/><path d="m160.5 192h-42.667969c-5.886719 0-10.664062-4.777344-10.664062-10.667969 0-5.886719 4.777343-10.664062 10.664062-10.664062h42.667969c5.886719 0 10.667969 4.777343 10.667969 10.664062 0 5.890625-4.78125 10.667969-10.667969 10.667969zm0 0"/><path d="m160.5 21.332031h-42.667969c-5.886719 0-10.664062-4.777343-10.664062-10.664062 0-5.890625 4.777343-10.667969 10.664062-10.667969h42.667969c5.886719 0 10.667969 4.777344 10.667969 10.667969 0 5.886719-4.78125 10.664062-10.667969 10.664062zm0 0"/><path d="m53.832031 106.667969h-42.664062c-5.890625 0-10.667969-4.78125-10.667969-10.667969s4.777344-10.667969 10.667969-10.667969h42.664062c5.890625 0 10.667969 4.78125 10.667969 10.667969s-4.777344 10.667969-10.667969 10.667969zm0 0"/><path d="m53.832031 192h-42.664062c-5.890625 0-10.667969-4.777344-10.667969-10.667969 0-5.886719 4.777344-10.664062 10.667969-10.664062h42.664062c5.890625 0 10.667969 4.777343 10.667969 10.664062 0 5.890625-4.777344 10.667969-10.667969 10.667969zm0 0"/><path d="m53.832031 21.332031h-42.664062c-5.890625 0-10.667969-4.777343-10.667969-10.664062 0-5.890625 4.777344-10.667969 10.667969-10.667969h42.664062c5.890625 0 10.667969 4.777344 10.667969 10.667969 0 5.886719-4.777344 10.664062-10.667969 10.664062zm0 0"/><path d="m309.832031 469.332031h-35.859375c-20.863281 0-40.917968-8.832031-55.019531-24.210937l-86.355469-94.1875c-10.414062-11.347656-11.246094-28.5-2.027344-40.832032 15.402344-20.5 44.136719-25.449218 65.472657-11.199218l17.769531 11.839844v-129.410157c.019531-17.640625 14.378906-32 32.019531-32 17.644531 0 32 14.359375 32 32v33.816407c3.328125-1.175782 6.933594-1.816407 10.667969-1.816407 14.71875 0 27.15625 10.007813 30.871094 23.574219 3.644531-1.429688 7.636718-2.238281 11.796875-2.238281 14.71875 0 27.15625 10.003906 30.867187 23.570312 3.648438-1.425781 7.636719-2.238281 11.796875-2.238281 17.644531 0 32 14.355469 32 32v85.332031c0 52.929688-43.070312 96-96 96zm-140.542969-157.226562c-8.234374 0-16.363281 3.757812-21.632812 10.796875-3.09375 4.09375-2.816406 9.8125.640625 13.609375l86.359375 94.207031c10.089844 10.988281 24.425781 17.28125 39.316406 17.28125h35.859375c41.175781 0 74.667969-33.492188 74.667969-74.667969v-85.332031c0-5.886719-4.800781-10.667969-10.667969-10.667969-5.867187 0-10.664062 4.78125-10.664062 10.667969v10.667969c0 5.886719-4.78125 10.664062-10.667969 10.664062s-10.667969-4.777343-10.667969-10.664062v-32c0-5.890625-4.796875-10.667969-10.664062-10.667969-5.867188 0-10.667969 4.777344-10.667969 10.667969v32c0 5.886719-4.777344 10.664062-10.667969 10.664062-5.886719 0-10.664062-4.777343-10.664062-10.664062v-53.335938c0-5.886719-4.800781-10.664062-10.667969-10.664062s-10.667969 4.777343-10.667969 10.664062v53.335938c0 5.886719-4.777343 10.664062-10.664062 10.664062-5.890625 0-10.667969-4.777343-10.667969-10.664062v-117.335938c0-5.886719-4.800781-10.664062-10.667969-10.664062-5.867187 0-10.664062 4.777343-10.664062 10.664062v149.335938c0 3.945312-2.175781 7.550781-5.632813 9.40625-3.476562 1.835937-7.636718 1.664062-10.964844-.53125l-34.347656-22.914063c-4.585937-3.050781-9.792968-4.523437-14.933594-4.523437zm0 0"/><path d="m373.832031 512c-5.886719 0-10.664062-4.777344-10.664062-10.667969v-32h-128v32c0 5.890625-4.78125 10.667969-10.667969 10.667969s-10.667969-4.777344-10.667969-10.667969v-42.664062c0-5.890625 4.78125-10.667969 10.667969-10.667969h149.332031c5.890625 0 10.667969 4.777344 10.667969 10.667969v42.664062c0 5.890625-4.777344 10.667969-10.667969 10.667969zm0 0"/></svg>