<svg height="512pt" viewBox="0 -11 512 512" width="512pt" xmlns="http://www.w3.org/2000/svg"><g fill="#2196f3"><path d="m64 202.667969c0 17.671875-14.328125 32-32 32s-32-14.328125-32-32c0-17.675781 14.328125-32 32-32s32 14.324219 32 32zm0 0"/><path d="m149.332031 202.667969c0 17.671875-14.324219 32-32 32-17.671875 0-32-14.328125-32-32 0-17.675781 14.328125-32 32-32 17.675781 0 32 14.324219 32 32zm0 0"/><path d="m64 117.332031c0 17.675781-14.328125 32-32 32s-32-14.324219-32-32c0-17.671875 14.328125-32 32-32s32 14.328125 32 32zm0 0"/><path d="m64 32c0 17.671875-14.328125 32-32 32s-32-14.328125-32-32 14.328125-32 32-32 32 14.328125 32 32zm0 0"/><path d="m149.332031 117.332031c0 17.675781-14.324219 32-32 32-17.671875 0-32-14.324219-32-32 0-17.671875 14.328125-32 32-32 17.675781 0 32 14.328125 32 32zm0 0"/><path d="m149.332031 32c0 17.671875-14.324219 32-32 32-17.671875 0-32-14.328125-32-32s14.328125-32 32-32c17.675781 0 32 14.328125 32 32zm0 0"/><path d="m234.667969 117.332031c0 17.675781-14.328125 32-32 32-17.675781 0-32-14.324219-32-32 0-17.671875 14.324219-32 32-32 17.671875 0 32 14.328125 32 32zm0 0"/><path d="m234.667969 202.667969c0 17.671875-14.328125 32-32 32-17.675781 0-32-14.328125-32-32 0-17.675781 14.324219-32 32-32 17.671875 0 32 14.324219 32 32zm0 0"/><path d="m234.667969 32c0 17.671875-14.328125 32-32 32-17.675781 0-32-14.328125-32-32s14.324219-32 32-32c17.671875 0 32 14.328125 32 32zm0 0"/></g><path d="m473.601562 268.160156-79.789062-87.679687c-11.734375-11.734375-30.933594-11.734375-42.664062 0-4.054688 4.054687-6.828126 8.960937-8.535157 18.984375-.214843.855468-.214843 1.496094-.214843 2.347656 0 7.679688 2.773437 15.359375 8.75 21.335938l-21.335938-21.335938c-11.734375-11.734375-30.933594-11.734375-42.664062 0-4.269532 4.265625-7.042969 9.386719-8.535157 19.199219-.214843.640625-.214843 1.496093-.214843 2.136719 0 7.679687 2.773437 15.359374 8.75 21.332031l-21.335938-21.332031c-11.734375-11.734376-30.933594-11.734376-42.664062 0-4.054688 4.050781-6.828126 8.957031-8.535157 18.984374-.214843.855469-.214843 1.492188-.214843 2.347657 0 7.679687 2.773437 15.359375 8.75 21.332031l-64-64c-11.734376-10.878906-30.296876-10.664062-41.816407.855469-5.972656 5.972656-8.746093 13.652343-8.746093 21.332031s2.773437 15.359375 8.746093 21.332031l160 160-107.09375 16.855469c-18.132812 2.558594-31.570312 18.132812-31.570312 36.480469 0 11.730469 9.597656 21.332031 21.332031 21.332031h201.171875c28.375 0 55.46875-11.308594 75.308594-31.148438l33.707031-33.703124c19.839844-19.839844 31.144531-46.933594 31.144531-75.308594 0-26.453125-9.8125-52.054688-27.730469-71.679688zm0 0" fill="#ffcc80"/><path d="m32 234.667969c-17.644531 0-32-14.359375-32-32 0-17.644531 14.355469-32 32-32s32 14.355469 32 32c0 17.640625-14.355469 32-32 32zm0-42.667969c-5.886719 0-10.667969 4.777344-10.667969 10.667969 0 5.886719 4.78125 10.664062 10.667969 10.664062s10.667969-4.777343 10.667969-10.664062c0-5.890625-4.78125-10.667969-10.667969-10.667969zm0 0"/><path d="m32 149.332031c-17.644531 0-32-14.355469-32-32 0-17.640625 14.355469-32 32-32s32 14.359375 32 32c0 17.644531-14.355469 32-32 32zm0-42.664062c-5.886719 0-10.667969 4.777343-10.667969 10.664062 0 5.890625 4.78125 10.667969 10.667969 10.667969s10.667969-4.777344 10.667969-10.667969c0-5.886719-4.78125-10.664062-10.667969-10.664062zm0 0"/><path d="m32 64c-17.644531 0-32-14.355469-32-32s14.355469-32 32-32 32 14.355469 32 32-14.355469 32-32 32zm0-42.667969c-5.886719 0-10.667969 4.78125-10.667969 10.667969s4.78125 10.667969 10.667969 10.667969 10.667969-4.78125 10.667969-10.667969-4.78125-10.667969-10.667969-10.667969zm0 0"/><path d="m117.332031 149.332031c-17.640625 0-32-14.355469-32-32 0-17.640625 14.359375-32 32-32 17.644531 0 32 14.359375 32 32 0 17.644531-14.355469 32-32 32zm0-42.664062c-5.886719 0-10.664062 4.777343-10.664062 10.664062 0 5.890625 4.777343 10.667969 10.664062 10.667969 5.890625 0 10.667969-4.777344 10.667969-10.667969 0-5.886719-4.777344-10.664062-10.667969-10.664062zm0 0"/><path d="m117.332031 64c-17.640625 0-32-14.355469-32-32s14.359375-32 32-32c17.644531 0 32 14.355469 32 32s-14.355469 32-32 32zm0-42.667969c-5.886719 0-10.664062 4.78125-10.664062 10.667969s4.777343 10.667969 10.664062 10.667969c5.890625 0 10.667969-4.78125 10.667969-10.667969s-4.777344-10.667969-10.667969-10.667969zm0 0"/><path d="m202.667969 149.332031c-17.644531 0-32-14.355469-32-32 0-17.640625 14.355469-32 32-32 17.640625 0 32 14.359375 32 32 0 17.644531-14.359375 32-32 32zm0-42.664062c-5.890625 0-10.667969 4.777343-10.667969 10.664062 0 5.890625 4.777344 10.667969 10.667969 10.667969 5.886719 0 10.664062-4.777344 10.664062-10.667969 0-5.886719-4.777343-10.664062-10.664062-10.664062zm0 0"/><path d="m202.667969 234.667969c-17.644531 0-32-14.359375-32-32 0-17.644531 14.355469-32 32-32 17.640625 0 32 14.355469 32 32 0 17.640625-14.359375 32-32 32zm0-42.667969c-5.890625 0-10.667969 4.777344-10.667969 10.667969 0 5.886719 4.777344 10.664062 10.667969 10.664062 5.886719 0 10.664062-4.777343 10.664062-10.664062 0-5.890625-4.777343-10.667969-10.664062-10.667969zm0 0"/><path d="m102.25 228.414062c-2.730469 0-5.460938-1.042968-7.550781-3.113281-12.480469-12.480469-12.480469-32.765625 0-45.246093 12.480469-12.480469 32.765625-12.480469 45.246093 0 4.160157 4.160156 4.160157 10.921874 0 15.082031-4.160156 4.160156-10.921874 4.160156-15.082031 0-4.160156-4.160157-10.921875-4.160157-15.082031 0-4.160156 4.160156-4.160156 10.921875 0 15.082031s4.160156 10.921875 0 15.082031c-2.070312 2.070313-4.800781 3.113281-7.53125 3.113281zm0 0"/><path d="m202.667969 64c-17.644531 0-32-14.355469-32-32s14.355469-32 32-32c17.640625 0 32 14.355469 32 32s-14.359375 32-32 32zm0-42.667969c-5.890625 0-10.667969 4.78125-10.667969 10.667969s4.777344 10.667969 10.667969 10.667969c5.886719 0 10.664062-4.78125 10.664062-10.667969s-4.777343-10.667969-10.664062-10.667969zm0 0"/><path d="m361.152344 490.667969h-201.152344c-17.644531 0-32-14.359375-32-32 0-23.53125 17.558594-43.757813 40.832031-47.082031l86.144531-13.527344-145.238281-145.238282c-15.894531-15.890624-15.894531-41.75 0-57.621093 16.023438-16.019531 41.878907-16 57.75-.128907l37.800781 37.804688c1.859376-6.292969 5.269532-12.246094 10.242188-17.214844 14.699219-14.699218 37.695312-15.894531 53.652344-3.714844 1.835937-6.460937 5.292968-12.542968 10.347656-17.621093 14.699219-14.699219 37.714844-15.914063 53.675781-3.691407 1.789063-6.484374 5.246094-12.5625 10.324219-17.640624 16.019531-16.023438 41.875-16 57.75-.128907l80.210938 88.148438c19.671874 21.632812 30.507812 49.644531 30.507812 78.871093 0 31.296876-12.179688 60.734376-34.324219 82.859376l-33.558593 33.554687c-22.164063 22.167969-51.625 34.371094-82.964844 34.371094zm-222.484375-286.210938c-4.972657 0-9.941407 1.898438-13.738281 5.675781-7.703126 7.703126-7.703126 20.011719-.128907 27.585938l160.0625 160.0625c2.839844 2.835938 3.839844 7.039062 2.601563 10.835938-1.257813 3.820312-4.519532 6.613281-8.488282 7.234374l-106.988281 16.808594c-12.96875 1.878906-22.65625 13.035156-22.65625 26.007813 0 5.886719 4.78125 10.664062 10.667969 10.664062h201.152344c25.640625 0 49.75-9.984375 67.882812-28.117187l33.558594-33.554688c18.109375-18.113281 28.074219-42.175781 28.074219-67.777344 0-23.914062-8.875-46.828124-24.941407-64.511718l-79.871093-87.785156c-7.210938-7.171876-19.5625-7.191407-27.113281.359374-3.796876 3.796876-5.804688 8.664063-5.804688 13.847657 0 5.183593 2.027344 10.070312 5.695312 13.738281l.917969.917969c4.160157 4.160156 4.160157 10.921875 0 15.082031-4.074219 4.074219-10.6875 4.160156-14.867187.210938 0 0 0-.019532-.023438-.019532h-.019531s0 0-.023437-.019531c0 0-.019532-.023437-.019532-.023437s.019532 0-.023437-.019532l-22.25-22.253906c-7.550781-7.550781-19.902344-7.550781-27.453125 0-7.703125 7.703125-7.703125 20.011719-.128906 27.585938l22.25 22.25c1.960937 1.964843 3.007812 4.695312 3.007812 7.425781s-1.046875 5.460937-3.113281 7.550781c-4.160157 4.160156-10.925781 4.160156-15.085938 0l-43.582031-43.585938c-7.550781-7.550781-19.902344-7.550781-27.457031 0-7.699219 7.703126-7.699219 20.011719-.128907 27.585938l43.585938 43.582031c2.070312 2.070313 3.113281 4.800781 3.113281 7.53125s-1.042969 5.460938-3.113281 7.554688c-4.160156 4.160156-10.921875 4.160156-15.082031 0l-106.730469-106.730469c-3.796875-3.800781-8.769531-5.699219-13.738281-5.699219zm0 0"/></svg>