<svg height="410pt" viewBox="0 -10 410.83733 410" width="410pt" xmlns="http://www.w3.org/2000/svg"><path d="m400.171875 219.273438c0 34.132812-13.65625 66.984374-37.761719 91.09375l-37.757812 37.542968c-19.839844 20.054688-47.148438 31.363282-75.308594 31.363282h-105.171875c-47.148437 0-85.335937-38.1875-85.335937-85.335938v-42.664062l-37.117188-37.121094c-14.722656-14.71875-14.722656-38.613282 0-53.332032 14.71875-14.722656 38.613281-14.722656 53.332031 0l-21.332031-21.335937c-7.253906-7.253906-10.882812-16.640625-11.09375-26.238281 0-9.8125 3.625-19.628906 11.09375-27.09375 14.71875-14.71875 38.613281-14.71875 53.332031 0l16 16c-7.253906-7.253906-10.878906-16.640625-11.09375-26.027344v-.214844c0-9.8125 3.628907-19.625 11.09375-27.089844 14.71875-14.722656 38.613281-14.722656 53.332031 0l26.667969 26.664063c-7.253906-7.253906-10.878906-16.640625-11.09375-26.027344-.214843-9.8125 3.628907-19.839843 11.09375-27.304687 14.71875-14.71875 38.613281-14.71875 53.332031 0l106.027344 106.027344c24.105469 24.105468 37.761719 56.957031 37.761719 91.09375zm0 0" fill="#ffcc80"/><path d="m249.324219 389.917969h-105.152344c-52.929687 0-96-43.074219-96-96v-38.25l-34.027344-34.027344c-18.859375-18.859375-18.859375-49.558594 0-68.417969 7.1875-7.167968 16.234375-11.816406 26.046875-13.480468-12.628906-18.796876-10.644531-44.566407 5.953125-61.164063 15.019531-15.019531 37.480469-18.089844 55.574219-9.214844 1.277344-10.285156 5.867188-20.246093 13.757812-28.117187 18.285157-18.304688 47.703126-18.859375 66.6875-1.644532 1.816407-9.40625 6.378907-18.089843 13.3125-25.023437 18.878907-18.878906 49.535157-18.878906 68.417969 0l106.089844 106.113281c26.347656 26.347656 40.851563 61.355469 40.851563 98.582032 0 37.226562-14.503907 72.234374-40.851563 98.601562l-37.71875 37.71875c-22.164063 22.121094-51.625 34.324219-82.941406 34.324219zm-179.820313-112.917969v16.917969c0 41.171875 33.492188 74.667969 74.667969 74.667969h105.152344c25.640625 0 49.746093-9.984376 67.882812-28.121094l37.714844-37.714844c22.316406-22.316406 34.601563-51.988281 34.601563-83.519531s-12.285157-61.183594-34.601563-83.5l-106.089844-106.113281c-10.21875-10.21875-28.03125-10.21875-38.25 0-10.539062 10.539062-10.539062 27.714843 0 38.253906l5.140625 5.140625c2.089844 2.089843 3.113282 4.820312 3.113282 7.550781s-1.042969 5.460938-3.113282 7.550781c-4.160156 4.160157-10.921875 4.160157-15.082031 0l-31.808594-31.804687c-10.539062-10.539063-27.710937-10.539063-38.25 0-5.121093 5.117187-7.9375 11.921875-7.9375 19.132812 0 7.210938 2.816407 14.015625 7.914063 19.117188l31.808594 31.808594c2.089843 2.089843 3.117187 4.820312 3.117187 7.550781s-1.046875 5.460937-3.117187 7.550781c-4.160157 4.160156-10.921876 4.160156-15.082032 0l-47.808594-47.808594c-10.539062-10.539062-27.710937-10.539062-38.25 0-10.539062 10.539063-10.539062 27.714844 0 38.25l47.808594 47.808594c2.089844 2.09375 3.113282 4.824219 3.113282 7.554688 0 2.730468-1.042969 5.460937-3.113282 7.550781-4.160156 4.160156-10.921875 4.160156-15.082031 0l-26.476563-26.476563c-10.21875-10.21875-28.03125-10.21875-38.25 0-5.097656 5.121094-7.914062 11.90625-7.914062 19.117188 0 7.210937 2.816406 14.015625 7.914062 19.113281l79.808594 79.808594c2.089844 2.089843 3.113282 4.820312 3.113282 7.550781s-1.042969 5.460938-3.113282 7.554688c-4.160156 4.160156-10.921875 4.160156-15.082031 0zm0 0"/></svg>