<svg height="512pt" viewBox="-21 0 512 512" width="512pt" xmlns="http://www.w3.org/2000/svg"><path d="m430.933594 289.492188-79.785156-87.679688c-11.734376-11.734375-30.933594-11.734375-42.667969 0-4.054688 4.054688-6.828125 8.960938-8.535157 18.988281-.210937.851563-.210937 1.492188-.210937 2.347657 0 7.679687 2.773437 15.359374 8.746094 21.332031l-21.332031-21.332031c-11.734376-11.734376-30.933594-11.734376-42.667969 0-4.265625 4.265624-7.039063 9.386718-8.535157 19.199218-.210937.640625-.210937 1.492188-.210937 2.132813 0 7.679687 2.773437 15.359375 8.746094 21.332031l-21.332031-21.332031c-11.734376-11.734375-30.933594-11.734375-42.667969 0-4.054688 4.054687-6.828125 8.960937-8.535157 18.984375-.210937.855468-.210937 1.496094-.210937 2.347656 0 7.679688 2.773437 15.359375 8.746094 21.335938l-64-64c-11.734375-10.882813-30.292969-10.667969-41.8125.851562-5.976563 5.972656-8.746094 13.652344-8.746094 21.332031 0 7.679688 2.769531 15.359375 8.746094 21.335938l160 160-107.09375 16.851562c-18.132813 2.558594-31.574219 18.132813-31.574219 36.480469 0 11.734375 9.601562 21.332031 21.332031 21.332031h201.175781c28.371094 0 55.464844-11.304687 75.304688-31.144531l33.707031-33.707031c19.839844-19.839844 31.148438-46.933594 31.148438-75.308594 0-26.453125-9.816407-52.050781-27.734375-71.679687zm0 0" fill="#ffcc80"/><path d="m277.332031 74.667969c0 41.234375-33.429687 74.664062-74.664062 74.664062-41.238281 0-74.667969-33.429687-74.667969-74.664062 0-41.238281 33.429688-74.667969 74.667969-74.667969 41.234375 0 74.664062 33.429688 74.664062 74.667969zm0 0" fill="#455a64"/><path d="m202.667969 149.332031c-41.175781 0-74.667969-33.492187-74.667969-74.664062 0-41.175781 33.492188-74.667969 74.667969-74.667969 41.171875 0 74.664062 33.492188 74.664062 74.667969 0 41.171875-33.492187 74.664062-74.664062 74.664062zm0-128c-29.421875 0-53.335938 23.9375-53.335938 53.335938 0 29.394531 23.914063 53.332031 53.335938 53.332031 29.417969 0 53.332031-23.9375 53.332031-53.332031 0-29.398438-23.914062-53.335938-53.332031-53.335938zm0 0"/><path d="m224 106.667969c-2.730469 0-5.460938-1.046875-7.550781-3.117188l-21.335938-21.332031c-1.984375-2.003906-3.113281-4.714844-3.113281-7.550781v-32c0-5.890625 4.777344-10.667969 10.667969-10.667969 5.886719 0 10.664062 4.777344 10.664062 10.667969v27.582031l18.21875 18.21875c4.160157 4.160156 4.160157 10.921875 0 15.082031-2.089843 2.070313-4.820312 3.117188-7.550781 3.117188zm0 0"/><path d="m318.484375 512h-201.152344c-17.640625 0-32-14.355469-32-32 0-23.53125 17.558594-43.753906 40.855469-47.082031l86.101562-13.527344-145.238281-145.234375c-15.894531-15.894531-15.894531-41.75 0-57.621094 16.042969-16 41.878907-16 57.75-.128906l37.800781 37.800781c1.855469-6.292969 5.269532-12.246093 10.21875-17.214843 14.335938-14.359376 38.144532-15.636719 53.65625-3.734376 1.832032-6.464843 5.289063-12.542968 10.34375-17.597656 14.359376-14.359375 38.167969-15.617187 53.695313-3.714844 1.792969-6.484374 5.25-12.5625 10.304687-17.621093 15.636719-15.679688 42.390626-15.53125 57.75-.125l80.234376 88.125c19.671874 21.632812 30.507812 49.644531 30.507812 78.871093 0 31.296876-12.183594 60.734376-34.324219 82.859376l-33.539062 33.554687c-22.183594 22.1875-51.648438 34.390625-82.964844 34.390625zm-222.484375-286.207031c-4.96875 0-9.941406 1.898437-13.738281 5.671875-7.679688 7.703125-7.679688 20.011718-.128907 27.585937l160.066407 160.0625c2.835937 2.839844 3.839843 7.042969 2.601562 10.839844-1.257812 3.816406-4.523437 6.613281-8.492187 7.230469l-106.984375 16.8125c-12.972657 1.875-22.65625 13.035156-22.65625 26.003906 0 5.886719 4.796875 10.667969 10.664062 10.667969h201.152344c25.621094 0 49.75-9.984375 67.90625-28.117188l33.535156-33.558593c18.089844-18.113282 28.074219-42.199219 28.074219-67.777344 0-23.914063-8.851562-46.804688-24.960938-64.511719l-79.871093-87.785156c-6.632813-6.613281-19.777344-6.976563-27.113281.363281-7.554688 7.570312-7.660157 19.625-.449219 27.21875l1.28125 1.28125c4.160156 4.160156 4.160156 10.902344.019531 15.0625-4.054688 4.09375-10.625 4.203125-14.847656.277344 0 0 0 0-.019532 0h-.023437s.023437 0-.019531-.023438c0 0 0 0-.023438-.019531-.019531 0-.019531-.023437-.019531-.023437s-.023437 0-.023437-.019532c.023437.019532 0 0-.019532-.023437 0 0 .210938.109375-.042968-.019531 0 0-.023438-.023438-.023438-.023438-.019531 0-.019531-.019531-.042969-.039062l-22.269531-22.253907c-7.339844-7.335937-20.117188-7.335937-27.457031 0-7.574219 7.597657-7.660157 19.734375-.382813 27.328125l22.527344 22.507813c4.160156 4.160156 4.160156 10.921875 0 15.082031s-10.921875 4.160156-15.082031 0l-22.273438-22.25c-.128906-.105469-.234375-.234375-.363281-.363281l-20.96875-20.96875c-7.339844-7.339844-20.117188-7.339844-27.457031 0-7.550781 7.550781-7.660157 19.605469-.46875 27.21875l43.96875 43.96875c4.160156 4.160156 4.160156 10.921875 0 15.082031-4.160157 4.160156-10.921875 4.160156-15.082031 0l-43.628907-43.667969c-.171875-.171875-.363281-.339843-.511719-.511719l-62.613281-62.613281c-3.796875-3.796875-8.769531-5.695312-13.738281-5.695312zm0 0"/><path d="m60.992188 333.675781c-1.472657 0-2.964844-.300781-4.394532-.941406-34.367187-15.550781-56.597656-49.855469-56.597656-87.402344 0-52.925781 43.070312-96 96-96 37.546875 0 71.828125 22.230469 87.402344 56.597657 2.410156 5.355468.042968 11.691406-5.332032 14.125-5.3125 2.410156-11.691406.0625-14.125-5.335938-12.09375-26.75-38.78125-44.050781-67.945312-44.050781-41.171875 0-74.667969 33.492187-74.667969 74.664062 0 29.183594 17.300781 55.851563 44.054688 67.949219 5.375 2.429688 7.742187 8.746094 5.332031 14.121094-1.789062 3.925781-5.652344 6.273437-9.726562 6.273437zm0 0"/></svg>