<svg height="512pt" viewBox="0 0 511 512" width="512pt" xmlns="http://www.w3.org/2000/svg"><path d="m224.5 0h-149.332031c-41.175781 0-74.667969 33.492188-74.667969 74.667969v362.664062c0 41.175781 33.492188 74.667969 74.667969 74.667969h149.332031c41.171875 0 74.667969-33.492188 74.667969-74.667969v-362.664062c0-41.175781-33.496094-74.667969-74.667969-74.667969zm0 0" fill="#455a64"/><path d="m21.832031 106.667969h256v277.332031h-256zm0 0" fill="#fafafa"/><path d="m474.101562 289.492188-79.789062-87.679688c-11.734375-11.734375-30.933594-11.734375-42.664062 0-4.054688 4.054688-6.828126 8.960938-8.535157 18.988281-.214843.851563-.214843 1.492188-.214843 2.347657 0 7.679687 2.773437 15.359374 8.75 21.332031l-21.335938-21.332031c-11.734375-11.734376-30.933594-11.734376-42.664062 0-4.269532 4.265624-7.042969 9.386718-8.535157 19.199218-.214843.640625-.214843 1.492188-.214843 2.132813 0 7.679687 2.773437 15.359375 8.75 21.332031l-21.335938-21.332031c-11.734375-11.734375-30.933594-11.734375-42.664062 0-4.054688 4.054687-6.828126 8.960937-8.535157 18.984375-.214843.855468-.214843 1.496094-.214843 2.347656 0 7.679688 2.773437 15.359375 8.75 21.335938l-64-64c-11.734376-10.882813-30.296876-10.667969-41.816407.851562-5.972656 5.972656-8.746093 13.652344-8.746093 21.332031 0 7.679688 2.773437 15.359375 8.746093 21.335938l160 160-107.09375 16.851562c-18.132812 2.558594-31.570312 18.132813-31.570312 36.480469 0 11.734375 9.597656 21.332031 21.332031 21.332031h201.171875c28.375 0 55.46875-11.304687 75.308594-31.144531l33.707031-33.707031c19.839844-19.839844 31.144531-46.933594 31.144531-75.308594 0-26.453125-9.8125-52.050781-27.730469-71.679687zm0 0" fill="#ffcc80"/><path d="m96.5 512h-21.332031c-41.175781 0-74.667969-33.492188-74.667969-74.667969v-362.664062c0-41.175781 33.492188-74.667969 74.667969-74.667969h149.332031c41.171875 0 74.667969 33.492188 74.667969 74.667969v106.664062c0 5.890625-4.78125 10.667969-10.667969 10.667969s-10.667969-4.777344-10.667969-10.667969v-106.664062c0-29.398438-23.914062-53.335938-53.332031-53.335938h-149.332031c-29.421875 0-53.335938 23.9375-53.335938 53.335938v362.664062c0 29.398438 23.914063 53.335938 53.335938 53.335938h21.332031c5.886719 0 10.667969 4.777343 10.667969 10.664062 0 5.890625-4.78125 10.667969-10.667969 10.667969zm0 0"/><path d="m288.5 106.667969h-277.332031c-5.890625 0-10.667969-4.78125-10.667969-10.667969s4.777344-10.667969 10.667969-10.667969h277.332031c5.886719 0 10.667969 4.78125 10.667969 10.667969s-4.78125 10.667969-10.667969 10.667969zm0 0"/><path d="m192.5 405.332031h-181.332031c-5.890625 0-10.667969-4.777343-10.667969-10.664062 0-5.890625 4.777344-10.667969 10.667969-10.667969h181.332031c5.886719 0 10.667969 4.777344 10.667969 10.667969 0 5.886719-4.78125 10.664062-10.667969 10.664062zm0 0"/><path d="m181.832031 64h-64c-5.886719 0-10.664062-4.777344-10.664062-10.667969 0-5.886719 4.777343-10.664062 10.664062-10.664062h64c5.890625 0 10.667969 4.777343 10.667969 10.664062 0 5.890625-4.777344 10.667969-10.667969 10.667969zm0 0"/><path d="m224.925781 64c-5.867187 0-10.773437-4.777344-10.773437-10.667969 0-5.886719 4.652344-10.664062 10.5625-10.664062h.210937c5.890625 0 10.667969 4.777343 10.667969 10.664062 0 5.890625-4.777344 10.667969-10.667969 10.667969zm0 0"/><path d="m361.652344 512h-201.152344c-17.644531 0-32-14.355469-32-32 0-23.53125 17.558594-43.753906 40.851562-47.082031l86.101563-13.527344-145.234375-145.234375c-15.894531-15.894531-15.894531-41.75 0-57.621094 16.042969-16 41.875-16 57.746094-.128906l37.804687 37.800781c1.855469-6.292969 5.269531-12.246093 10.21875-17.214843 14.3125-14.359376 38.164063-15.636719 53.652344-3.734376 1.835937-6.464843 5.292969-12.542968 10.347656-17.597656 14.355469-14.359375 38.1875-15.617187 53.695313-3.714844 1.792968-6.484374 5.25-12.5625 10.304687-17.621093 15.636719-15.679688 42.390625-15.53125 57.75-.125l80.234375 88.125c19.667969 21.632812 30.507813 49.644531 30.507813 78.871093 0 31.296876-12.183594 60.734376-34.328125 82.859376l-33.535156 33.554687c-22.1875 22.1875-51.648438 34.390625-82.964844 34.390625zm-222.484375-286.207031c-4.972657 0-9.941407 1.898437-13.738281 5.671875-7.683594 7.703125-7.683594 20.011718-.128907 27.585937l160.0625 160.0625c2.839844 2.839844 3.839844 7.042969 2.601563 10.839844-1.257813 3.816406-4.519532 6.613281-8.488282 7.230469l-106.988281 16.8125c-12.96875 1.875-22.65625 13.035156-22.65625 26.003906 0 5.886719 4.800781 10.667969 10.667969 10.667969h201.152344c25.621094 0 49.75-9.984375 67.902344-28.117188l33.539062-33.558593c18.089844-18.113282 28.074219-42.199219 28.074219-67.777344 0-23.914063-8.855469-46.804688-24.960938-64.511719l-79.871093-87.785156c-6.636719-6.613281-19.777344-6.976563-27.117188.363281-7.550781 7.570312-7.65625 19.625-.445312 27.21875l1.277343 1.28125c4.160157 4.160156 4.160157 10.902344.023438 15.0625-4.074219 4.09375-10.625 4.203125-14.847657.277344 0 0 0 0-.023437 0h-.019531s0 0-.023438-.023438c0 0 0 0-.019531-.019531-.023437 0-.023437-.023437-.023437-.023437s-.019532 0-.019532-.019532c.019532.019532-.023437 0-.023437-.023437 0 0 .195312.109375-.039063-.019531 0 0-.023437-.023438-.023437-.023438-.019531 0-.019531-.019531-.042969-.039062l-22.269531-22.253907c-7.339844-7.335937-20.121094-7.335937-27.457031 0-7.574219 7.597657-7.660157 19.734375-.386719 27.328125l22.53125 22.507813c4.160156 4.160156 4.160156 10.921875 0 15.082031-4.160157 4.160156-10.925781 4.160156-15.085938 0l-22.269531-22.25c-.128906-.105469-.234375-.234375-.363281-.363281l-20.96875-20.96875c-7.339844-7.339844-20.121094-7.339844-27.457031 0-7.554688 7.550781-7.660157 19.605469-.46875 27.21875l43.964843 43.96875c4.160157 4.160156 4.160157 10.921875 0 15.082031-4.160156 4.160156-10.921875 4.160156-15.082031 0l-43.605469-43.582031c-.167969-.171875-.363281-.34375-.511719-.511719l-62.613281-62.613281c-3.816406-3.882813-8.789062-5.78125-13.757812-5.78125zm0 0"/></svg>