<svg height="507pt" viewBox="0 -16 507.008 507" width="507pt" xmlns="http://www.w3.org/2000/svg"><path d="m496.277344 304.296875c0 34.132813-13.441406 66.988281-37.546875 91.09375l-37.761719 37.761719c-20.050781 20.050781-47.144531 31.144531-75.519531 31.144531h-275.839844c-11.730469 0-21.332031-9.386719-21.332031-21.332031 0-24.320313 18.132812-45.226563 42.238281-48.640625l107.09375-15.359375-176-176c-14.71875-14.722656-14.71875-38.613282 0-53.335938 14.722656-14.71875 38.613281-14.71875 53.335937 0l-26.667968-26.664062c-7.253906-7.253906-10.878906-16.640625-11.09375-26.242188 0-9.8125 3.628906-19.625 11.09375-27.09375 14.507812-14.503906 37.761718-14.71875 52.480468-.636718l27.519532 27.304687c-7.253906-7.253906-10.878906-16.640625-11.09375-26.027344-.214844-9.8125 3.628906-19.839843 11.09375-27.304687 14.71875-14.722656 38.613281-14.722656 53.332031 0l32 32c-7.253906-7.253906-10.878906-16.640625-11.09375-26.242188 0-9.8125 3.628906-19.625 11.09375-27.09375 14.722656-14.71875 38.613281-14.71875 53.335937 0l191.785157 191.789063c24.105469 24.105469 37.546875 56.746093 37.546875 90.878906zm0 0" fill="#ffcc80"/><path d="m345.492188 475.050781h-275.796876c-17.640624 0-32-14.359375-32-32 0-29.613281 22.101563-55.085937 51.414063-59.265625l85.953125-12.289062-160.917969-160.917969c-18.859375-18.855469-18.859375-49.554687 0-68.414063 7.101563-7.105468 15.851563-11.519531 25.042969-13.289062-17.234375-18.945312-16.679688-48.40625 1.625-66.710938 18.34375-18.324218 47.761719-18.835937 66.730469-1.601562 1.746093-9.191406 6.164062-17.960938 13.269531-25.066406 18.878906-18.878906 49.535156-18.878906 68.414062 0l3.648438 3.648437c1.769531-9.152343 6.1875-17.898437 13.269531-24.980469 18.878907-18.878906 49.535157-18.878906 68.414063 0l191.617187 191.617188c26.324219 26.324219 40.832031 61.332031 40.832031 98.582031 0 37.246094-14.507812 72.253907-40.832031 98.601563l-37.71875 37.714844c-21.800781 21.847656-52.050781 34.371093-82.964843 34.371093zm-297.128907-325.71875c-7.234375 0-14.015625 2.816407-19.117187 7.9375-10.535156 10.539063-10.535156 27.710938 0 38.25l176 176c2.859375 2.859375 3.863281 7.082031 2.582031 10.921875-1.300781 3.839844-4.628906 6.613282-8.617187 7.1875l-107.09375 15.296875c-18.859376 2.6875-33.085938 19.09375-33.085938 38.144531 0 5.886719 4.796875 10.667969 10.664062 10.667969h275.820313c25.277344 0 50.027344-10.242187 67.902344-28.117187l37.71875-37.71875c22.292969-22.292969 34.582031-51.96875 34.582031-83.519532 0-31.550781-12.289062-61.207031-34.582031-83.5l-191.660157-191.636718c-10.539062-10.539063-27.710937-10.539063-38.25 0-10.539062 10.539062-10.539062 27.710937 0 38.25l101.332032 101.335937c2.09375 2.089844 3.117187 4.820313 3.117187 7.550781 0 2.730469-1.046875 5.460938-3.117187 7.550782-4.160156 4.160156-10.921875 4.160156-15.082032 0l-133.332031-133.332032c-10.539062-10.539062-27.710937-10.539062-38.25 0-10.539062 10.539063-10.539062 27.710938 0 38.25l133.332031 133.332032c2.089844 2.09375 3.113282 4.824218 3.113282 7.554687s-1.042969 5.460938-3.113282 7.550781c-4.160156 4.160157-10.921874 4.160157-15.082031 0l-160-160c-10.21875-10.21875-28.03125-10.21875-38.25 0-5.101562 5.121094-7.914062 11.902344-7.914062 19.113282 0 7.210937 2.8125 13.996094 7.914062 19.09375l160 160c2.089844 2.09375 3.113281 4.824218 3.113281 7.554687s-1.046874 5.460938-3.113281 7.550781c-4.160156 4.160157-10.925781 4.160157-15.082031 0l-133.335938-133.332031c-5.097656-5.121093-11.882812-7.9375-19.113281-7.9375zm0 0"/></svg>