<svg height="512pt" viewBox="-85 0 512 512" width="512pt" xmlns="http://www.w3.org/2000/svg"><path d="m330.667969 128v266.667969c0 58.878906-47.789063 106.664062-106.667969 106.664062h-80.214844c-16.851562 0-33.277344-6.824219-45.226562-18.773437l-35.199219-35.199219c-33.707031-33.707031-52.691406-79.359375-52.691406-127.144531v-96.214844c0-11.734375 9.597656-21.332031 21.332031-21.332031 12.800781 0 24.320312 5.757812 32 14.71875 6.613281 7.464843 10.667969 17.28125 10.667969 27.945312v-160c0-17.707031 14.292969-32 32-32s32 14.292969 32 32v-42.664062c0-9.386719 4.050781-17.921875 10.664062-23.679688 5.546875-5.121093 13.015625-8.320312 21.335938-8.320312 17.707031 0 32 14.292969 32 32v42.664062c0-9.386719 4.050781-17.917969 10.664062-23.679687 5.546875-5.117188 13.015625-8.320313 21.335938-8.320313 17.707031 0 32 14.292969 32 32v42.667969c0-9.386719 4.050781-17.921875 10.664062-23.679688 5.546875-5.121093 13.015625-8.320312 21.335938-8.320312 17.707031 0 32 14.292969 32 32zm0 0" fill="#ffcc80"/><path d="m224 512h-80.148438c-19.949218 0-38.679687-7.765625-52.800781-21.867188l-35.308593-35.304687c-35.945313-35.925781-55.742188-83.714844-55.742188-134.570313v-96.257812c0-17.644531 14.355469-32 32-32 11.988281 0 23.082031 3.988281 32 10.6875v-117.355469c0-23.53125 19.136719-42.664062 42.667969-42.664062 7.765625 0 15.058593 2.089843 21.332031 5.738281v-5.738281c0-23.53125 19.136719-42.667969 42.667969-42.667969s42.664062 19.136719 42.664062 42.667969v5.738281c6.273438-3.648438 13.570313-5.738281 21.335938-5.738281 23.53125 0 42.664062 19.132812 42.664062 42.664062v5.738281c6.273438-3.644531 13.570313-5.738281 21.335938-5.738281 23.53125 0 42.664062 19.136719 42.664062 42.667969v266.667969c0 64.679687-52.628906 117.332031-117.332031 117.332031zm-192-298.667969c-5.886719 0-10.667969 4.78125-10.667969 10.667969v96.257812c0 45.140626 17.578125 87.570313 49.496094 119.507813l35.285156 35.285156c10.089844 10.070313 23.488281 15.617188 37.738281 15.617188h80.148438c52.929688 0 96-43.074219 96-96v-266.667969c0-11.753906-9.578125-21.332031-21.332031-21.332031-11.757813 0-21.335938 9.578125-21.335938 21.332031v96c0 5.886719-4.777343 10.667969-10.664062 10.667969-5.890625 0-10.667969-4.78125-10.667969-10.667969v-138.667969c0-11.753906-9.578125-21.332031-21.332031-21.332031-11.757813 0-21.335938 9.578125-21.335938 21.332031v138.667969c0 5.886719-4.777343 10.667969-10.664062 10.667969-5.890625 0-10.667969-4.78125-10.667969-10.667969v-181.332031c0-11.757813-9.578125-21.335938-21.332031-21.335938-11.757813 0-21.335938 9.578125-21.335938 21.335938v181.332031c0 5.886719-4.777343 10.667969-10.664062 10.667969-5.890625 0-10.667969-4.78125-10.667969-10.667969v-138.667969c0-11.753906-9.578125-21.332031-21.332031-21.332031-11.757813 0-21.335938 9.578125-21.335938 21.332031v224c0 5.890625-4.777343 10.667969-10.664062 10.667969-5.890625 0-10.667969-4.777344-10.667969-10.667969v-64c0-17.640625-14.355469-32-32-32zm0 0"/></svg>