<svg height="512pt" viewBox="-78 0 512 512" width="512pt" xmlns="http://www.w3.org/2000/svg"><path d="m313.847656 181.332031c-17.34375 0-31.382812 13.804688-31.894531 31.019531v-41.683593c0-17.707031-14.503906-32-32-32-8.320313 0-15.785156 3.199219-21.332031 8.320312-6.613282 5.757813-10.667969 14.292969-10.667969 23.679688v-126.507813c0-18.347656-15.144531-33.492187-33.707031-33.492187-17.277344 0-31.785156 13.011719-33.492188 30.292969l-6.613281 177.917968c-.214844 6.402344-9.171875 8.320313-11.734375 2.347656l-59.730469-134.1875c-7.894531-17.917968-29.65625-24.746093-46.292969-14.71875-9.816406 5.972657-15.574218 16.425782-15.574218 27.519532 0 3.199218.425781 6.613281 1.492187 9.8125l53.332031 168.746094 2.988282 9.601562h2.558594l-8.042969 1.898438c-21.84375 5.140624-37.289063 24.640624-37.289063 47.082031 0 2.902343.257813 5.804687.789063 8.664062l8.960937 49.277344c7.296875 40.148437 33.066406 74.496094 69.546875 92.738281 18.003907 8.980469 37.84375 13.671875 57.984375 13.671875h47.1875c74.859375 0 135.550782-60.691406 135.550782-135.550781v-152.449219c-.019532-17.664062-14.335938-32-32.019532-32zm0 0" fill="#ffcc80"/><path d="m345.847656 213.332031c0-17.664062-14.335937-32-32-32zm0 0" fill="#ffcc80"/><path d="m210.296875 512h-47.167969c-21.675781 0-43.351562-5.121094-62.742187-14.804688-39.296875-19.648437-67.433594-57.195312-75.285157-100.375l-8.960937-49.277343c-.640625-3.480469-.960937-7.019531-.960937-10.5625 0-27.519531 18.710937-51.136719 45.503906-57.449219l144.042968-33.898438c5.207032-1.152343 10.410157 1.535157 12.351563 6.421876 6.722656 16.832031 6.359375 35.199218-1.042969 51.730468-7.402344 16.535156-20.863281 29.035156-37.867187 35.203125l-45.972657 16.722657c-2.132812.769531-3.050781 2.390624-3.414062 3.308593-.363281.894531-.8125 2.707031.191406 4.734375l13.078125 26.15625c2.644531 5.269532.492188 11.667969-4.777343 14.3125-5.292969 2.648438-11.671876.46875-14.316407-4.777344l-13.078125-26.15625c-3.457031-6.890624-3.796875-14.972656-.9375-22.164062 2.859375-7.1875 8.683594-12.84375 15.957032-15.464844l45.972656-16.726562c11.5625-4.179688 20.671875-12.671875 25.6875-23.871094 3.753906-8.429688 4.839844-17.515625 3.21875-26.371094l-134.226563 31.574219c-17.109375 4.03125-29.058593 19.117187-29.058593 36.714844 0 2.242187.191406 4.503906.597656 6.722656l8.960937 49.277344c6.65625 36.652343 30.527344 68.460937 63.828125 85.121093 16.46875 8.234376 34.878906 12.566407 53.25 12.566407h47.167969c68.863281 0 124.882813-56.023438 124.882813-124.886719v-40.832031c-6.269532 3.648437-13.566407 5.738281-21.332032 5.738281-23.53125 0-42.667968-19.136719-42.667968-42.667969v-74.6875c0-23.53125 19.136718-42.664062 42.667968-42.664062s42.667969 19.132812 42.667969 42.664062v152.449219c0 80.617188-65.578125 146.21875-146.21875 146.21875zm103.550781-320c-11.753906 0-21.332031 9.578125-21.332031 21.332031v74.667969c0 11.777344 9.578125 21.332031 21.332031 21.332031s21.332032-9.554687 21.332032-21.332031v-74.667969c0-11.753906-9.554688-21.332031-21.332032-21.332031zm0 0"/><path d="m249.847656 320c-23.53125 0-42.667968-19.136719-42.667968-42.667969v-106.664062c0-23.53125 19.136718-42.667969 42.667968-42.667969s42.667969 19.136719 42.667969 42.667969v42.664062c0 5.890625-4.78125 10.667969-10.667969 10.667969 5.886719 0 10.667969 4.777344 10.667969 10.667969v42.664062c0 23.53125-19.136719 42.667969-42.667969 42.667969zm0-170.667969c-11.753906 0-21.332031 9.578125-21.332031 21.335938v106.664062c0 11.777344 9.578125 21.335938 21.332031 21.335938s21.332032-9.558594 21.332032-21.335938v-42.664062c0-5.890625 4.78125-10.667969 10.667968-10.667969-5.886718 0-10.667968-4.777344-10.667968-10.667969v-42.664062c0-11.757813-9.554688-21.335938-21.332032-21.335938zm0 0"/><path d="m68.515625 298.667969c-4.523437 0-8.746094-2.902344-10.175781-7.46875l-56.320313-178.347657c-6.015625-19.050781 1.75-39.507812 18.859375-49.769531 10.601563-6.355469 23.445313-7.828125 35.175782-4.09375 11.753906 3.753907 21.335937 12.394531 26.285156 23.699219l51.902344 116.394531 5.929687-158.570312c2.304687-23.382813 21.25-40.511719 44.097656-40.511719 24.40625 0 44.265625 19.863281 44.265625 44.265625v126.402344c0 5.886719-4.777344 10.664062-10.667968 10.664062-5.886719 0-10.664063-4.777343-10.664063-10.664062v-126.402344c-.023437-12.648437-10.285156-22.933594-22.933594-22.933594-11.839843 0-21.652343 8.875-22.828125 20.652344l-6.613281 177.28125c-.296875 7.871094-5.886719 14.398437-13.632813 15.890625-7.65625 1.472656-15.359374-2.472656-18.558593-9.664062l-59.816407-134.183594c-2.519531-5.761719-7.339843-10.09375-13.25-11.992188-5.972656-1.898437-12.394531-1.152344-17.707031 2.050782-8.617187 5.160156-12.523437 15.484374-9.515625 25.066406l56.34375 178.367187c1.769532 5.609375-1.324218 11.605469-6.957031 13.375-1.066406.320313-2.152344.492188-3.21875.492188zm0 0"/></svg>