<svg height="448pt" viewBox="0 -58 448 447" width="448pt" xmlns="http://www.w3.org/2000/svg"><path d="m437.332031 96.121094c0 17.707031-14.292969 32-32 32h-85.332031c9.386719 0 17.921875 4.054687 23.679688 10.667968 5.121093 5.546876 8.320312 13.011719 8.320312 21.332032 0 17.707031-14.292969 32-32 32h-21.332031c9.386719 0 17.917969 4.054687 23.679687 10.667968 5.117188 5.546876 8.320313 13.011719 8.320313 21.332032 0 17.707031-14.292969 32-32 32h-21.335938c9.386719 0 17.921875 4.054687 23.679688 10.667968 5.121093 5.546876 8.320312 13.011719 8.320312 21.332032 0 17.707031-14.292969 32-32 32h-130.984375c-37.546875 0-71.253906-15.144532-96-39.679688-24.535156-24.746094-39.679687-58.453125-39.679687-96 0-36.054687 14.292969-70.613281 39.679687-96l46.933594-46.933594c40.53125-40.53125 106.238281-40.53125 146.773438 0l22.613281 22.613282h138.664062c17.707031 0 32 14.292968 32 32zm0 0" fill="#ffcc80"/><path d="m277.332031 330.851562h-130.898437c-80.75 0-146.433594-65.683593-146.433594-146.429687 0-39.105469 15.230469-75.882813 42.878906-103.554687l46.914063-46.910157c44.585937-44.609375 117.160156-44.609375 161.75 0l19.539062 19.539063h134.25c23.53125 0 42.667969 19.136718 42.667969 42.667968s-19.136719 42.667969-42.667969 42.667969h-48.402343c3.644531 6.269531 5.738281 13.566407 5.738281 21.332031 0 18.582032-11.949219 34.433594-28.546875 40.277344 4.546875 6.785156 7.210937 14.953125 7.210937 23.722656 0 18.582032-11.945312 34.433594-28.542969 40.277344 4.542969 6.785156 7.210938 14.953125 7.210938 23.722656 0 23.550782-19.136719 42.6875-42.667969 42.6875zm-106.664062-308.992187c-23.832031 0-47.660157 9.066406-65.792969 27.199219l-46.914062 46.914062c-23.613282 23.617188-36.628907 55.039063-36.628907 88.449219 0 68.96875 56.109375 125.097656 125.101563 125.097656h130.898437c11.757813 0 21.335938-9.558593 21.335938-21.335937 0-11.773438-9.578125-21.332032-21.335938-21.332032-5.886719 0-10.664062-4.777343-10.664062-10.667968 0-5.886719 4.777343-10.664063 10.664062-10.664063h21.335938c11.753906 0 21.332031-9.558593 21.332031-21.335937 0-11.773438-9.578125-21.332032-21.332031-21.332032h-10.667969c-5.886719 0-10.667969-4.777343-10.667969-10.667968 0-5.886719 4.78125-10.664063 10.667969-10.664063h32c11.753906 0 21.332031-9.578125 21.332031-21.335937 0-11.753906-9.578125-21.332032-21.332031-21.332032h-53.332031c-5.890625 0-10.667969-4.777343-10.667969-10.667968 0-5.886719 4.777344-10.664063 10.667969-10.664063h138.664062c11.757813 0 21.335938-9.578125 21.335938-21.335937 0-11.753906-9.578125-21.332032-21.335938-21.332032h-224c-5.886719 0-10.664062-4.777343-10.664062-10.667968 0-5.886719 4.777343-10.664063 10.664062-10.664063h59.585938l-4.460938-4.460937c-18.132812-18.132813-41.960937-27.199219-65.789062-27.199219zm0 0"/></svg>