<svg height="512pt" viewBox="0 -21 512 512" width="512pt" xmlns="http://www.w3.org/2000/svg"><path d="m473.601562 246.703125-79.789062-87.679687c-11.734375-11.734376-30.933594-11.734376-42.664062 0-4.054688 4.054687-6.828126 8.960937-8.535157 18.988281-.214843.851562-.214843 1.492187-.214843 2.34375 0 7.683593 2.773437 15.363281 8.75 21.335937l-21.335938-21.335937c-11.734375-11.730469-30.933594-11.730469-42.664062 0-4.269532 4.269531-7.042969 9.386719-8.535157 19.203125-.214843.640625-.214843 1.492187-.214843 2.132812 0 7.679688 2.773437 15.359375 8.75 21.332032l-21.335938-21.332032c-11.734375-11.734375-30.933594-11.734375-42.664062 0-4.054688 4.050782-6.828126 8.960938-8.535157 18.984375-.214843.855469-.214843 1.496094-.214843 2.347657 0 7.679687 2.773437 15.359374 8.75 21.332031l-64-64c-11.734376-10.878907-30.296876-10.664063-41.816407.855469-5.972656 5.972656-8.746093 13.652343-8.746093 21.332031 0 7.679687 2.773437 15.359375 8.746093 21.335937l160 160-107.09375 16.851563c-18.132812 2.558593-31.570312 18.132812-31.570312 36.480469 0 11.734374 9.597656 21.332031 21.332031 21.332031h201.171875c28.375 0 55.46875-11.304688 75.308594-31.144531l33.707031-33.707032c19.839844-19.839844 31.144531-46.933594 31.144531-75.308594 0-26.453124-9.8125-52.050781-27.730469-71.679687zm0 0" fill="#ffcc80"/><path d="m365.484375 93.0625c-2.730469 0-5.464844-1.046875-7.554687-3.117188-91.496094-91.476562-240.382813-91.476562-331.882813 0-4.160156 4.160157-10.921875 4.160157-15.082031 0-4.160156-4.160156-4.160156-10.921874 0-15.082031 99.839844-99.816406 262.207031-99.816406 362.046875 0 4.160156 4.160157 4.160156 10.921875 0 15.082031-2.066407 2.070313-4.796875 3.117188-7.527344 3.117188zm0 0"/><path d="m74.667969 106.542969h-64c-5.890625 0-10.667969-4.777344-10.667969-10.664063v-64c0-5.890625 4.777344-10.667968 10.667969-10.667968 5.886719 0 10.664062 4.777343 10.664062 10.667968v53.332032h53.335938c5.886719 0 10.664062 4.777343 10.664062 10.667968 0 5.886719-4.777343 10.664063-10.664062 10.664063zm0 0"/><path d="m361.152344 469.210938h-201.152344c-17.644531 0-32-14.359376-32-32 0-23.550782 17.558594-43.777344 40.851562-47.082032l86.101563-13.546875-145.234375-145.238281c-15.894531-15.894531-15.894531-41.75 0-57.621094 16.0625-16.019531 41.875-15.980468 57.769531-.105468l37.800781 37.800781c1.859376-6.292969 5.269532-12.246094 10.21875-17.214844 14.335938-14.359375 38.144532-15.660156 53.65625-3.734375 1.832032-6.464844 5.289063-12.542969 10.34375-17.597656 14.359376-14.359375 38.167969-15.617188 53.699219-3.714844 1.789063-6.484375 5.246094-12.5625 10.300781-17.621094 15.640626-15.65625 42.390626-15.53125 57.75-.128906l80.234376 88.128906c19.671874 21.613282 30.507812 49.644532 30.507812 78.871094 0 31.316406-12.179688 60.734375-34.324219 82.878906l-33.539062 33.535156c-22.183594 22.1875-51.644531 34.390626-82.984375 34.390626zm-222.484375-286.207032c-4.972657 0-9.941407 1.898438-13.738281 5.671875-7.683594 7.703125-7.683594 20.011719-.128907 27.585938l160.0625 160.0625c2.839844 2.839843 3.839844 7.019531 2.601563 10.859375-1.257813 3.820312-4.519532 6.613281-8.488282 7.230468l-106.988281 16.8125c-12.96875 1.835938-22.65625 13.011719-22.65625 25.984376 0 5.867187 4.800781 10.667968 10.667969 10.667968h201.152344c25.640625 0 49.75-9.984375 67.902344-28.117187l33.539062-33.539063c18.089844-18.109375 28.074219-42.195312 28.074219-67.796875 0-23.914062-8.855469-46.804687-24.960938-64.511719l-79.871093-87.785156c-6.636719-6.613281-19.777344-6.976562-27.117188.363282-7.550781 7.570312-7.65625 19.625-.445312 27.21875l1.277343 1.28125c4.160157 4.160156 4.160157 10.902343.023438 15.0625-4.074219 4.09375-10.644531 4.203124-14.847657.277343 0 0 0 0-.023437 0h-.019531s-.023438.019531-.023438-.023437c0 0 0 0-.019531-.019532-.023437 0-.023437-.023437-.023437-.023437s-.019532 0-.019532-.019531c.019532 0 0 0-.023437-.023438 0 0 .195312.128906-.039063-.019531 0 0-.023437-.023437-.023437-.023437-.019531 0-.019531-.019532-.042969-.042969l-22.269531-22.3125c-7.339844-7.339844-20.121094-7.339844-27.457031 0-7.574219 7.59375-7.660157 19.734375-.386719 27.328125l22.53125 22.507812c4.160156 4.160156 4.160156 10.921875 0 15.082032-4.160157 4.160156-10.925781 4.160156-15.085938 0l-22.269531-22.25c-.128906-.109376-.234375-.234376-.363281-.363282l-20.96875-20.972656c-7.339844-7.335938-20.121094-7.335938-27.457031 0-7.554688 7.554688-7.660157 19.605469-.46875 27.222656l43.964843 43.96875c4.160157 4.160156 4.160157 10.921875 0 15.082032-4.160156 4.160156-10.921875 4.160156-15.082031 0l-43.605469-43.585938c-.167969-.167969-.363281-.339844-.511719-.511719l-62.632812-62.632812c-3.796875-3.796875-8.769531-5.695313-13.738281-5.695313zm0 0"/></svg>