<svg height="469pt" viewBox="-14 0 469 469.33333" width="469pt" xmlns="http://www.w3.org/2000/svg"><path d="m405.824219 246.828125-79.785157-87.679687c-11.734374-11.734376-30.933593-11.734376-42.667968 0-4.050782 4.050781-6.824219 8.957031-8.53125 18.984374-.214844.855469-.214844 1.492188-.214844 2.347657 0 7.679687 2.773438 15.359375 8.746094 21.332031l-21.332032-21.332031c-11.734374-11.734375-30.933593-11.734375-42.667968 0-4.265625 4.265625-7.039063 9.386719-8.53125 19.199219-.214844.640624-.214844 1.492187-.214844 2.132812 0 7.679688 2.773438 15.359375 8.746094 21.335938l-21.332032-21.335938c-11.734374-11.734375-30.933593-11.734375-42.667968 0-4.050782 4.054688-6.824219 8.960938-8.53125 18.988281-.214844.851563-.214844 1.492188-.214844 2.347657 0 7.679687 2.773438 15.359374 8.746094 21.332031l-64-64c-11.734375-10.878907-30.292969-10.667969-41.8125.851562-5.972656 5.976563-8.746094 13.65625-8.746094 21.335938 0 7.679687 2.773438 15.359375 8.746094 21.332031l160 160-107.09375 16.851562c-18.132813 2.5625-31.574219 18.136719-31.574219 36.480469 0 11.734375 9.601563 21.335938 21.335937 21.335938h201.171876c28.375 0 55.46875-11.308594 75.308593-31.148438l33.703125-33.707031c19.84375-19.839844 31.148438-46.933594 31.148438-75.304688 0-26.453124-9.8125-52.054687-27.734375-71.679687zm0 0" fill="#ffcc80"/><path d="m357.761719 93.183594c-2.730469 0-5.460938-1.046875-7.550781-3.113282-44.289063-44.332031-103.234376-68.738281-165.933594-68.738281-62.675782 0-121.597656 24.40625-165.90625 68.738281-4.160156 4.160157-10.925782 4.160157-15.085938 0-4.160156-4.160156-4.160156-10.921874 0-15.082031 48.34375-48.363281 112.621094-74.988281 180.992188-74.988281 68.394531 0 132.695312 26.625 181.015625 74.988281 4.160156 4.160157 4.160156 10.921875 0 15.082031-2.070313 2.066407-4.800781 3.113282-7.53125 3.113282zm0 0"/><path d="m365.613281 106.667969h-64c-5.890625 0-10.667969-4.78125-10.667969-10.667969s4.777344-10.667969 10.667969-10.667969h53.332031v-53.332031c0-5.886719 4.777344-10.667969 10.667969-10.667969 5.886719 0 10.664063 4.78125 10.664063 10.667969v64c0 5.886719-4.757813 10.667969-10.664063 10.667969zm0 0"/><path d="m289.453125 469.332031h-201.175781c-17.640625 0-32-14.355469-32-32 0-23.53125 17.558594-43.773437 40.855468-47.082031l86.101563-13.546875-145.238281-145.238281c-15.851563-15.890625-15.851563-41.746094 0-57.621094 15.660156-15.636719 42.390625-15.550781 57.769531-.105469l37.804687 37.804688c1.875-6.296875 5.269532-12.246094 10.238282-17.21875 14.699218-14.675781 37.695312-15.871094 53.652344-3.710938 1.835937-6.464843 5.292968-12.542969 10.347656-17.621093 14.722656-14.699219 37.761718-15.894532 53.675781-3.691407 1.8125-6.484375 5.269531-12.566406 10.324219-17.640625 16.042968-16 41.878906-16 57.75-.128906l80.214844 88.148438c19.667968 21.589843 30.503906 49.621093 30.503906 78.871093 0 31.316407-12.179688 60.757813-34.300782 82.878907l-33.558593 33.535156c-22.144531 22.164062-51.605469 34.367187-82.964844 34.367187zm-222.488281-286.207031c-5.183594 0-10.066406 2.027344-13.738282 5.675781-7.699218 7.699219-7.699218 20.03125-.148437 27.605469l160.066406 160.042969c2.835938 2.835937 3.839844 7.015625 2.601563 10.859375-1.257813 3.816406-4.523438 6.613281-8.492188 7.230468l-106.984375 16.808594c-12.949219 1.859375-22.65625 13.015625-22.65625 25.984375 0 5.867188 4.796875 10.667969 10.664063 10.667969h201.175781c25.640625 0 49.75-9.984375 67.882813-28.117188l33.554687-33.558593c18.113281-18.109375 28.054687-42.175781 28.054687-67.796875 0-23.933594-8.851562-46.824219-24.960937-64.511719l-79.851563-87.785156c-7.230468-7.191407-19.539062-7.191407-27.113281.363281-3.796875 3.796875-5.800781 8.660156-5.800781 13.84375s2.023438 10.070312 5.695312 13.738281l.917969.917969-15.085937 15.082031-22.25-22.230469c-7.570313-7.550781-19.882813-7.550781-27.453125 0-7.679688 7.703126-7.679688 20.011719-.128907 27.585938l22.25 22.25c4.160157 4.160156 4.160157 10.921875 0 15.082031-4.160156 4.160157-10.921874 4.160157-15.082031 0l-43.585937-43.582031c-7.570313-7.554688-19.882813-7.554688-27.453125 0-7.679688 7.699219-7.679688 20.007812-.128907 27.582031l43.582032 43.585938c4.160156 4.160156 4.160156 10.921875 0 15.082031s-10.921875 4.160156-15.082032 0l-106.730468-106.710938c-3.667969-3.667968-8.53125-5.695312-13.71875-5.695312zm0 0"/></svg>