<svg height="512pt" viewBox="-16 0 512 512" width="512pt" xmlns="http://www.w3.org/2000/svg"><path d="m229.011719 504.234375c-34.132813 0-66.984375-13.441406-91.09375-37.546875l-37.757813-37.757812c-19.839844-20.054688-31.148437-47.148438-31.148437-75.523438 0-27.304688-4.050781-54.398438-11.945313-80.425781l-50.558594-165.546875c-.855468-2.34375-1.28125-4.90625-1.28125-7.253906 0-8.746094 5.332032-16.851563 14.078126-20.050782 23.042968-8.320312 48.640624 1.492188 60.160156 23.039063l64.429687 113.066406 186.453125-186.667969c7.25-7.464844 17.066406-11.089844 26.664063-11.089844 9.601562 0 19.414062 3.625 26.667969 11.089844 13.652343 13.65625 14.71875 35.414063-5.546876 58.882813-.425781.210937-.851562.425781-.851562.851562-.640625.425781-1.070312 1.066407-1.496094 1.492188l-66.558594 66.5625c7.253907-7.039063 16.425782-10.453125 25.8125-10.667969h.425782c9.601562 0 19.203125 3.839844 26.667968 11.09375 14.507813 14.507812 14.71875 37.972656.640626 52.695312l-20.90625 20.90625-5.761719 5.757813-.425781.425781.425781-.210937c7.039062-7.039063 16.425781-10.453125 25.601562-10.667969h.425781c9.601563 0 19.414063 3.628906 26.667969 11.09375 14.71875 14.71875 14.71875 38.613281 0 53.332031l-20.695312 20.695313.640625-.425782c6.828125-6.613281 16-9.816406 24.960937-10.027343h.425781c9.601563 0 19.414063 3.625 26.667969 11.09375 14.71875 14.71875 14.71875 38.613281 0 53.332031l-100.695312 100.90625c-24.105469 24.105469-56.960938 37.546875-91.09375 37.546875zm0 0" fill="#ffcc80"/><path d="m469.289062 138.667969h-64c-5.886718 0-10.664062-4.78125-10.664062-10.667969s4.777344-10.667969 10.664062-10.667969h53.335938v-53.332031c0-5.886719 4.777344-10.667969 10.664062-10.667969 5.890626 0 10.667969 4.78125 10.667969 10.667969v64c0 5.886719-4.777343 10.667969-10.667969 10.667969zm0 0"/><path d="m74.625 64c-2.859375 0-5.71875-1.152344-7.808594-3.414062-4.03125-4.308594-3.777344-11.050782.53125-15.0625 32.511719-30.207032 85.207032-45.523438 156.585938-45.523438 26.519531 0 52.714844 3.390625 77.847656 10.089844 5.695312 1.515625 9.085938 7.359375 7.574219 13.058594-1.515625 5.714843-7.402344 9.066406-13.058594 7.570312-23.359375-6.226562-47.699219-9.363281-72.382813-9.363281-65.835937 0-113.644531 13.398437-142.078124 39.808593-2.007813 1.898438-4.609376 2.835938-7.210938 2.835938zm0 0"/><path d="m469.289062 138.667969c-3.476562 0-6.867187-1.6875-8.917968-4.800781-.125-.191407-13.394532-20.117188-38.804688-43.628907-4.328125-4.007812-4.585937-10.75-.597656-15.082031 4.011719-4.371094 10.730469-4.605469 15.085938-.597656 27.476562 25.410156 41.578124 46.679687 42.152343 47.574218 3.222657 4.90625 1.855469 11.519532-3.050781 14.761719-1.835938 1.195313-3.859375 1.773438-5.867188 1.773438zm0 0"/><path d="m234.429688 512c-37.246094 0-72.253907-14.507812-98.601563-40.832031l-37.714844-37.71875c-22.167969-22.164063-34.371093-51.648438-34.371093-82.984375 0-26.21875-3.882813-52.246094-11.539063-77.398438l-50.367187-165.226562c-2.796876-7.9375-2.390626-16.511719 1.171874-24.171875 3.605469-7.742188 10.027344-13.609375 18.070313-16.53125 27.773437-10.132813 59.304687 1.917969 73.257813 28.011719l57.214843 100.648437 176.683594-176.683594c18.238281-18.261719 50.15625-18.261719 68.414063 0 15.765624 15.789063 22.445312 45.953125-10.664063 79.085938l-35.820313 35.816406c9.386719 1.8125 18.046876 6.378906 24.9375 13.292969 9.132813 9.128906 14.1875 21.289062 14.1875 34.214844 0 12.121093-4.4375 23.574218-12.523437 32.492187 9.429687 1.792969 18.09375 6.359375 25.027344 13.3125 16.597656 16.597656 18.601562 42.367187 5.949219 61.164063 9.816406 1.664062 18.859374 6.3125 26.050781 13.503906 18.855469 18.855468 18.855469 49.554687 0 68.414062l-100.757813 100.777344c-26.367187 26.304688-61.378906 40.8125-98.605468 40.8125zm-193.042969-427.113281c-4.351563 0-8.746094.746093-13.015625 2.28125-2.6875.980469-4.820313 2.945312-6.035156 5.523437-1.195313 2.582032-1.324219 5.484375-.34375 8.152344.066406.167969.128906.363281.171874.53125l50.453126 165.484375c8.277343 27.179687 12.460937 55.296875 12.460937 83.605469 0 25.640625 9.984375 49.75 28.117187 67.902344l37.714844 37.71875c22.292969 22.292968 51.96875 34.582031 83.519532 34.582031 31.554687 0 61.207031-12.289063 83.5-34.582031l100.757812-100.777344c10.539062-10.539063 10.539062-27.714844 0-38.253906-10.089844-10.089844-27.605469-10.261719-37.886719-.363282l-10.839843 10.839844c-4.160157 4.160156-10.921876 4.160156-15.082032 0s-4.160156-10.921875 0-15.082031l10.476563-10.476563c.148437-.171875.320312-.320312.46875-.46875l20.863281-20.863281c10.539062-10.539063 10.539062-27.710937 0-38.25-10.132812-10.113281-27.734375-10.242187-37.929688-.300781l-32.109374 32.109375c-4.160157 4.15625-10.921876 4.15625-15.082032 0-4.160156-4.160157-4.160156-10.925781 0-15.085938l31.808594-31.804687c.128906-.128906.277344-.277344.40625-.40625l26.261719-26.261719c10.539062-10.539063 10.539062-27.710937 0-38.25-10.070313-10.070313-27.5625-10.242187-37.78125-.449219l-58.921875 58.921875c-4.160156 4.160157-10.925782 4.160157-15.085938 0-4.160156-4.160156-4.160156-10.921875 0-15.082031l58.476563-58.472656c.191406-.195313.40625-.40625.617187-.597656l63.574219-63.574219c18.644531-18.667969 22.636719-36.929688 10.667969-48.917969-10.242188-10.21875-28.054688-10.199219-38.25 0l-186.582032 186.582031c-2.347656 2.347657-5.71875 3.496094-8.960937 3.027344-3.308594-.445313-6.207031-2.410156-7.851563-5.3125l-64.253906-113.066406c-6.976562-12.992188-20.394531-20.5625-34.304687-20.5625zm0 0"/></svg>