<svg height="511pt" viewBox="-57 0 511 511.17867" width="511pt" xmlns="http://www.w3.org/2000/svg"><path d="m385.875 276.511719v117.332031c0 58.882812-47.785156 106.667969-106.664062 106.667969h-49.921876c-22.613281 0-44.375-8.960938-60.375-24.960938l-151.890624-151.890625c-8.320313-8.320312-8.320313-21.976562 0-30.292968 15.785156-15.789063 40.746093-17.496094 58.664062-4.054688l54.1875 40.53125v-202.664062c0-17.707032 14.292969-32 32-32s32 14.292968 32 32v106.664062c0-9.386719 4.054688-17.917969 10.667969-23.679688 5.546875-5.117187 13.011719-8.320312 21.332031-8.320312 17.496094 0 31.574219 13.867188 32 31.363281v21.972657c0-9.386719 4.054688-17.921876 10.667969-23.679688 5.546875-5.121094 13.011719-8.320312 21.332031-8.320312 17.496094 0 31.574219 13.867187 32 31.359374v21.972657c0-9.386719 4.054688-17.917969 10.667969-23.679688 5.546875-5.121093 13.011719-8.320312 21.332031-8.320312 17.707031 0 32 14.292969 32 32zm0 0" fill="#ffcc80"/><path d="m238.804688 98.675781c-4.929688 0-9.386719-3.476562-10.410157-8.511719-1.195312-5.78125 2.515625-11.410156 8.296875-12.585937 40.214844-8.277344 53.226563-20.4375 53.226563-25.042969 0-11.289062-48.597657-32-128-32-79.402344 0-128 20.710938-128 32 0 4.605469 13.015625 16.789063 53.226562 25.042969 5.78125 1.195313 9.472657 6.828125 8.300781 12.585937-1.195312 5.804688-6.914062 9.472657-12.589843 8.300782-45.308594-9.324219-70.269531-25.644532-70.269531-45.953125 0-70.015625 298.667968-70.015625 298.667968 0 0 20.308593-24.960937 36.628906-70.273437 45.953125-.726563.148437-1.429688.210937-2.175781.210937zm0 0"/><path d="m55.253906 127.179688c-2.816406 0-5.613281-1.109376-7.703125-3.285157-4.074219-4.269531-3.925781-11.007812.320313-15.082031l25.34375-24.277344-6.996094-29.570312c-1.367188-5.71875 2.175781-11.476563 7.914062-12.820313 5.757813-1.386719 11.457032 2.175781 12.84375 7.914063l8.425782 35.5c.875 3.667968-.277344 7.550781-3.007813 10.152344l-29.761719 28.503906c-2.070312 1.984375-4.734374 2.964844-7.378906 2.964844zm0 0"/><path d="m279.253906 511.179688h-49.984375c-25.644531 0-49.773437-9.984376-67.90625-28.117188l-151.914062-151.914062c-12.480469-12.480469-12.480469-32.769532 0-45.25 19.457031-19.433594 50.6875-21.695313 72.726562-5.183594l37.078125 27.796875v-181.332031c0-23.53125 19.132813-42.667969 42.664063-42.667969s42.667969 19.136719 42.667969 42.667969v69.738281c6.269531-3.648438 13.566406-5.738281 21.332031-5.738281 18.582031 0 34.433593 11.945312 40.277343 28.542968 6.785157-4.542968 14.957032-7.210937 23.722657-7.210937 18.582031 0 34.433593 11.945312 40.277343 28.542969 6.785157-4.542969 14.957032-7.210938 23.722657-7.210938 23.53125 0 42.667969 19.136719 42.667969 42.667969v117.332031c0 64.683594-52.652344 117.335938-117.332032 117.335938zm-230.402344-220.203126c-8.875 0-17.707031 3.390626-24.320312 10.003907-4.160156 4.160156-4.160156 10.921875 0 15.082031l151.914062 151.917969c14.125 14.097656 32.875 21.863281 52.824219 21.863281h49.984375c52.925782 0 96-43.070312 96-96v-117.332031c0-11.753907-9.558594-21.332031-21.335937-21.332031-11.773438 0-21.332031 9.578124-21.332031 21.332031v10.667969c0 5.886718-4.777344 10.664062-10.667969 10.664062-5.886719 0-10.664063-4.777344-10.664063-10.664062v-32c0-11.753907-9.558594-21.335938-21.335937-21.335938-11.773438 0-21.332031 9.582031-21.332031 21.335938v32c0 5.886718-4.777344 10.664062-10.667969 10.664062-5.886719 0-10.664063-4.777344-10.664063-10.664062v-53.335938c0-11.753906-9.558594-21.332031-21.335937-21.332031-11.773438 0-21.332031 9.578125-21.332031 21.332031v53.335938c0 5.886718-4.777344 10.664062-10.667969 10.664062-5.886719 0-10.664063-4.777344-10.664063-10.664062v-160c0-11.753907-9.558594-21.335938-21.335937-21.335938-11.773438 0-21.332031 9.582031-21.332031 21.335938v202.664062c0 4.035156-2.285157 7.722656-5.886719 9.539062-3.605469 1.8125-7.9375 1.40625-11.179688-1.003906l-54.125-40.597656c-6.078125-4.566406-13.332031-6.804688-20.542969-6.804688zm0 0"/></svg>