<svg height="512pt" viewBox="-43 0 512 512" width="512pt" xmlns="http://www.w3.org/2000/svg"><path d="m160.003906 330.667969-54.121094-40.597657c-17.898437-13.441406-42.964843-11.648437-58.792968 4.179688-8.34375 8.34375-8.34375 21.847656 0 30.164062l151.914062 151.917969c16 16 37.714844 25 60.328125 25h50.007813c58.898437 0 106.664062-47.765625 106.664062-106.664062v-117.335938c0-17.664062-14.335937-32-32-32-17.664062 0-32 14.335938-32 32v10.667969-32c0-17.664062-14.335937-32-32-32-17.664062 0-32 14.335938-32 32v32-181.332031c0-17.664063-14.335937-32-32-32-17.664062 0-32 14.335937-32 32v181.332031-160c0-17.664062-14.335937-32-32-32-17.664062 0-32 14.335938-32 32zm0 0" fill="#ffcc80"/><path d="m53.339844 192c-5.890625 0-10.667969-4.777344-10.667969-10.667969v-170.664062c0-5.890625 4.777344-10.667969 10.667969-10.667969 5.886718 0 10.664062 4.777344 10.664062 10.667969v170.664062c0 5.890625-4.777344 10.667969-10.664062 10.667969zm0 0"/><path d="m53.339844 192c-2.730469 0-5.460938-1.046875-7.554688-3.113281l-42.664062-42.667969c-4.160156-4.160156-4.160156-10.921875 0-15.082031 4.160156-4.160157 10.921875-4.160157 15.082031 0l35.136719 35.113281 35.113281-35.113281c4.160156-4.160157 10.921875-4.160157 15.082031 0 4.160156 4.160156 4.160156 10.921875 0 15.082031l-42.664062 42.667969c-2.070313 2.066406-4.800782 3.113281-7.53125 3.113281zm0 0"/><path d="m309.339844 512h-49.984375c-25.644531 0-49.769531-9.984375-67.90625-28.117188l-151.914063-151.914062c-12.480468-12.480469-12.480468-32.769531 0-45.25 19.433594-19.433594 50.710938-21.695312 72.726563-5.183594l37.078125 27.796875v-181.332031c0-23.53125 19.136718-42.667969 42.664062-42.667969 8.769532 0 16.941406 2.667969 23.722656 7.210938 5.847657-16.597657 21.699219-28.542969 40.277344-28.542969 23.53125 0 42.667969 19.136719 42.667969 42.667969v112.402343c6.273437-3.644531 13.566406-5.738281 21.332031-5.738281 18.582032 0 34.433594 11.949219 40.277344 28.546875 6.785156-4.546875 14.957031-7.210937 23.722656-7.210937 23.53125 0 42.667969 19.132812 42.667969 42.664062v117.335938c0 64.679687-52.652344 117.332031-117.332031 117.332031zm-230.402344-220.203125c-8.875 0-17.707031 3.390625-24.320312 10.003906-4.160157 4.160157-4.160157 10.925781 0 15.085938l151.917968 151.914062c14.121094 14.101563 32.871094 21.867188 52.820313 21.867188h49.984375c52.925781 0 96-43.074219 96-96v-117.335938c0-11.753906-9.558594-21.332031-21.335938-21.332031-11.773437 0-21.332031 9.578125-21.332031 21.332031v10.667969c0 5.886719-4.777344 10.667969-10.667969 10.667969-5.886718 0-10.664062-4.78125-10.664062-10.667969v-32c0-11.753906-9.558594-21.332031-21.335938-21.332031-11.773437 0-21.332031 9.578125-21.332031 21.332031v32c0 5.886719-4.777344 10.667969-10.667969 10.667969-5.886718 0-10.664062-4.78125-10.664062-10.667969v-181.332031c0-11.757813-9.558594-21.335938-21.335938-21.335938-11.773437 0-21.332031 9.578125-21.332031 21.335938v181.332031c0 5.886719-4.777344 10.667969-10.667969 10.667969-5.886718 0-10.664062-4.78125-10.664062-10.667969v-160c0-11.753906-9.558594-21.332031-21.335938-21.332031-11.773437 0-21.332031 9.578125-21.332031 21.332031v202.667969c0 4.03125-2.28125 7.722656-5.886719 9.535156-3.605468 1.8125-7.9375 1.40625-11.179687-1.003906l-54.121094-40.597657c-6.082031-4.5625-13.335937-6.804687-20.546875-6.804687zm0 0"/></svg>