<svg height="512pt" viewBox="-42 0 511 512" width="512pt" xmlns="http://www.w3.org/2000/svg"><path d="m160.484375 330.667969-54.121094-40.597657c-17.902343-13.441406-42.96875-11.648437-58.796875 4.179688-8.339844 8.34375-8.339844 21.847656 0 30.164062l151.914063 151.917969c16 16 37.71875 25 60.332031 25h50.003906c58.902344 0 106.667969-47.765625 106.667969-106.664062v-117.335938c0-17.664062-14.335937-32-32-32s-32 14.335938-32 32v10.667969-32c0-17.664062-14.335937-32-32-32s-32 14.335938-32 32v32-181.332031c0-17.664063-14.335937-32-32-32s-32 14.335937-32 32v181.332031-160c0-17.664062-14.335937-32-32-32s-32 14.335938-32 32zm0 0" fill="#ffcc80"/><path d="m53.816406 192c-5.886718 0-10.664062-4.777344-10.664062-10.667969v-170.664062c0-5.890625 4.777344-10.667969 10.664062-10.667969 5.890625 0 10.667969 4.777344 10.667969 10.667969v170.664062c0 5.890625-4.777344 10.667969-10.667969 10.667969zm0 0"/><path d="m96.484375 64c-2.730469 0-5.460937-1.046875-7.550781-3.113281l-35.117188-35.136719-35.113281 35.136719c-4.160156 4.160156-10.921875 4.160156-15.082031 0-4.160156-4.160157-4.160156-10.925781 0-15.085938l42.664062-42.664062c4.160156-4.160157 10.925782-4.160157 15.085938 0l42.664062 42.664062c4.160156 4.160157 4.160156 10.925781 0 15.085938-2.089844 2.066406-4.820312 3.113281-7.550781 3.113281zm0 0"/><path d="m309.816406 512h-49.984375c-25.640625 0-49.769531-9.984375-67.902343-28.117188l-151.914063-151.914062c-12.480469-12.480469-12.480469-32.769531 0-45.25 19.453125-19.433594 50.6875-21.695312 72.722656-5.183594l37.078125 27.796875v-181.332031c0-23.53125 19.136719-42.667969 42.667969-42.667969 8.769531 0 16.9375 2.667969 23.722656 7.210938 5.84375-16.597657 21.695313-28.542969 40.277344-28.542969 23.53125 0 42.667969 19.136719 42.667969 42.667969v112.402343c6.269531-3.644531 13.566406-5.738281 21.332031-5.738281 18.582031 0 34.429687 11.949219 40.277344 28.546875 6.785156-4.546875 14.953125-7.210937 23.722656-7.210937 23.53125 0 42.667969 19.132812 42.667969 42.664062v117.335938c0 64.679687-52.652344 117.332031-117.335938 117.332031zm-230.398437-220.203125c-8.875 0-17.707031 3.390625-24.320313 10.003906-4.160156 4.160157-4.160156 10.925781 0 15.085938l151.914063 151.914062c14.121093 14.101563 32.875 21.867188 52.820312 21.867188h49.984375c52.929688 0 96-43.074219 96-96v-117.335938c0-11.753906-9.554687-21.332031-21.332031-21.332031s-21.332031 9.578125-21.332031 21.332031v10.667969c0 5.886719-4.78125 10.667969-10.667969 10.667969s-10.667969-4.78125-10.667969-10.667969v-32c0-11.753906-9.554687-21.332031-21.332031-21.332031s-21.332031 9.578125-21.332031 21.332031v32c0 5.886719-4.78125 10.667969-10.667969 10.667969s-10.667969-4.78125-10.667969-10.667969v-181.332031c0-11.757813-9.554687-21.335938-21.332031-21.335938s-21.332031 9.578125-21.332031 21.335938v181.332031c0 5.886719-4.78125 10.667969-10.667969 10.667969s-10.667969-4.78125-10.667969-10.667969v-160c0-11.753906-9.554687-21.332031-21.332031-21.332031s-21.332031 9.578125-21.332031 21.332031v202.667969c0 4.03125-2.285156 7.722656-5.890625 9.535156s-7.957031 1.40625-11.175781-1.003906l-54.125-40.597657c-6.078126-4.5625-13.332032-6.804687-20.542969-6.804687zm0 0"/></svg>