<svg height="511.89333pt" viewBox="0 0 511.89333 511.89333" width="511.89333pt" xmlns="http://www.w3.org/2000/svg"><path d="m440.511719 220.714844 33.066406-33.066406c19.839844-19.839844 30.933594-46.507813 30.933594-74.667969 0-58.238281-47.359375-105.597657-105.601563-105.597657h-117.542968c-6.402344 0-11.523438 5.332032-11.523438 11.519532 0 17.277344 13.867188 31.144531 31.148438 31.144531h54.1875l-99.839844 99.839844c-4.269532 4.269531-6.613282 10.242187-6.613282 16 0 5.761719 2.34375 11.734375 6.613282 16 8.746094 8.746093 23.253906 8.746093 32 0l41.171875-41.171875c-4.480469 4.480468-6.613281 10.238281-6.613281 16 0 1.707031.214843 3.414062.640624 5.121094 4.90625 9.597656 5.332032 10.238281 5.972657 10.878906 8.746093 8.960937 23.039062 8.960937 32 0l4.695312-4.480469c-4.054687 4.265625-6.1875 9.8125-6.1875 15.148437 0 1.707032.210938 3.625.640625 5.332032 5.546875 10.027344 5.972656 10.453125 6.183594 10.667968 8.75 8.957032 23.042969 8.957032 32 0l10.667969-10.667968c-4.480469 4.480468-6.828125 10.238281-6.828125 16 0 1.707031.214844 3.625.640625 5.332031 1.066406 4.054687 3.199219 7.679687 6.1875 10.667969 8.746093 8.9375 23.039062 8.9375 32 0zm0 0" fill="#ffcc80"/><path d="m223.9375 437.289062-33.066406 33.066407c-19.839844 19.84375-46.507813 30.933593-74.667969 30.933593-58.242187 0-105.601563-47.359374-105.601563-105.597656v-117.546875c0-6.402343 5.335938-11.519531 11.519532-11.519531 17.28125 0 31.148437 13.867188 31.148437 31.144531v54.1875l99.839844-99.839843c4.265625-4.265626 10.238281-6.613282 16-6.613282s11.734375 2.347656 16 6.613282c8.746094 8.746093 8.746094 23.253906 0 32l-41.171875 41.171874c4.476562-4.476562 10.238281-6.613281 16-6.613281 1.707031 0 3.410156.214844 5.117188.640625 9.601562 4.90625 10.242187 5.335938 10.882812 5.972656 8.957031 8.75 8.957031 23.042969 0 32l-4.480469 4.695313c4.265625-4.054687 9.8125-6.1875 15.144531-6.1875 1.707032 0 3.628907.214844 5.335938.640625 10.023438 5.546875 10.453125 5.972656 10.664062 6.1875 8.960938 8.746094 8.960938 23.039062 0 32l-10.664062 10.664062c4.476562-4.476562 10.238281-6.824218 16-6.824218 1.707031 0 3.625.210937 5.332031.640625 4.054688 1.066406 7.679688 3.199219 10.667969 6.183593 8.957031 8.75 8.957031 23.042969 0 32zm0 0" fill="#ffcc80"/><path d="m421.207031 241.28125c-8.515625 0-17.046875-3.222656-23.554687-9.730469-3.902344-3.902343-6.613282-8.511719-8.167969-13.4375-11.628906 4.03125-25.175781 1.40625-34.496094-7.894531-4.886719-4.886719-7.9375-10.945312-9.152343-17.257812-10.007813 1.363281-20.503907-1.75-28.183594-9.410157-2.984375-2.984375-5.269532-6.378906-6.890625-10.027343l-19.113281 19.117187c-12.566407 12.585937-34.519532 12.585937-47.082032 0-12.972656-12.972656-12.972656-34.113281 0-47.082031l81.554688-81.558594h-28.457032c-23.039062 0-41.769531-18.730469-41.769531-41.769531 0-12.246094 9.960938-22.230469 22.226563-22.230469h117.503906c64.109375 0 116.269531 52.160156 116.269531 116.265625 0 31.042969-12.097656 60.226563-34.050781 82.21875l-33.066406 33.066406c-6.527344 6.488281-15.058594 9.730469-23.570313 9.730469zm-5.335937-49.261719c0 2.734375-1.042969 5.464844-3.113282 7.554688-4.671874 4.671875-4.671874 12.246093 0 16.917969 4.671876 4.671874 12.246094 4.671874 16.917969 0l33.066407-33.066407c17.917968-17.941406 27.796874-41.773437 27.796874-67.117187 0-52.351563-42.582031-94.933594-94.933593-94.933594h-117.503907c-.492187 0-.894531.425781-.894531.898438 0 11.261718 9.171875 20.4375 20.4375 20.4375h54.226563c4.308594 0 8.214844 2.601562 9.855468 6.589843 1.664063 3.988281.75 8.578125-2.300781 11.628907l-99.757812 99.773437c-4.671875 4.671875-4.671875 12.246094 0 16.917969 4.523437 4.5 12.394531 4.5 16.917969 0l40.789062-40.789063c.085938-.105469.191406-.214843.300781-.320312l26.664063-26.667969c4.160156-4.160156 10.925781-4.160156 15.085937 0 4.160157 4.160156 4.160157 10.925781 0 15.085938l-26.859375 26.855468c-2.132812 2.21875-3.308594 5.164063-3.308594 8.277344 0 3.179688 1.238282 6.210938 3.5 8.449219 4.671876 4.671875 12.246094 4.671875 16.917969 0l16-16c4.160157-4.160157 10.921875-4.160157 15.082031 0 2.089844 2.089843 3.113282 4.820312 3.113282 7.550781s-1.042969 5.460938-3.113282 7.554688l-10.667968 10.664062c-2.261719 2.242188-3.496094 5.269531-3.496094 8.449219 0 3.179687 1.234375 6.207031 3.496094 8.449219 4.671875 4.671874 12.246094 4.671874 16.917968 0l10.667969-10.667969c4.160157-4.160157 10.921875-4.160157 15.082031 0 2.070313 2.046875 3.113282 4.777343 3.113282 7.507812zm0 0"/><path d="m116.265625 511.894531c-64.105469 0-116.265625-52.160156-116.265625-116.269531v-117.523438c0-12.246093 9.960938-22.207031 22.230469-22.207031 23.039062 0 41.769531 18.730469 41.769531 41.769531v28.480469l81.558594-81.558593c12.992187-12.992188 34.109375-12.96875 47.082031 0 12.96875 12.972656 12.96875 34.113281 0 47.082031l-19.117187 19.117187c3.628906 1.621094 7.042968 3.925782 10.027343 6.890625 6.292969 6.292969 9.75 14.65625 9.75 23.550781 0 1.558594-.105469 3.113282-.320312 4.671876 6.316406 1.214843 12.351562 4.246093 17.238281 9.132812 9.324219 9.320312 11.945312 22.804688 7.894531 34.492188 4.90625 1.539062 9.535157 4.269531 13.4375 8.171874 12.972657 12.972657 12.972657 34.113282 0 47.082032l-33.066406 33.066406c-21.949219 21.953125-51.15625 34.050781-82.21875 34.050781zm-94.035156-234.667969-.898438.875v117.523438c0 52.355469 42.582031 94.933594 94.933594 94.933594 25.367187 0 49.195313-9.875 67.117187-27.816406l33.066407-33.066407c4.671875-4.671875 4.671875-12.246093 0-16.917969-4.671875-4.671874-12.246094-4.671874-16.917969 0-4.160156 4.160157-10.921875 4.160157-15.082031 0-2.09375-2.089843-3.117188-4.820312-3.117188-7.550781s1.046875-5.464843 3.117188-7.554687l10.664062-10.664063c4.671875-4.671875 4.671875-12.246093 0-16.917969-4.671875-4.671874-12.242187-4.671874-16.914062 0l-10.667969 10.664063c-4.160156 4.160156-10.921875 4.160156-15.082031 0-2.09375-2.089844-3.117188-4.820313-3.117188-7.550781 0-2.730469 1.046875-5.460938 3.117188-7.550782l16-16c2.261719-2.242187 3.496093-5.269531 3.496093-8.449218 0-3.179688-1.214843-6.164063-3.476562-8.40625-4.671875-4.671875-12.246094-4.671875-16.917969 0l-26.664062 26.667968c-4.160157 4.160157-10.925781 4.160157-15.085938 0-4.15625-4.160156-4.15625-10.921874 0-15.082031l67.757813-67.777343c2.261718-2.261719 3.496094-5.269532 3.496094-8.46875 0-3.199219-1.234376-6.207032-3.496094-8.449219-4.671875-4.671875-12.246094-4.671875-16.917969 0l-99.753906 99.777343c-3.074219 3.070313-7.640625 3.96875-11.628907 2.304688-3.988281-1.664062-6.589843-5.546875-6.589843-9.855469v-54.230469c0-11.265624-9.175781-20.4375-20.4375-20.4375zm0 0"/><path d="m149.484375 192.019531c-23.53125 0-42.667969-19.132812-42.667969-42.664062s19.136719-42.667969 42.667969-42.667969c23.527344 0 42.664063 19.136719 42.664063 42.667969s-19.136719 42.664062-42.664063 42.664062zm0-64c-11.757813 0-21.335937 9.558594-21.335937 21.335938 0 11.773437 9.578124 21.332031 21.335937 21.332031 11.753906 0 21.332031-9.558594 21.332031-21.332031 0-11.777344-9.578125-21.335938-21.332031-21.335938zm0 0"/><path d="m117.484375 234.6875h-42.667969c-5.886718 0-10.667968-4.777344-10.667968-10.667969v-42.664062c0-5.890625 4.78125-10.667969 10.667968-10.667969 5.886719 0 10.667969 4.777344 10.667969 10.667969v32h32c5.886719 0 10.664063 4.777343 10.664063 10.664062 0 5.890625-4.777344 10.667969-10.664063 10.667969zm0 0"/><path d="m224.148438 128.019531c-5.886719 0-10.664063-4.777343-10.664063-10.664062v-32h-32c-5.890625 0-10.667969-4.78125-10.667969-10.667969s4.777344-10.667969 10.667969-10.667969h42.664063c5.890624 0 10.667968 4.78125 10.667968 10.667969v42.667969c0 5.886719-4.777344 10.664062-10.667968 10.664062zm0 0"/><path d="m74.816406 234.6875c-2.730468 0-5.460937-1.042969-7.550781-3.113281-4.160156-4.160157-4.160156-10.921875 0-15.082031l52.050781-52.054688c4.160156-4.160156 10.921875-4.160156 15.082032 0 4.160156 4.160156 4.160156 10.921875 0 15.082031l-52.050782 52.054688c-2.070312 2.070312-4.800781 3.113281-7.53125 3.113281zm0 0"/><path d="m172.097656 137.40625c-2.730468 0-5.464844-1.042969-7.554687-3.113281-4.160157-4.160157-4.160157-10.921875 0-15.082031l52.054687-52.054688c4.160156-4.160156 10.921875-4.160156 15.082032 0 4.160156 4.160156 4.160156 10.921875 0 15.082031l-52.054688 52.054688c-2.066406 2.089843-4.796875 3.113281-7.527344 3.113281zm0 0"/></svg>