<svg height="511pt" viewBox="-10 0 511 511.984" width="511pt" xmlns="http://www.w3.org/2000/svg"><path d="m181.832031 330.652344-54.125-40.597656c-17.898437-13.441407-42.964843-11.648438-58.792969 4.179687-8.320312 8.339844-8.320312 21.84375 0 30.164063l151.914063 151.917968c16 16 37.71875 25 60.332031 25h50.003906c58.902344 0 106.667969-47.765625 106.667969-106.664062v-117.335938c0-17.664062-14.335937-32-32-32-17.664062 0-32 14.335938-32 32v10.667969-32c0-17.664063-14.335937-32-32-32-17.664062 0-32 14.335937-32 32v32-181.332031c0-17.664063-14.335937-32-32-32-17.664062 0-32 14.335937-32 32v181.332031-160c0-17.664063-14.335937-32-32-32-17.664062 0-32 14.335937-32 32zm0 0" fill="#ffcc80"/><path d="m53.832031 106.652344c-2.730469 0-5.460937-1.046875-7.554687-3.117188l-42.664063-42.664062c-4.160156-4.160156-4.160156-10.925782 0-15.085938l42.664063-42.664062c4.160156-4.160156 10.925781-4.160156 15.085937 0 4.15625 4.160156 4.15625 10.921875 0 15.082031l-35.117187 35.113281 35.117187 35.117188c4.15625 4.160156 4.15625 10.921875 0 15.082031-2.070312 2.089844-4.800781 3.136719-7.53125 3.136719zm0 0"/><path d="m437.832031 106.652344c-2.730469 0-5.460937-1.046875-7.554687-3.117188-4.160156-4.160156-4.160156-10.921875 0-15.082031l35.136718-35.136719-35.113281-35.113281c-4.160156-4.160156-4.160156-10.921875 0-15.082031 4.160157-4.160156 10.921875-4.160156 15.082031 0l42.667969 42.664062c4.160157 4.160156 4.160157 10.925782 0 15.085938l-42.667969 42.664062c-2.089843 2.070313-4.820312 3.117188-7.550781 3.117188zm0 0"/><path d="m480.496094 63.984375h-128c-5.886719 0-10.664063-4.777344-10.664063-10.667969 0-5.886718 4.777344-10.664062 10.664063-10.664062h128c5.890625 0 10.667968 4.777344 10.667968 10.664062 0 5.890625-4.777343 10.667969-10.667968 10.667969zm0 0"/><path d="m139.164062 63.984375h-128c-5.886718 0-10.667968-4.777344-10.667968-10.667969 0-5.886718 4.78125-10.664062 10.667968-10.664062h128c5.886719 0 10.667969 4.777344 10.667969 10.664062 0 5.890625-4.78125 10.667969-10.667969 10.667969zm0 0"/><path d="m331.164062 511.984375h-49.984374c-25.257813 0-50.003907-10.242187-67.882813-28.117187l-151.933594-151.914063c-12.480469-12.480469-12.480469-32.769531 0-45.25 19.453125-19.433594 50.730469-21.671875 72.722657-5.183594l37.078124 27.796875v-181.332031c0-23.53125 19.136719-42.667969 42.667969-42.667969 8.789063 0 16.9375 2.667969 23.722657 7.234375 5.84375-16.621093 21.695312-28.566406 40.277343-28.566406 23.53125 0 42.664063 19.136719 42.664063 42.667969v112.402344c6.273437-3.648438 13.570312-5.738282 21.335937-5.738282 18.578125 0 34.429688 11.949219 40.277344 28.566406 6.78125-4.566406 14.953125-7.230468 23.722656-7.230468 23.53125 0 42.664063 19.132812 42.664063 42.664062v117.335938c0 64.679687-52.628906 117.332031-117.332032 117.332031zm-230.398437-220.203125c-8.875 0-17.707031 3.390625-24.320313 10.003906-4.160156 4.160156-4.160156 10.925782 0 15.085938l151.933594 151.914062c13.910156 13.886719 33.152344 21.867188 52.800782 21.867188h49.984374c52.929688 0 96-43.074219 96-96v-117.335938c0-11.773437-9.578124-21.332031-21.332031-21.332031-11.757812 0-21.335937 9.558594-21.335937 21.332031v10.667969c0 5.886719-4.777344 10.667969-10.664063 10.667969-5.890625 0-10.667969-4.78125-10.667969-10.667969v-32c0-11.777344-9.578124-21.332031-21.332031-21.332031-11.757812 0-21.335937 9.554687-21.335937 21.332031v32c0 5.886719-4.777344 10.667969-10.664063 10.667969-5.890625 0-10.667969-4.78125-10.667969-10.667969v-181.332031c0-11.777344-9.578124-21.335938-21.332031-21.335938-11.757812 0-21.335937 9.558594-21.335937 21.335938v181.332031c0 5.886719-4.777344 10.667969-10.664063 10.667969-5.890625 0-10.667969-4.78125-10.667969-10.667969v-160c0-11.777344-9.578124-21.332031-21.332031-21.332031-11.757812 0-21.335937 9.554687-21.335937 21.332031v202.667969c0 4.03125-2.28125 7.722656-5.886719 9.535156s-7.957031 1.40625-11.179687-1.003906l-54.121094-40.597656c-6.101563-4.566407-13.332032-6.804688-20.542969-6.804688zm0 0"/></svg>