<svg height="512pt" viewBox="0 0 512 512" width="512pt" xmlns="http://www.w3.org/2000/svg"><path d="m309.332031 0h-256c-29.394531 0-53.332031 23.914062-53.332031 53.332031v405.335938c0 29.417969 23.9375 53.332031 53.332031 53.332031h256c29.398438 0 53.335938-23.914062 53.335938-53.332031v-405.335938c0-29.417969-23.9375-53.332031-53.335938-53.332031zm0 0" fill="#455a64"/><path d="m53.332031 21.332031h256c17.644531 0 32 14.359375 32 32v352h-320v-352c0-17.640625 14.359375-32 32-32zm0 0" fill="#fafafa"/><path d="m501.332031 395.734375c0 58.238281-47.359375 105.597656-105.597656 105.597656h-129.066406c0-23.464843 19.199219-42.664062 42.664062-42.664062h42.667969l-99.839844-99.839844c-8.746094-8.75-8.746094-23.042969 0-32 8.746094-8.535156 22.613282-8.75 31.359375-.429687l41.8125 41.601562c-5.757812-5.761719-7.679687-13.867188-5.972656-21.121094.855469-4.050781 2.988281-7.890625 5.972656-10.878906 8.746094-8.746094 23.253907-8.746094 32 0l5.335938 5.332031c-5.546875-5.546875-7.679688-13.652343-5.976563-20.90625.855469-4.050781 2.773438-7.890625 5.976563-11.09375 8.746093-8.746093 23.253906-8.746093 32 0l10.664062 10.667969c-5.546875-5.546875-7.679687-13.652344-5.972656-20.90625.855469-4.054688 2.988281-8.105469 5.972656-11.09375 8.746094-8.746094 23.253907-8.746094 32 0l33.066407 33.066406c19.839843 19.839844 30.933593 46.71875 30.933593 74.667969zm0 0" fill="#ffcc80"/><path d="m395.734375 512h-129.066406c-5.890625 0-10.667969-4.777344-10.667969-10.667969 0-29.417969 23.914062-53.332031 53.332031-53.332031h16.917969l-81.558594-81.558594c-12.96875-12.96875-12.96875-34.109375 0-47.082031 12.589844-12.585937 34.496094-12.585937 47.085938 0l19.113281 19.117187c1.621094-3.628906 3.925781-7.042968 6.890625-10.027343 7.402344-7.402344 17.984375-10.882813 28.179688-9.429688 1.21875-6.316406 4.269531-12.351562 9.152343-17.238281 9.34375-9.34375 22.871094-11.945312 34.476563-7.894531 1.558594-4.90625 4.289062-9.535157 8.191406-13.4375 12.992188-12.992188 34.089844-12.992188 47.082031 0l33.066407 33.085937c21.972656 21.953125 34.070312 51.15625 34.070312 82.21875 0 64.109375-52.160156 116.246094-116.265625 116.246094zm-116.566406-21.332031h116.566406c52.351563 0 94.933594-42.582031 94.933594-94.914063 0-25.363281-9.878907-49.214844-27.820313-67.113281l-33.066406-33.089844c-4.671875-4.671875-12.246094-4.671875-16.917969 0s-4.671875 12.246094 0 16.917969c2.089844 2.070312 3.136719 4.800781 3.136719 7.53125s-1.046875 5.460938-3.113281 7.550781c-4.160157 4.160157-10.925781 4.160157-15.085938 0l-10.664062-10.664062c-4.671875-4.671875-12.246094-4.671875-16.917969 0-2.238281 2.238281-3.5 5.269531-3.5 8.445312 0 3.179688 1.261719 6.210938 3.5 8.449219l10.667969 10.667969c2.066406 2.089843 3.113281 4.820312 3.113281 7.550781s-1.046875 5.460938-3.113281 7.550781c-4.160157 4.160157-10.925781 4.160157-15.085938 0l-16-16c-4.5-4.5-12.414062-4.5-16.914062 0-2.242188 2.242188-3.5 5.269531-3.5 8.449219s1.257812 6.207031 3.5 8.449219l26.664062 26.664062c2.070313 2.09375 3.117188 4.824219 3.117188 7.554688s-1.046875 5.460937-3.117188 7.550781c-4.160156 4.160156-10.921875 4.160156-15.082031 0l-67.777344-67.777344c-4.671875-4.671875-12.242187-4.671875-16.914062 0s-4.671875 12.246094 0 16.917969l99.773437 99.777344c3.050781 3.050781 3.96875 7.636719 2.304688 11.625-1.664063 3.992187-5.546875 6.570312-9.855469 6.570312h-42.667969c-13.90625 0-25.769531 8.917969-30.164062 21.335938zm0 0"/><path d="m224 512h-170.667969c-29.417969 0-53.332031-23.914062-53.332031-53.332031v-405.335938c0-29.417969 23.914062-53.332031 53.332031-53.332031h256c29.421875 0 53.335938 23.914062 53.335938 53.332031v213.335938c0 5.886719-4.78125 10.664062-10.667969 10.664062s-10.667969-4.777343-10.667969-10.664062v-213.335938c0-17.640625-14.355469-32-32-32h-256c-17.640625 0-32 14.359375-32 32v405.335938c0 17.640625 14.359375 32 32 32h170.667969c5.886719 0 10.667969 4.777343 10.667969 10.664062 0 5.890625-4.78125 10.667969-10.667969 10.667969zm0 0"/><path d="m245.332031 426.667969h-234.664062c-5.890625 0-10.667969-4.78125-10.667969-10.667969s4.777344-10.667969 10.667969-10.667969h234.664062c5.890625 0 10.667969 4.78125 10.667969 10.667969s-4.777344 10.667969-10.667969 10.667969zm0 0"/><path d="m202.667969 469.332031h-42.667969c-5.886719 0-10.667969-4.777343-10.667969-10.664062 0-5.890625 4.78125-10.667969 10.667969-10.667969h42.667969c5.886719 0 10.664062 4.777344 10.664062 10.667969 0 5.886719-4.777343 10.664062-10.664062 10.664062zm0 0"/><path d="m64 53.332031c0 5.890625-4.777344 10.667969-10.667969 10.667969s-10.664062-4.777344-10.664062-10.667969 4.773437-10.664062 10.664062-10.664062 10.667969 4.773437 10.667969 10.664062zm0 0"/></svg>