<svg height="507pt" viewBox="0 -14 507.05067 507" width="507pt" xmlns="http://www.w3.org/2000/svg"><path d="m496.296875 207.871094c0 34.132812-13.4375 66.984375-37.542969 91.09375l-37.761718 37.757812c-20.054688 19.839844-47.148438 31.148438-75.519532 31.148438-27.308594 0-54.402344 4.054687-80.425781 11.945312l-165.546875 50.5625c-2.347656.851563-4.90625 1.277344-7.253906 1.277344-8.746094 0-16.855469-5.332031-20.054688-14.078125-8.320312-23.039063 1.492188-48.640625 23.039063-60.160156l113.066406-64.425781-186.664063-186.453126c-7.46875-7.253906-11.09375-17.070312-11.09375-26.667968 0-9.601563 3.625-19.414063 11.09375-26.667969 13.652344-13.652344 35.414063-14.71875 58.878907 5.546875.214843.425781.425781.855469.855469.855469.425781.636719 1.066406 1.066406 1.492187 1.492187l66.558594 66.558594c-7.039063-7.253906-10.453125-16.425781-10.664063-25.8125 0-.214844 0-.214844 0-.425781 0-9.601563 3.839844-19.199219 11.089844-26.667969 14.507812-14.507812 37.976562-14.71875 52.695312-.640625l27.09375 27.09375-.214843-.425781c-7.039063-7.039063-10.453125-16.425782-10.664063-25.601563 0-.210937 0-.210937 0-.425781 0-9.597656 3.625-19.414062 11.089844-26.664062 14.722656-14.722657 38.613281-14.722657 53.335938 0l20.691406 20.691406-.425782-.640625c-6.613281-6.824219-9.8125-16-10.027343-24.960938 0-.210937 0-.210937 0-.425781 0-9.597656 3.628906-19.414062 11.09375-26.664062 14.71875-14.722657 38.613281-14.722657 53.332031 0l100.910156 100.691406c24.105469 24.105468 37.542969 56.960937 37.542969 91.09375zm0 0" fill="#ffcc80"/><path d="m496.382812 330.429688h-170.664062c-5.890625 0-10.667969 4.78125-10.667969 10.667968v128c0 5.886719 4.777344 10.667969 10.667969 10.667969h170.664062c5.890626 0 10.667969-4.78125 10.667969-10.667969v-128c0-5.886718-4.777343-10.667968-10.667969-10.667968zm0 0" fill="#455a64"/><path d="m496.382812 479.765625h-170.664062c-5.890625 0-10.667969-4.78125-10.667969-10.667969v-128c0-5.886718 4.777344-10.667968 10.667969-10.667968h170.664062c5.890626 0 10.667969 4.78125 10.667969 10.667968v128c0 5.886719-4.777343 10.667969-10.667969 10.667969zm-160-21.335937h149.335938v-106.664063h-149.335938zm0 0"/><path d="m411.050781 437.097656c-5.886719 0-10.667969-4.777344-10.667969-10.667968v-32c0-5.886719 4.78125-10.664063 10.667969-10.664063s10.667969 4.777344 10.667969 10.664063v32c0 5.890624-4.78125 10.667968-10.667969 10.667968zm0 0"/><path d="m411.050781 415.765625c-11.777343 0-21.332031-9.558594-21.332031-21.335937 0-11.773438 9.554688-21.332032 21.332031-21.332032 11.777344 0 21.332031 9.558594 21.332031 21.332032 0 11.777343-9.554687 21.335937-21.332031 21.335937zm0-21.355469 10.667969.019532zm0 0"/><path d="m475.050781 351.765625c-5.886719 0-10.667969-4.78125-10.667969-10.667969v-21.332031c0-29.421875-23.914062-53.335937-53.332031-53.335937s-53.332031 23.914062-53.332031 53.335937v21.332031c0 5.886719-4.78125 10.667969-10.667969 10.667969s-10.667969-4.78125-10.667969-10.667969v-21.332031c0-41.175781 33.496094-74.667969 74.667969-74.667969s74.667969 33.492188 74.667969 74.667969v21.332031c0 5.886719-4.78125 10.667969-10.667969 10.667969zm0 0"/><path d="m92.308594 447.53125c-4.566406 0-9.238282-1.003906-13.609375-3.050781-7.746094-3.605469-13.632813-10.027344-16.535157-18.070313-10.132812-27.820312 1.921876-59.308594 28.035157-73.28125l100.605469-57.238281-176.640626-176.597656c-9.128906-9.128907-14.164062-21.289063-14.164062-34.195313s5.035156-25.066406 14.164062-34.21875c9.921876-9.921875 23-14.441406 36.84375-12.777344 14.207032 1.726563 28.4375 9.621094 42.238282 23.445313l35.84375 35.839844c1.769531-9.175781 6.183594-17.898438 13.265625-24.984375 17.730469-17.703125 48.277343-18.386719 66.691406-1.640625 1.8125-9.410157 6.378906-18.089844 13.308594-25.023438 16.597656-16.597656 42.371093-18.605469 61.1875-5.953125 1.640625-9.8125 6.292969-18.859375 13.480469-26.046875 18.285156-18.285156 50.132812-18.285156 68.417968 0l100.777344 100.757813c26.324219 26.324218 40.832031 61.351562 40.832031 98.601562 0 12.074219-1.707031 24.449219-5.054687 36.800782-1.539063 5.671874-7.339844 9.066406-13.101563 7.488281-5.695312-1.539063-9.023437-7.425781-7.488281-13.101563 2.859375-10.472656 4.3125-20.96875 4.3125-31.167968 0-31.550782-12.289062-61.203126-34.582031-83.519532l-100.78125-100.757812c-10.535157-10.539063-27.710938-10.539063-38.25 0-5.097657 5.101562-7.914063 11.90625-7.914063 19.117187 0 7.210938 2.816406 14.015625 7.914063 19.113281l10.476562 10.476563c2.089844 2.089844 3.113281 4.820313 3.113281 7.550781 0 2.730469-1.042968 5.460938-3.113281 7.550782-4.160156 4.160156-10.921875 4.160156-15.082031 0l-31.808594-31.808594c-10.539062-10.539063-27.710937-10.539063-38.25 0-10.539062 10.539062-10.539062 27.714844 0 38.253906l31.804688 31.804688c2.09375 2.09375 3.117187 4.824218 3.117187 7.554687s-1.046875 5.460937-3.117187 7.550781c-4.15625 4.160156-10.921875 4.160156-15.082032 0l-58.472656-58.515625c-10.539062-10.539062-27.710937-10.539062-38.25 0-10.539062 10.535157-10.539062 27.710938 0 38.25l58.472656 58.472657c2.089844 2.089843 3.117188 4.824218 3.117188 7.554687s-1.046875 5.460937-3.117188 7.550781c-4.160156 4.160156-10.921874 4.160156-15.082031 0l-122.667969-122.667968c-18.644531-18.644532-36.925781-22.65625-48.917968-10.664063-10.535156 10.535156-10.535156 27.710937 0 38.25l186.539062 186.515625c2.347656 2.347656 3.480469 5.675781 3.03125 8.960938-.449218 3.304687-2.390625 6.207031-5.292968 7.851562l-113.023438 64.296875c-17.042969 9.132813-24.808594 29.398437-18.28125 47.296875.980469 2.6875 2.945312 4.820312 5.523438 6.015625 2.5625 1.214844 5.484374 1.324219 8.128906.363281l166.058594-50.644531c6.1875-1.878906 12.417968-3.480469 18.6875-4.929687 5.847656-1.472657 11.480468 2.21875 12.824218 7.9375 1.34375 5.738281-2.21875 11.476562-7.9375 12.820312-5.800781 1.367188-11.625 2.859375-17.34375 4.609375l-165.527344 50.410156c-3.261718 1.195313-6.761718 1.792969-10.324218 1.792969zm0 0"/></svg>