<svg height="490pt" viewBox="-21 0 490 490.66667" width="490pt" xmlns="http://www.w3.org/2000/svg"><g fill="#2196f3"><path d="m448.332031 394.667969c0 29.453125-23.875 53.332031-53.332031 53.332031s-53.332031-23.878906-53.332031-53.332031c0-29.457031 23.875-53.335938 53.332031-53.335938s53.332031 23.878907 53.332031 53.335938zm0 0"/><path d="m107 53.332031c0 29.457031-23.878906 53.335938-53.332031 53.335938-29.457031 0-53.335938-23.878907-53.335938-53.335938 0-29.453125 23.878907-53.332031 53.335938-53.332031 29.453125 0 53.332031 23.878906 53.332031 53.332031zm0 0"/><path d="m107 224c0 29.457031-23.878906 53.332031-53.332031 53.332031-29.457031 0-53.335938-23.875-53.335938-53.332031s23.878907-53.332031 53.335938-53.332031c29.453125 0 53.332031 23.875 53.332031 53.332031zm0 0"/><path d="m107 394.667969c0 29.453125-23.878906 53.332031-53.332031 53.332031-29.457031 0-53.335938-23.878906-53.335938-53.332031 0-29.457031 23.878907-53.335938 53.335938-53.335938 29.453125 0 53.332031 23.878907 53.332031 53.335938zm0 0"/><path d="m277.667969 53.332031c0 29.457031-23.878907 53.335938-53.335938 53.335938-29.453125 0-53.332031-23.878907-53.332031-53.335938 0-29.453125 23.878906-53.332031 53.332031-53.332031 29.457031 0 53.335938 23.878906 53.335938 53.332031zm0 0"/><path d="m448.332031 53.332031c0 29.457031-23.875 53.335938-53.332031 53.335938s-53.332031-23.878907-53.332031-53.335938c0-29.453125 23.875-53.332031 53.332031-53.332031s53.332031 23.878906 53.332031 53.332031zm0 0"/><path d="m277.667969 224c0 29.457031-23.878907 53.332031-53.335938 53.332031-29.453125 0-53.332031-23.875-53.332031-53.332031s23.878906-53.332031 53.332031-53.332031c29.457031 0 53.335938 23.875 53.335938 53.332031zm0 0"/><path d="m448.332031 224c0 29.457031-23.875 53.332031-53.332031 53.332031s-53.332031-23.875-53.332031-53.332031 23.875-53.332031 53.332031-53.332031 53.332031 23.875 53.332031 53.332031zm0 0"/></g><path d="m395 277.332031c-29.417969 0-53.332031-23.914062-53.332031-53.332031s23.914062-53.332031 53.332031-53.332031 53.332031 23.914062 53.332031 53.332031-23.914062 53.332031-53.332031 53.332031zm0-85.332031c-17.644531 0-32 14.355469-32 32s14.355469 32 32 32 32-14.355469 32-32-14.355469-32-32-32zm0 0"/><path d="m53.667969 106.667969c-29.421875 0-53.335938-23.914063-53.335938-53.335938 0-29.417969 23.914063-53.332031 53.335938-53.332031 29.417969 0 53.332031 23.914062 53.332031 53.332031 0 29.421875-23.914062 53.335938-53.332031 53.335938zm0-85.335938c-17.644531 0-32 14.359375-32 32 0 17.644531 14.355469 32 32 32 17.640625 0 32-14.355469 32-32 0-17.640625-14.359375-32-32-32zm0 0"/><path d="m53.667969 277.332031c-29.421875 0-53.335938-23.914062-53.335938-53.332031s23.914063-53.332031 53.335938-53.332031c29.417969 0 53.332031 23.914062 53.332031 53.332031s-23.914062 53.332031-53.332031 53.332031zm0-85.332031c-17.644531 0-32 14.355469-32 32s14.355469 32 32 32c17.640625 0 32-14.355469 32-32s-14.359375-32-32-32zm0 0"/><path d="m53.667969 448c-29.421875 0-53.335938-23.914062-53.335938-53.332031 0-29.421875 23.914063-53.335938 53.335938-53.335938 29.417969 0 53.332031 23.914063 53.332031 53.335938 0 29.417969-23.914062 53.332031-53.332031 53.332031zm0-85.332031c-17.644531 0-32 14.355469-32 32 0 17.640625 14.355469 32 32 32 17.640625 0 32-14.359375 32-32 0-17.644531-14.359375-32-32-32zm0 0"/><path d="m224.332031 106.667969c-29.417969 0-53.332031-23.914063-53.332031-53.335938 0-29.417969 23.914062-53.332031 53.332031-53.332031 29.421875 0 53.335938 23.914062 53.335938 53.332031 0 29.421875-23.914063 53.335938-53.335938 53.335938zm0-85.335938c-17.640625 0-32 14.359375-32 32 0 17.644531 14.359375 32 32 32 17.644531 0 32-14.355469 32-32 0-17.640625-14.355469-32-32-32zm0 0"/><path d="m395 106.667969c-29.417969 0-53.332031-23.914063-53.332031-53.335938 0-29.417969 23.914062-53.332031 53.332031-53.332031s53.332031 23.914062 53.332031 53.332031c0 29.421875-23.914062 53.335938-53.332031 53.335938zm0-85.335938c-17.644531 0-32 14.359375-32 32 0 17.644531 14.355469 32 32 32s32-14.355469 32-32c0-17.640625-14.355469-32-32-32zm0 0"/><path d="m53.667969 192c-5.890625 0-10.667969-4.777344-10.667969-10.667969v-85.332031c0-5.886719 4.777344-10.667969 10.667969-10.667969 5.886719 0 10.664062 4.78125 10.664062 10.667969v85.332031c0 5.890625-4.777343 10.667969-10.664062 10.667969zm0 0"/><path d="m53.667969 362.667969c-5.890625 0-10.667969-4.78125-10.667969-10.667969v-85.332031c0-5.890625 4.777344-10.667969 10.667969-10.667969 5.886719 0 10.664062 4.777344 10.664062 10.667969v85.332031c0 5.886719-4.777343 10.667969-10.664062 10.667969zm0 0"/><path d="m85.667969 373.332031c-2.730469 0-5.460938-1.042969-7.554688-3.113281-4.160156-4.160156-4.160156-10.921875 0-15.082031l106.667969-106.667969c4.160156-4.160156 10.921875-4.160156 15.082031 0 4.160157 4.160156 4.160157 10.921875 0 15.082031l-106.664062 106.667969c-2.070313 2.070312-4.800781 3.113281-7.53125 3.113281zm0 0"/><path d="m224.332031 277.332031c-29.417969 0-53.332031-23.914062-53.332031-53.332031s23.914062-53.332031 53.332031-53.332031c29.421875 0 53.335938 23.914062 53.335938 53.332031 0 7.507812-1.601563 14.847656-4.78125 21.886719-2.429688 5.378906-8.746094 7.765625-14.121094 5.335937-5.355469-2.433594-7.746094-8.746094-5.332031-14.125 1.917968-4.222656 2.898437-8.640625 2.898437-13.097656 0-17.644531-14.355469-32-32-32-17.640625 0-32 14.355469-32 32s14.359375 32 32 32c5.890625 0 10.667969 4.777344 10.667969 10.667969 0 5.886719-4.777344 10.664062-10.667969 10.664062zm0 0"/><path d="m395 448c-7.636719 0-15.210938-1.707031-22.421875-5.054688-5.355469-2.476562-7.65625-8.8125-5.183594-14.144531 2.453125-5.355469 8.851563-7.703125 14.144531-5.183593 21.546876 9.898437 45.460938-6.785157 45.460938-28.949219 0-17.644531-14.355469-32-32-32-5.886719 0-10.667969-4.78125-10.667969-10.667969s4.78125-10.667969 10.667969-10.667969c29.417969 0 53.332031 23.914063 53.332031 53.335938 0 29.417969-23.914062 53.332031-53.332031 53.332031zm0 0"/><path d="m217.015625 334.507812c-1.707031 0-3.625.210938-5.332031.640626l24.320312 24.316406c2.132813 2.136718 4.90625 3.203125 7.679688 3.203125 2.558594 0 5.332031-1.066407 7.464844-3.203125l-18.984376-18.773438c-4.269531-4.050781-9.816406-6.183594-15.148437-6.183594zm0 0" fill="#ffb74d"/><path d="m195.683594 377.171875c-1.707032 0-3.628906.214844-5.335938.640625l13.65625 13.652344c2.132813 2.136718 4.90625 3.203125 7.679688 3.203125 2.558594 0 5.332031-1.066407 7.464844-3.203125l-7.464844-7.464844c-4.480469-4.480469-10.242188-6.828125-16-6.828125zm0 0" fill="#ffb74d"/><path d="m179.683594 416 33.066406 33.066406c19.839844 19.839844 46.507812 30.933594 74.664062 30.933594 58.242188 0 105.601563-47.359375 105.601563-105.601562v-117.546876c0-6.398437-5.332031-11.519531-11.519531-11.519531-17.28125 0-31.148438 13.867188-31.148438 31.148438v54.1875l-99.839844-99.839844c-4.265624-4.269531-10.238281-6.613281-16-6.613281-5.757812 0-11.730468 2.34375-16 6.613281-8.746093 8.746094-8.746093 23.25 0 32l41.175782 41.171875c-4.480469-4.480469-10.242188-6.613281-16-6.613281-1.707032 0-3.414063.214843-5.121094.640625-9.601562 4.90625-10.238281 5.332031-10.878906 5.972656-8.960938 8.746094-8.960938 23.039062 0 32l4.480468 4.691406c-4.269531-4.050781-9.816406-6.183594-15.148437-6.183594-1.707031 0-3.625.210938-5.332031.640626-10.027344 5.542968-10.453125 5.972656-10.667969 6.183593-8.960937 8.746094-8.960937 23.042969 0 32l10.667969 10.667969c-4.480469-4.480469-10.242188-6.828125-16-6.828125-1.707032 0-3.628906.214844-5.335938.640625-4.050781 1.066406-7.679687 3.199219-10.664062 6.1875-8.941406 8.746094-8.941406 23.039062 0 32zm0 0" fill="#ffcc80"/><path d="m289.421875 490.667969c-31.0625 0-60.246094-12.074219-82.21875-34.050781l-33.089844-33.085938c-12.96875-12.972656-12.96875-34.113281 0-47.082031 3.90625-3.90625 8.511719-6.636719 13.441407-8.191407-4.03125-11.671874-1.40625-25.175781 7.894531-34.476562 4.882812-4.886719 10.921875-7.9375 17.234375-9.152344-.210938-1.515625-.316406-3.09375-.316406-4.648437 0-8.898438 3.453124-17.261719 9.746093-23.554688 2.988281-2.984375 6.402344-5.269531 10.027344-6.890625l-19.113281-19.113281c-6.292969-6.292969-9.75-14.65625-9.75-23.550781 0-8.898438 3.457031-17.261719 9.75-23.554688 12.992187-12.992187 34.089844-12.992187 47.082031 0l81.558594 81.558594v-29.355469c0-22.550781 18.34375-40.894531 40.894531-40.894531 12.757812 0 23.105469 10.34375 23.105469 23.101562v116.652344c0 64.148438-52.140625 116.289063-116.246094 116.289063zm-91.753906-102.636719c-3.074219 0-6.125 1.175781-8.449219 3.5-4.671875 4.671875-4.671875 12.246094 0 16.917969l33.089844 33.085937c17.917968 17.921875 41.769531 27.796875 67.113281 27.796875 52.332031 0 94.910156-42.578125 94.910156-94.910156v-116.652344c0-.980469-.789062-1.769531-1.769531-1.769531-10.792969 0-19.5625 8.769531-19.5625 19.5625v55.105469c0 4.308593-2.601562 8.210937-6.59375 9.855469-3.964844 1.640624-8.554688.746093-11.625-2.304688l-99.777344-99.777344c-4.671875-4.671875-12.242187-4.671875-16.914062 0-4.675782 4.671875-4.675782 12.246094 0 16.917969l67.773437 67.777344c2.089844 2.070312 3.136719 4.800781 3.136719 7.53125s-1.046875 5.460937-3.113281 7.550781c-4.160157 4.160156-10.925781 4.160156-15.085938 0l-26.664062-26.667969c-4.503907-4.5-12.417969-4.5-16.917969 0-2.238281 2.242188-3.5 5.269531-3.5 8.449219s1.261719 6.207031 3.5 8.449219l16 16c2.070312 2.089843 3.113281 4.820312 3.113281 7.550781s-1.042969 5.460938-3.113281 7.550781c-4.160156 4.160157-10.921875 4.160157-15.082031 0l-10.667969-10.664062c-4.5-4.503907-12.414062-4.503907-16.917969 0-4.671875 4.671875-4.671875 12.242187 0 16.914062l10.667969 10.667969c2.070312 2.070312 3.113281 4.800781 3.113281 7.53125s-1.042969 5.460938-3.113281 7.550781c-4.160156 4.160157-10.921875 4.160157-15.082031 0-2.347657-2.34375-5.398438-3.519531-8.46875-3.519531zm0 0"/></svg>