<svg height="512pt" viewBox="0 -32 512.00533 512" width="512pt" xmlns="http://www.w3.org/2000/svg"><path d="m498.777344 213.5c0 34.132812-13.4375 66.988281-37.546875 91.09375l-37.757813 37.761719c-20.054687 19.839843-47.148437 31.144531-75.519531 31.144531-27.308594 0-54.402344 4.054688-80.429687 11.949219l-165.542969 50.558593c-2.347657.855469-4.910157 1.28125-7.253907 1.28125-8.746093 0-16.855468-5.335937-20.054687-14.082031-8.320313-23.039062 1.492187-48.640625 23.039063-60.160156l113.066406-64.425781-186.664063-186.453125c-7.46875-7.253907-11.09375-17.066407-11.09375-26.667969 0-9.597656 3.625-19.410156 11.09375-26.664062 13.652344-13.65625 35.410157-14.722657 58.878907 5.546874.214843.425782.425781.851563.851562.851563.429688.640625 1.066406 1.066406 1.496094 1.492187l66.558594 66.5625c-7.039063-7.253906-10.453126-16.425781-10.667969-25.8125 0-.214843 0-.214843 0-.429687 0-9.597656 3.839843-19.199219 11.09375-26.664063 14.507812-14.507812 37.972656-14.722656 52.695312-.640624l27.09375 27.09375-.214843-.429688c-7.039063-7.039062-10.453126-16.425781-10.667969-25.597656 0-.214844 0-.214844 0-.425782 0-9.601562 3.628906-19.414062 11.09375-26.667968 14.722656-14.71875 38.613281-14.71875 53.335937 0l20.050782 20.054687.640624.636719-.425781-.636719c-6.613281-6.828125-9.8125-16-10.027343-24.960937 0-.214844 0-.214844 0-.425782 0-9.601562 3.625-19.414062 11.09375-26.667968 14.71875-14.71875 38.613281-14.71875 53.332031 0l100.90625 100.691406c24.109375 24.109375 37.546875 56.960938 37.546875 91.09375zm0 0" fill="#ffcc80"/><path d="m96.003906 245.246094c-2.730468 0-5.460937-1.046875-7.550781-3.117188l-35.113281-35.132812-35.117188 35.113281c-4.160156 4.160156-10.921875 4.160156-15.082031 0s-4.160156-10.921875 0-15.082031l42.667969-42.667969c4.160156-4.160156 10.921875-4.160156 15.082031 0l42.667969 42.667969c4.160156 4.160156 4.160156 10.921875 0 15.082031-2.09375 2.089844-4.824219 3.136719-7.554688 3.136719zm0 0"/><path d="m53.339844 351.910156c-2.730469 0-5.460938-1.042968-7.554688-3.113281l-42.664062-42.667969c-4.160156-4.160156-4.160156-10.921875 0-15.082031s10.921875-4.160156 15.082031 0l35.136719 35.117187 35.113281-35.117187c4.160156-4.160156 10.921875-4.160156 15.082031 0s4.160156 10.921875 0 15.082031l-42.664062 42.667969c-2.070313 2.070313-4.800782 3.113281-7.53125 3.113281zm0 0"/><path d="m53.339844 351.910156c-5.890625 0-10.667969-4.777344-10.667969-10.664062v-149.335938c0-5.886718 4.777344-10.664062 10.667969-10.664062 5.886718 0 10.664062 4.777344 10.664062 10.664062v149.335938c0 5.886718-4.777344 10.664062-10.664062 10.664062zm0 0"/><path d="m97.15625 447.933594c-4.585938 0-9.171875-1.003906-13.480469-3.007813-7.746093-3.628906-13.632812-10.046875-16.554687-18.089843-10.132813-27.820313 1.917968-59.308594 28.007812-73.28125l100.632813-57.214844-176.640625-176.640625c-9.132813-9.109375-14.167969-21.269531-14.167969-34.175781s5.035156-25.066407 14.1875-34.21875c9.898437-9.921876 23.0625-14.421876 36.820313-12.78125 14.230468 1.75 28.4375 9.644531 42.261718 23.445312l35.839844 35.84375c1.773438-9.175781 6.1875-17.902344 13.269531-24.984375 18.304688-18.304687 47.765625-18.859375 66.710938-1.621094 1.769531-9.195312 6.1875-17.941406 13.289062-25.042969 16.597657-16.621093 42.371094-18.625 61.207031-5.933593 1.621094-9.554688 6.101563-18.707031 13.460938-26.066407 18.859375-18.882812 49.558594-18.882812 68.414062 0l100.78125 100.757813c26.304688 26.34375 40.808594 61.375 40.808594 98.601563 0 37.246093-14.503906 72.253906-40.832031 98.582031l-37.714844 37.714843c-22.167969 22.167969-51.628906 34.367188-82.964843 34.367188-26.242188 0-52.289063 3.882812-77.378907 11.542969l-165.246093 50.347656c-3.5 1.238281-7.105469 1.855469-10.710938 1.855469zm-46.847656-388.351563c-6.058594 0-11.539063 2.238281-16.105469 6.804688-10.539063 10.539062-10.539063 27.710937 0 38.25l186.539063 186.539062c2.347656 2.347657 3.476562 5.675781 3.027343 8.960938-.445312 3.304687-2.410156 6.207031-5.3125 7.851562l-113.023437 64.277344c-17.023438 9.128906-24.789063 29.394531-18.261719 47.292969.984375 2.6875 2.945313 4.84375 5.527344 6.015625 2.582031 1.21875 5.460937 1.347656 8.148437.363281.171875-.0625.363282-.125.535156-.191406l165.480469-50.429688c27.117188-8.277344 55.253907-12.460937 83.605469-12.460937 25.644531 0 49.75-9.984375 67.882812-28.117188l37.71875-37.71875c22.3125-22.3125 34.601563-51.964843 34.601563-83.496093s-12.289063-61.207032-34.582031-83.519532l-100.777344-100.757812c-10.539062-10.539063-27.710938-10.539063-38.25 0-5.101562 5.097656-7.9375 11.902344-7.9375 19.113281s2.816406 14.015625 7.9375 19.117187l10.472656 10.472657c2.089844 2.113281 3.136719 4.84375 3.136719 7.574219 0 2.730468-1.046875 5.460937-3.113281 7.550781-4.160156 4.160156-10.925782 4.160156-15.082032 0l-31.808593-31.808594c-10.21875-10.21875-28.011719-10.21875-38.253907 0-10.535156 10.539063-10.535156 27.714844 0 38.25l31.808594 31.808594c2.070313 2.070312 3.117188 4.800781 3.117188 7.53125s-1.046875 5.460937-3.117188 7.550781c-4.160156 4.160156-10.921875 4.160156-15.082031 0l-58.496094-58.496094c-10.539062-10.535156-27.710937-10.535156-38.25 0-10.539062 10.539063-10.539062 27.714844 0 38.253906l58.476563 58.472657c2.089844 2.089843 3.113281 4.820312 3.113281 7.550781 0 2.734375-1.046875 5.464844-3.113281 7.554688-4.160156 4.160156-10.925782 4.160156-15.085938 0l-122.664062-122.667969c-11.542969-11.5625-22.957032-17.492188-32.8125-17.492188zm0 0"/></svg>