<svg height="469pt" viewBox="-42 0 469 469.33333" width="469pt" xmlns="http://www.w3.org/2000/svg"><path d="m265.554688 301.011719-86.402344 94.296875c-12.160156 13.226562-29.226563 20.691406-47.144532 20.691406h-35.839843c-47.148438 0-85.335938-38.1875-85.335938-85.332031v-85.335938c0-11.730469 9.601563-21.332031 21.335938-21.332031 3.839843 0 7.464843 1.066406 10.664062 2.988281 6.402344 3.625 10.667969 10.453125 10.667969 18.34375v-21.332031c0-11.734375 9.601562-21.332031 21.332031-21.332031 3.839844 0 7.46875 1.066406 10.667969 2.984375 6.398438 3.628906 10.667969 10.453125 10.667969 18.347656v-21.332031c0-11.734375 9.597656-21.335938 21.332031-21.335938 3.839844 0 7.464844 1.066407 10.667969 2.988281 6.398437 3.625 10.664062 10.453126 10.664062 18.347657v-64c0-11.734375 9.601563-21.335938 21.335938-21.335938 11.730469 0 21.332031 9.601563 21.332031 21.335938v149.332031l34.347656-22.828125c16.640625-11.09375 39.039063-7.25 50.984375 8.75 6.1875 8.105469 5.546875 19.625-1.277343 27.089844zm0 0" fill="#ffcc80"/><path d="m181.5 405.332031h-149.332031c-5.890625 0-10.667969 4.78125-10.667969 10.667969v42.667969c0 5.886719 4.777344 10.664062 10.667969 10.664062h149.332031c5.886719 0 10.667969-4.777343 10.667969-10.664062v-42.667969c0-5.886719-4.78125-10.667969-10.667969-10.667969zm0 0" fill="#455a64"/><path d="m373.5 192c-2.730469 0-5.460938-1.046875-7.550781-3.113281l-170.667969-170.667969c-4.160156-4.160156-4.160156-10.921875 0-15.082031 4.160156-4.160157 10.921875-4.160157 15.082031 0l170.667969 170.664062c4.160156 4.160157 4.160156 10.925781 0 15.085938-2.070312 2.066406-4.800781 3.113281-7.53125 3.113281zm0 0"/><path d="m373.5 192h-64c-5.886719 0-10.667969-4.777344-10.667969-10.667969 0-5.886719 4.78125-10.664062 10.667969-10.664062h53.332031v-53.335938c0-5.886719 4.78125-10.664062 10.667969-10.664062s10.667969 4.777343 10.667969 10.664062v64c0 5.890625-4.78125 10.667969-10.667969 10.667969zm0 0"/><path d="m202.832031 85.332031c-5.886719 0-10.664062-4.777343-10.664062-10.664062v-64c0-5.890625 4.777343-10.667969 10.664062-10.667969h64c5.890625 0 10.667969 4.777344 10.667969 10.667969 0 5.886719-4.777344 10.664062-10.667969 10.664062h-53.332031v53.335938c0 5.886719-4.777344 10.664062-10.667969 10.664062zm0 0"/><path d="m132.007812 426.667969h-35.839843c-52.929688 0-96-43.074219-96-96v-85.335938c0-17.640625 14.355469-32 32-32 4.160156 0 8.125.789063 11.796875 2.242188 3.691406-13.570313 16.148437-23.574219 30.867187-23.574219 4.160157 0 8.128907.789062 11.796875 2.238281 3.691406-13.566406 16.152344-23.570312 30.871094-23.570312 3.734375 0 7.339844.640625 10.667969 1.832031v-33.832031c0-17.644531 14.355469-32 32-32 17.640625 0 32 14.355469 32 32v129.386719l17.769531-11.839844c21.332031-14.210938 50.070312-9.34375 65.472656 11.199218 9.238282 12.289063 8.40625 29.460938-2.007812 40.808594l-86.335938 94.210938c-14.121094 15.402344-34.175781 24.234375-55.058594 24.234375zm-99.839843-192c-5.890625 0-10.667969 4.796875-10.667969 10.664062v85.335938c0 41.171875 33.492188 74.664062 74.667969 74.664062h35.839843c14.910157 0 29.246094-6.292969 39.316407-17.300781l86.335937-94.207031c3.476563-3.796875 3.753906-9.492188.683594-13.589844-8.597656-11.5-24.683594-14.207031-36.566406-6.273437l-34.347656 22.890624c-3.261719 2.199219-7.488282 2.390626-10.941407.515626-3.480469-1.816407-5.65625-5.421876-5.65625-9.367188v-149.332031c0-5.867188-4.777343-10.667969-10.664062-10.667969-5.890625 0-10.667969 4.800781-10.667969 10.667969v117.332031c0 5.886719-4.777344 10.667969-10.667969 10.667969-5.886719 0-10.664062-4.78125-10.664062-10.667969v-53.332031c0-5.867188-4.78125-10.667969-10.667969-10.667969s-10.667969 4.800781-10.667969 10.667969v53.332031c0 5.886719-4.777343 10.667969-10.664062 10.667969-5.890625 0-10.667969-4.78125-10.667969-10.667969v-32c0-5.867188-4.777344-10.667969-10.667969-10.667969-5.886719 0-10.664062 4.800781-10.664062 10.667969v32c0 5.886719-4.78125 10.667969-10.667969 10.667969s-10.667969-4.78125-10.667969-10.667969v-10.667969c0-5.867187-4.777343-10.664062-10.664062-10.664062zm0 0"/><path d="m181.5 469.332031c-5.886719 0-10.667969-4.777343-10.667969-10.664062v-32h-128v32c0 5.886719-4.777343 10.664062-10.664062 10.664062-5.890625 0-10.667969-4.777343-10.667969-10.664062v-42.667969c0-5.886719 4.777344-10.667969 10.667969-10.667969h149.332031c5.886719 0 10.667969 4.78125 10.667969 10.667969v42.667969c0 5.886719-4.78125 10.664062-10.667969 10.664062zm0 0"/></svg>