<svg height="512pt" viewBox="-11 0 512 512.00533" width="512pt" xmlns="http://www.w3.org/2000/svg"><path d="m352.414062 266.671875-20.265624 20.480469c6.398437-6.398438 14.929687-9.386719 23.464843-8.535156 7.039063.429687 13.652344 3.203124 18.988281 8.535156h.210938c11.519531 11.519531 11.734375 30.292968.640625 42.027344l-21.972656 21.972656c6.398437-6.398438 14.933593-9.386719 23.464843-8.535156 7.042969.429687 13.65625 3.203124 18.988282 8.535156h.214844c11.730468 11.734375 11.730468 30.933594 0 42.667968l-87.894532 79.785157c-19.628906 17.917969-45.226562 27.734375-71.679687 27.734375-28.160157 0-55.253907-11.308594-75.308594-31.148438l-33.492187-33.707031c-20.054688-19.839844-31.359376-46.933594-31.359376-75.304687v-201.175782c0-11.730468 9.597657-21.332031 21.332032-21.332031 18.347656 0 33.921875 13.441406 36.695312 31.574219l16.636719 107.09375 160.214844-160c11.734375-11.734375 30.71875-11.734375 42.453125 0h.214844c11.09375 11.09375 11.730468 29.011718 1.707031 40.746094l-65.921875 65.917968c6.402344-6.398437 15.148437-9.386718 23.679687-8.53125 7.039063.425782 13.652344 3.199219 18.988281 8.53125v.214844c11.734376 11.734375 11.734376 30.71875 0 42.453125zm0 0" fill="#ffcc80"/><path d="m10.652344 117.339844c-5.289063 0-9.898438-3.949219-10.558594-9.34375-.726562-5.847656 3.414062-11.179688 9.238281-11.90625l170.664063-21.332032c5.738281-.769531 11.179687 3.371094 11.925781 9.257813.726563 5.847656-3.414063 11.179687-9.257813 11.925781l-170.667968 21.332032c-.445313.042968-.875.066406-1.34375.066406zm0 0"/><path d="m448.007812 117.339844c-1.878906 0-3.777343-.46875-5.484374-1.515625-5.054688-3.03125-6.695313-9.578125-3.667969-14.636719l27.710937-46.207031-36.777344-36.777344c-4.160156-4.160156-4.160156-10.921875 0-15.082031 4.160157-4.160156 10.921876-4.160156 15.082032 0l42.667968 42.664062c3.457032 3.457032 4.117188 8.832032 1.597657 13.015625l-32 53.332031c-1.980469 3.351563-5.523438 5.207032-9.128907 5.207032zm0 0"/><path d="m53.339844 160.003906c-2.730469 0-5.460938-1.042968-7.550782-3.113281l-42.667968-42.667969c-3.453125-3.453125-4.117188-8.832031-1.597656-13.011718l32-53.332032c3.070312-5.058594 9.664062-6.699218 14.632812-3.671875 5.058594 3.03125 6.699219 9.578125 3.671875 14.636719l-27.714844 46.1875 36.78125 36.777344c4.160157 4.160156 4.160157 10.921875 0 15.082031-2.09375 2.070313-4.824219 3.113281-7.554687 3.113281zm0 0"/><path d="m298.652344 85.339844c-5.332032 0-9.941406-4.011719-10.558594-9.410156-.703125-5.84375 3.476562-11.136719 9.34375-11.839844l181.332031-21.332032c5.65625-.960937 11.160157 3.476563 11.839844 9.34375.707031 5.84375-3.476563 11.136719-9.34375 11.839844l-181.332031 21.332032c-.425782.042968-.855469.066406-1.28125.066406zm0 0"/><path d="m236.125 512.003906c-31.316406 0-60.734375-12.179687-82.878906-34.324218l-33.535156-33.535157c-22.167969-22.164062-34.371094-51.628906-34.371094-82.988281v-201.152344c0-17.640625 14.359375-32 32-32 23.554687 0 43.777344 17.558594 47.085937 40.855469l13.542969 86.101563 145.238281-145.238282c15.871094-15.871094 41.75-15.871094 57.621094 0 16.023437 16.019532 16.023437 41.855469.128906 57.75l-37.78125 37.78125c6.441407 1.898438 12.308594 5.375 17.195313 10.238282 14.699218 14.699218 15.914062 37.695312 3.753906 53.632812 6.59375 1.878906 12.628906 5.398438 17.578125 10.367188 14.699219 14.722656 15.914063 37.738281 3.710937 53.695312 6.488282 1.792969 12.566407 5.25 17.625 10.304688 16.019532 16.023437 16.019532 41.878906.148438 57.75l-88.148438 80.234374c-21.65625 19.691407-49.6875 30.527344-78.914062 30.527344zm-118.785156-362.664062c-5.867188 0-10.664063 4.796875-10.664063 10.664062v201.152344c0 25.644531 9.984375 49.75 28.117188 67.90625l33.535156 33.535156c18.113281 18.089844 42.195313 28.074219 67.796875 28.074219 23.914062 0 46.804688-8.851563 64.492188-24.960937l87.785156-79.871094c7.210937-7.210938 7.210937-19.519532-.363282-27.113282-7.722656-7.679687-19.988281-7.703124-27.539062-.171874l-.984375.980468c-4.160156 4.160156-10.921875 4.160156-15.082031 0-4.136719-4.136718-4.160156-10.859375-.0625-15.019531.019531-.019531.019531-.019531.042968-.039063l.019532-.023437 22.273437-22.273437c7.550781-7.550782 7.550781-19.882813 0-27.453126-7.722656-7.679687-20.011719-7.660156-27.542969-.171874l-22.3125 22.316406c-4.160156 4.160156-10.921874 4.160156-15.082031 0-2.050781-2.070313-3.09375-4.800782-3.09375-7.53125 0-2.730469 1.042969-5.460938 3.113281-7.554688l43.605469-43.605468c7.550781-7.550782 7.550781-19.882813 0-27.453126-7.574219-7.554687-20.203125-7.488281-27.519531-.171874l-43.667969 43.648437c-4.160156 4.160156-10.925781 4.160156-15.085937 0-2.066406-2.070313-3.113282-4.800781-3.113282-7.53125s1.046876-5.460937 3.113282-7.550781l106.730468-106.730469c7.554688-7.554687 7.554688-19.90625 0-27.457031-7.699218-7.703125-20.03125-7.703125-27.582031-.128906l-160.0625 160.066406c-2.859375 2.855468-7.042969 3.882812-10.859375 2.601562-3.820312-1.257812-6.613281-4.523437-7.234375-8.492187l-16.789062-106.984375c-1.832031-12.972656-13.011719-22.65625-25.984375-22.65625zm0 0"/></svg>