<svg height="507pt" viewBox="0 -30 507.072 507" width="507pt" xmlns="http://www.w3.org/2000/svg"><path d="m496.296875 213.535156c0 34.132813-13.4375 66.984375-37.542969 91.09375l-37.761718 37.757813c-20.054688 19.839843-47.148438 31.148437-75.519532 31.148437-27.308594 0-54.402344 4.054688-80.425781 11.945313l-165.546875 50.5625c-2.347656.851562-4.90625 1.277343-7.253906 1.277343-8.746094 0-16.855469-5.332031-20.054688-14.078124-8.320312-23.039063 1.492188-48.640626 23.039063-60.160157l113.066406-64.425781-186.664063-186.453125c-7.46875-7.253906-11.09375-17.070313-11.09375-26.667969 0-9.601562 3.625-19.414062 11.09375-26.667968 13.652344-13.652344 35.414063-14.71875 58.878907 5.546874.214843.425782.425781.855469.855469.855469.425781.636719 1.066406 1.066407 1.492187 1.492188l66.558594 66.558593c-7.039063-7.253906-10.453125-16.425781-10.664063-25.8125 0-.214843 0-.214843 0-.425781 0-9.601562 3.839844-19.199219 11.089844-26.667969 14.507812-14.507812 37.976562-14.71875 52.695312-.640624l27.09375 27.09375-.214843-.425782c-7.039063-7.039062-10.453125-16.425781-10.664063-25.601562 0-.210938 0-.210938 0-.425782 0-9.597656 3.625-19.414062 11.089844-26.667968 14.722656-14.71875 38.613281-14.71875 53.335938 0l20.050781 20.054687.640625.640625-.425782-.640625c-6.613281-6.824219-9.8125-16-10.027343-24.960937 0-.210938 0-.210938 0-.425782 0-9.597656 3.628906-19.414062 11.09375-26.667968 14.71875-14.71875 38.613281-14.71875 53.332031 0l100.910156 100.695312c24.105469 24.105469 37.542969 56.960938 37.542969 91.09375zm0 0" fill="#ffcc80"/><path d="m48.382812 266.890625c-2.730468 0-5.460937-1.046875-7.550781-3.117187l-32-32c-4.160156-4.160157-4.160156-10.921876 0-15.082032 4.160157-4.160156 10.921875-4.160156 15.082031 0l24.449219 24.449219 24.449219-24.449219c4.15625-4.160156 10.921875-4.160156 15.082031 0 4.160157 4.160156 4.160157 10.921875 0 15.082032l-32 32c-2.050781 2.070312-4.78125 3.117187-7.511719 3.117187zm0 0"/><path d="m80.382812 341.554688c-2.730468 0-5.460937-1.042969-7.550781-3.113282l-24.449219-24.449218-24.445312 24.449218c-4.160156 4.160156-10.925781 4.160156-15.085938 0-4.160156-4.160156-4.160156-10.921875 0-15.082031l32-32c4.160157-4.160156 10.925782-4.160156 15.085938 0l32 32c4.160156 4.160156 4.160156 10.921875 0 15.082031-2.09375 2.070313-4.824219 3.113282-7.554688 3.113282zm0 0"/><path d="m92.203125 447.964844c-4.585937 0-9.171875-1-13.484375-3.007813-7.742188-3.625-13.628906-10.046875-16.554688-18.089843-10.132812-27.816407 1.921876-59.304688 28.011719-73.257813l100.628907-57.238281-176.640626-176.640625c-9.128906-9.109375-14.164062-21.269531-14.164062-34.175781s5.035156-25.066407 14.164062-34.21875c9.898438-9.917969 23.042969-14.421876 36.824219-12.777344 14.226563 1.75 28.4375 9.644531 42.257813 23.445312l35.84375 35.839844c1.769531-9.171875 6.183594-17.898438 13.265625-24.980469 18.304687-18.304687 47.765625-18.859375 66.734375-1.621093 1.769531-9.195313 6.183594-17.941407 13.289062-25.046876 16.617188-16.617187 42.367188-18.625 61.207032-5.929687 1.621093-9.558594 6.097656-18.710937 13.460937-26.070313 18.855469-18.878906 49.554687-18.878906 68.414063 0l100.777343 100.757813c26.328125 26.347656 40.832031 61.375 40.832031 98.601563 0 37.25-14.503906 72.257812-40.832031 98.582031l-37.714843 37.71875c-22.1875 22.164062-51.648438 34.367187-82.964844 34.367187-26.242188 0-52.289063 3.882813-77.378906 11.542969l-165.269532 50.34375c-3.496094 1.238281-7.125 1.855469-10.707031 1.855469zm-46.847656-388.351563c-6.058594 0-11.542969 2.242188-16.109375 6.808594-10.535156 10.535156-10.535156 27.710937 0 38.25l186.539062 186.539063c2.347656 2.34375 3.480469 5.671874 3.03125 8.957031-.449218 3.308593-2.410156 6.210937-5.3125 7.851562l-113.023437 64.277344c-17.023438 9.132813-24.769531 29.398437-18.261719 47.296875.980469 2.6875 2.945312 4.84375 5.523438 6.015625 2.582031 1.214844 5.484374 1.34375 8.152343.363281.167969-.066406.363281-.128906.53125-.191406l165.503907-50.433594c27.117187-8.277344 55.253906-12.457031 83.605468-12.457031 25.621094 0 49.75-9.984375 67.882813-28.117187l37.71875-37.71875c22.292969-22.316407 34.582031-51.96875 34.582031-83.5s-12.289062-61.203126-34.582031-83.519532l-100.78125-100.757812c-10.535157-10.539063-27.710938-10.539063-38.25 0-5.097657 5.101562-7.933594 11.90625-7.933594 19.117187 0 7.210938 2.816406 14.015625 7.933594 19.113281l10.476562 10.476563c2.089844 2.089844 3.113281 4.820313 3.113281 7.550781 0 2.730469-1.042968 5.460938-3.113281 7.550782-4.160156 4.160156-10.921875 4.160156-15.082031 0l-31.808594-31.808594c-10.21875-10.21875-28.011718-10.21875-38.25 0-10.539062 10.539062-10.539062 27.714844 0 38.253906l31.804688 31.804688c2.09375 2.09375 3.117187 4.824218 3.117187 7.554687s-1.046875 5.460937-3.117187 7.550781c-4.15625 4.160156-10.921875 4.160156-15.082032 0l-58.472656-58.496094c-10.539062-10.539062-27.710937-10.539062-38.25 0-10.539062 10.539063-10.539062 27.710938 0 38.25l58.472656 58.476563c2.089844 2.089844 3.117188 4.820313 3.117188 7.550781 0 2.730469-1.046875 5.460938-3.117188 7.550782-4.160156 4.160156-10.921874 4.160156-15.082031 0l-122.667969-122.664063c-11.539062-11.5625-22.953124-17.496094-32.808593-17.496094zm0 0"/></svg>