<svg height="511pt" viewBox="-32 0 511 511.984" width="511pt" xmlns="http://www.w3.org/2000/svg"><path d="m265.878906 343.664062-86.398437 94.292969c-12.160157 13.226563-29.226563 20.695313-47.148438 20.695313h-35.839843c-47.148438 0-85.332032-38.1875-85.332032-85.335938v-85.332031c0-11.734375 9.597656-21.332031 21.332032-21.332031 3.839843 0 7.464843 1.066406 10.667968 2.984375 6.398438 3.628906 10.664063 10.453125 10.664063 18.347656v-21.332031c0-11.734375 9.601562-21.335938 21.335937-21.335938 3.839844 0 7.464844 1.066406 10.664063 2.988282 6.402343 3.625 10.667969 10.453124 10.667969 18.347656v-21.335938c0-11.730468 9.601562-21.332031 21.332031-21.332031 3.839843 0 7.46875 1.066406 10.667969 2.984375 6.398437 3.628906 10.667968 10.457031 10.667968 18.347656v-64c0-11.730468 9.597656-21.332031 21.332032-21.332031 11.734374 0 21.332031 9.601563 21.332031 21.332031v149.335938l34.347656-22.828125c16.640625-11.09375 39.039063-7.253907 50.988281 8.746093 6.183594 8.105469 5.546875 19.628907-1.28125 27.09375zm0 0" fill="#ffcc80"/><path d="m181.824219 447.984375h-149.332031c-5.886719 0-10.667969 4.777344-10.667969 10.667969v42.664062c0 5.890625 4.78125 10.667969 10.667969 10.667969h149.332031c5.890625 0 10.667969-4.777344 10.667969-10.667969v-42.664062c0-5.890625-4.777344-10.667969-10.667969-10.667969zm0 0" fill="#455a64"/><path d="m288.492188 127.984375c-2.730469 0-5.460938-1.046875-7.550782-3.113281l-106.667968-106.667969c-4.160157-4.160156-4.160157-10.921875 0-15.082031 4.160156-4.160156 10.921874-4.160156 15.082031 0l106.667969 106.664062c4.160156 4.160156 4.160156 10.925782 0 15.085938-2.070313 2.066406-4.800782 3.113281-7.53125 3.113281zm0 0"/><path d="m331.160156 234.652344c-5.890625 0-10.667968-4.78125-10.667968-10.667969v-64c0-5.886719 4.777343-10.667969 10.667968-10.667969h64c5.886719 0 10.664063 4.78125 10.664063 10.667969s-4.777344 10.667969-10.664063 10.667969h-53.335937v53.332031c0 5.886719-4.777344 10.667969-10.664063 10.667969zm0 0"/><path d="m288.492188 127.984375h-64c-5.886719 0-10.667969-4.777344-10.667969-10.667969 0-5.886718 4.78125-10.664062 10.667969-10.664062h53.332031v-53.335938c0-5.886718 4.78125-10.664062 10.667969-10.664062 5.886718 0 10.667968 4.777344 10.667968 10.664062v64c0 5.890625-4.78125 10.667969-10.667968 10.667969zm0 0"/><path d="m437.824219 277.316406c-2.730469 0-5.460938-1.042968-7.550781-3.113281l-106.667969-106.667969c-4.160157-4.160156-4.160157-10.921875 0-15.082031 4.160156-4.160156 10.925781-4.160156 15.082031 0l106.667969 106.667969c4.160156 4.160156 4.160156 10.921875 0 15.082031-2.070313 2.070313-4.800781 3.113281-7.53125 3.113281zm0 0"/><path d="m132.332031 469.316406h-35.839843c-52.929688 0-96-43.070312-96-96v-85.332031c0-17.644531 14.355468-32 32-32 4.160156 0 8.128906.789063 11.796874 2.238281 3.691407-13.566406 16.148438-23.570312 30.871094-23.570312 4.160156 0 8.125.789062 11.796875 2.238281 3.691407-13.566406 16.148438-23.574219 30.867188-23.574219 3.734375 0 7.339843.640625 10.667969 1.835938v-33.835938c0-17.640625 14.355468-32 32-32 17.640624 0 32 14.359375 32 32v129.386719l17.769531-11.839844c21.3125-14.230469 50.089843-9.34375 65.472656 11.199219 9.238281 12.289062 8.40625 29.460938-2.003906 40.8125l-86.335938 94.207031c-14.125 15.402344-34.175781 24.234375-55.0625 24.234375zm-99.839843-192c-5.886719 0-10.667969 4.800782-10.667969 10.667969v85.332031c0 41.175782 33.496093 74.667969 74.667969 74.667969h35.839843c14.910157 0 29.246094-6.292969 39.316407-17.300781l86.335937-94.207032c3.476563-3.800781 3.753906-9.496093.683594-13.589843-8.597657-11.5-24.660157-14.210938-36.566407-6.273438l-34.34375 22.890625c-3.265624 2.175782-7.488281 2.390625-10.945312.511719-3.476562-1.8125-5.652344-5.417969-5.652344-9.363281v-149.335938c0-5.867187-4.78125-10.664062-10.667968-10.664062-5.886719 0-10.667969 4.796875-10.667969 10.664062v117.335938c0 5.886718-4.777344 10.664062-10.664063 10.664062-5.890625 0-10.667968-4.777344-10.667968-10.664062v-53.335938c0-5.867187-4.777344-10.664062-10.667969-10.664062-5.886719 0-10.664063 4.796875-10.664063 10.664062v53.335938c0 5.886718-4.78125 10.664062-10.667968 10.664062-5.886719 0-10.667969-4.777344-10.667969-10.664062v-32c0-5.867188-4.777344-10.667969-10.664063-10.667969-5.890625 0-10.667968 4.800781-10.667968 10.667969v32c0 5.886718-4.777344 10.664062-10.667969 10.664062-5.886719 0-10.664063-4.777344-10.664063-10.664062v-10.667969c0-5.867187-4.78125-10.667969-10.667968-10.667969zm0 0"/><path d="m181.824219 511.984375c-5.886719 0-10.664063-4.777344-10.664063-10.667969v-32h-128v32c0 5.890625-4.78125 10.667969-10.667968 10.667969-5.886719 0-10.667969-4.777344-10.667969-10.667969v-42.664062c0-5.890625 4.78125-10.667969 10.667969-10.667969h149.332031c5.890625 0 10.667969 4.777344 10.667969 10.667969v42.664062c0 5.890625-4.777344 10.667969-10.667969 10.667969zm0 0"/></svg>