<svg height="511pt" viewBox="-42 0 511 511.99723" width="511pt" xmlns="http://www.w3.org/2000/svg"><path d="m331.566406 266.664062-20.265625 20.480469c6.398438-6.402343 14.933594-9.386719 23.46875-8.535156 7.039063.429687 13.652344 3.203125 18.984375 8.535156h.214844c11.519531 11.519531 11.730469 30.292969.640625 42.027344l-21.976563 21.972656c6.402344-6.402343 14.933594-9.386719 23.46875-8.535156 7.039063.429687 13.652344 3.203125 18.984376 8.535156h.214843c11.734375 11.734375 11.734375 30.933594 0 42.667969l-87.894531 79.785156c-19.625 17.917969-45.226562 27.734375-71.679688 27.734375-28.160156 0-55.253906-11.308593-75.304687-31.148437l-33.492187-33.707032c-20.054688-19.839843-31.363282-46.933593-31.363282-75.304687v-201.175781c0-11.730469 9.601563-21.332032 21.335938-21.332032 18.34375 0 33.917968 13.441407 36.691406 31.574219l16.640625 107.09375 160.214844-160c11.730469-11.734375 30.71875-11.734375 42.453125 0h.210937c11.09375 11.09375 11.734375 29.011719 1.707031 40.746094l-65.917968 65.917969c6.398437-6.398438 15.144531-9.386719 23.679687-8.53125 7.039063.425781 13.652344 3.199218 18.984375 8.53125v.214844c11.734375 11.734374 11.734375 30.71875 0 42.453124zm0 0" fill="#ffcc80"/><path d="m11.164062 106.664062c-5.3125 0-9.898437-3.945312-10.582031-9.34375-.726562-5.847656 3.414063-11.179687 9.257813-11.90625l170.667968-21.332031c5.824219-.765625 11.175782 3.414063 11.902344 9.257813.726563 5.847656-3.414062 11.179687-9.257812 11.925781l-170.667969 21.335937c-.449219.039063-.894531.0625-1.320313.0625zm0 0"/><path d="m149.828125 138.664062c-1.855469 0-3.753906-.46875-5.480469-1.515624-5.058594-3.027344-6.699218-9.597657-3.671875-14.632813l27.203125-45.355469-46.058594-36.820312c-4.589843-3.691406-5.335937-10.390625-1.664062-15 3.6875-4.5625 10.386719-5.332032 14.996094-1.664063l53.332031 42.667969c4.160156 3.328125 5.226563 9.257812 2.476563 13.804688l-32 53.332031c-1.984376 3.328125-5.527344 5.183593-9.132813 5.183593zm0 0"/><path d="m277.828125 117.332031c-2.730469 0-5.460937-1.046875-7.550781-3.117187l-42.667969-42.664063c-3.453125-3.457031-4.117187-8.832031-1.597656-13.015625l32-53.332031c3.027343-5.035156 9.578125-6.742187 14.632812-3.667969 5.054688 3.027344 6.679688 9.578125 3.648438 14.632813l-27.710938 46.207031 36.777344 36.78125c4.160156 4.160156 4.160156 10.921875 0 15.082031-2.070313 2.046875-4.800781 3.09375-7.53125 3.09375zm0 0"/><path d="m235.164062 74.664062c-5.335937 0-9.941406-4.011718-10.582031-9.40625-.683593-5.847656 3.496094-11.136718 9.34375-11.84375l181.332031-21.332031c5.804688-.851562 11.15625 3.476563 11.839844 9.34375.683594 5.867188-3.496094 11.136719-9.34375 11.839844l-181.332031 21.335937c-.425781.039063-.855469.0625-1.257813.0625zm0 0"/><path d="m215.28125 511.996094c-31.296875 0-60.738281-12.179688-82.859375-34.324219l-33.558594-33.535156c-22.164062-22.207031-34.367187-51.671875-34.367187-82.988281v-201.152344c0-17.640625 14.355468-32 32-32 23.53125 0 43.753906 17.558594 47.082031 40.855468l13.527344 86.101563 145.234375-145.238281c15.894531-15.871094 41.730468-15.871094 57.621094 0 16 16.019531 16 41.855468.128906 57.75l-37.800782 37.800781c6.3125 1.855469 12.242188 5.269531 17.214844 10.21875 7.828125 7.808594 12.074219 18.070313 12.074219 28.929687 0 9.066407-2.921875 17.664063-8.339844 24.703126 6.460938 1.835937 12.542969 5.289062 17.597657 10.347656 7.832031 7.808594 12.074218 18.070312 12.074218 28.925781 0 9.089844-2.941406 17.6875-8.359375 24.746094 6.484375 1.792969 12.5625 5.25 17.621094 10.304687 7.828125 7.808594 12.074219 18.070313 12.074219 28.929688 0 10.902344-4.246094 21.121094-11.949219 28.820312l-88.125 80.234375c-21.65625 19.734375-49.664063 30.570313-78.890625 30.570313zm-118.785156-362.664063c-5.886719 0-10.667969 4.796875-10.667969 10.664063v201.152344c0 25.621093 9.984375 49.75 28.117187 67.90625l33.558594 33.535156c18.113282 18.089844 42.195313 28.074218 67.777344 28.074218 23.914062 0 46.804688-8.851562 64.511719-24.960937l87.785156-79.871094c3.308594-3.308593 5.332031-8.191406 5.332031-13.375 0-5.183593-2.023437-10.070312-5.695312-13.738281-7.574219-7.554688-19.648438-7.679688-27.21875-.449219l-1.28125 1.28125c-4.160156 4.136719-10.878906 4.160157-15.0625.019531-4.09375-4.054687-4.203125-10.625-.296875-14.828124v-.019532c0-.019531 0-.019531 0-.019531s0-.042969.019531-.023437v-.019532-.023437s.023438.023437.023438-.019531c0 0 0 .042968.019531-.023438 0 0 0-.019531.023437-.019531l.019532-.023438s-.042969.214844.023437-.042969c0-.019531.019531-.019531.039063-.042968l22.253906-22.269532c3.667968-3.671874 5.695312-8.535156 5.695312-13.738281 0-5.207031-2.027344-10.070312-5.695312-13.738281-7.597656-7.597656-19.734375-7.640625-27.328125-.386719l-22.507813 22.527344c-4.160156 4.160156-10.921875 4.160156-15.082031 0-4.160156-4.15625-4.160156-10.921875 0-15.082031l22.25-22.269532c.105469-.128906.234375-.234374.363281-.363281l20.96875-20.972656c3.671875-3.667969 5.695313-8.53125 5.695313-13.738281 0-5.203125-2.023438-10.070313-5.695313-13.738282-7.574218-7.550781-19.605468-7.65625-27.21875-.46875l-43.96875 43.96875c-4.160156 4.160157-10.921875 4.160157-15.082031 0-4.160156-4.160156-4.160156-10.921874 0-15.082031l43.582031-43.605469c.171875-.171874.34375-.363281.511719-.511718l62.613281-62.613282c7.574219-7.554687 7.574219-19.90625 0-27.457031-7.699218-7.679687-20.011718-7.679687-27.582031-.128906l-160.066406 160.0625c-2.835938 2.859375-7.015625 3.863281-10.835938 2.605469-3.820312-1.257813-6.613281-4.523438-7.230469-8.492188l-16.683593-106.984375c-1.855469-12.972656-13.015625-22.65625-25.984375-22.65625zm0 0"/></svg>